<svg xmlns="http://www.w3.org/2000/svg" xmlns:xlink="http://www.w3.org/1999/xlink" id="Warstwa_1" x="0px" y="0px" viewBox="0 0 792 792" xml:space="preserve"><style type="text/css">
	.bw0{fill:#ED1C24;}
	.bw1{fill:#EF4123;}
	.bw2{fill:#FBC79B;}
	.bw3{fill:#00A14B;}
	.bw4{fill:#C16544;}
	.bw5{fill:#FEFEFE;}
</style><path class="bw0" d="M522.1,552.6c2.9-2.2,0.2,0.2,4.4-3.8c6.6-6.3,23.7-22.9,25.8-29.1c-6.9-6.9-7.9-7.7-16.4-10.7  c-6.9,10-2.9,17.8-13.7,26.9c-6.6-2.7-4.6-1.1-11-8l-8.3-8.4c-9.2,22.3-8.8,52.8-29.5,62.2c-13.1-11.7-26.5-40.2-29.9-43.8  c-7-7.5-18-2.4-47.8-24.3c-9.2,4.3-12.3,8.4-23,13.2c-8,3.6-4.6,1.8-12.3,4.2c-26.5,8.1-11.7,29.8-38.9,47.1  c-17.3-9.6-20.2-42-29.9-61c-13.4,5.4-11.4,16.4-28.9,19.1l-7.2-25.3c-10.1,4.3-8.8,5.4-16.2,11.4c4.6,13.6,20.7,24,26.7,39.4  c10.8-5.8,12.2-11.3,21-13.2h6.2c0.3-0.7,1.4,0.2,2.1,0.4c10.2,41.5-14.7,31.8,14.4,82.3c10.2-18.9,15.4-46.3,37.3-51.2  c7.7,13.5,18.7,27.2,24.1,46.6H423c11-20.1,8-32.8,24.3-48.9c17.5,7,19.5,29.9,29.3,47.7c4.4-11.4,16.5-28.8,18.5-36.1  c2.5-9.5,4.5-38.8,6.9-51.6C517.1,540,512.3,542.4,522.1,552.6z"></path><path class="bw1" d="M334.7,138.8c-7-19.8-8.7-32.5-6.2-57c-16.2,8.2-29.7,26.6-32.2,50.4c-3,28.8,11.6,47.1,21,61.7  c43.6-5,82.5-22.6,144.6-1.7c9.4,3.2,20.4,11,28.5,9.5c18.3-3.4,4.9-6.3,32.8-4.9C540,197.6,565,175,573.4,166  c-15.4-6.4-27-4.6-43.5-2.7c7.4-16.3,20.1-25.9,18.8-52.2c-11,10.8-26.5,18.2-49,19.6c4.6-10,11.5-15.5,16.8-28.9  c4.9-12.4,7-27,7.3-42c-10.2,4.1-1.4,0.6-6.9,3.5c-17.6,9.3-25.6,10.8-48.3,9.6c-21.3-1.1-43.5-6.9-64-5.2  c-19.8,1.7-37.2,10-48.3,19.7c-18.6,16.1-16.3,32.5-18.2,42c-0.2,0.9-0.3,1.6-0.6,2.5L334.7,138.8z M236.8,233.9l10,3.1  c0.7,0.3,1.6,0.6,2.3,0.8s1.7,0.7,2.2,0.9c0.6,0.2,1.6,0.5,2.3,0.9c-17.9,6.5-26.3,18.7-29.7,42.6l25-6.8c-4.3,10-5.5,13.6-3.4,26.1  c34.2-29.3,71.6,32.6,110.2,34.2c-3.6-19.1-6-26.4-2.8-46.9c-16.4-5-19.7-10.9-28.5-24.8c-7.7-12.3-12.1-20.4-22-30.3  c-8-7.9-17-17.4-33.5-18.2C251.9,214.6,241.1,221.8,236.8,233.9z M436.9,288.8c2,20.5,0.1,27.7-2.8,46.6c42-0.4,54.7-53,105.9-37.5  c-1.4-9.8-4.7-16.2-7.4-23.3c12.9,2.3,21.8,9.3,32.7,11.5c-4.7-25-14-38.7-32.3-46.9c10.7-5.5,7.7,0.8,15.8-2.2  c-15.8-23.3-47.5-23.1-65.9-1.2C465.6,256.3,463.5,281.4,436.9,288.8z M337.4,344.6c-3.9-4.1,5.9-3.1-6.8-3.4  c-0.1,0-6.3,1.3-8.3,1.4c0.5-9.1,4.1-9.6-6.3-11.8C306.2,347.6,323.1,357.3,337.4,344.6z M467.6,344.1c-0.8-0.2-1.9-1.6-2.3-0.9  c-1.1,2-2-5.1-14.1-3.2c9,22.3,29.2,10.1,22.6-8.5C462.8,331.2,470.3,332,467.6,344.1z"></path><path class="bw2" d="M555.9,434.7c16.5,4.9,26.1,33,28,56.1c2.2,26.3-4.4,19.5-34.9,50.3c-25.5,25.9-52.6,60.8-67.3,105  c6.9,7.5,10.5,8.5,13.4,19.2c-39.3-19.5-45.4-28.4-102.2-28.4c-55.1,0-64.8,15.2-101.7,31.3c5.2-12.6,6.8-10.5,12.9-19.2  c-26.7-46.7-31.9-77.9-84.4-129.2c-24.9-24.3,13.4-78.1,32-82L237,459.1c11.5,18.5,43.4,43,68.3,54.8c14.4,6.8,31.4,10.5,49.7,6.3  c22.2-5.1,27.3-15.2,41.1-22.3c20.1,23.3,59.5,35.3,95.2,15.9c21.1-11.5,64.1-44.2,73.8-57.2L555.9,434.7z M416.8,427.3  c11.1-45.7,57.2-14.6,25.4,1.8l1.1-14.4c-2-0.8,0.4-3.3-8.2-1.4L416.8,427.3z M345.4,427c-14-35.4,27.4-25,30.8,1.1  c-10.1-8.2-8.9-13-24.6-15.1C347.6,420.6,351.7,418.9,345.4,427z M513.3,657.1c14.1-14.9,25.6-26.1,38.7-44.3l21.7-41.4  c9.2-27.1,25.1-7,51.6-50.2c33.7-54.9,18.6-156.8-53.9-153.6c-23.4,1-44.4,15-58.2,25.1c-13.7,10.1-11.3,3.1-29.9,0.1  c-29.2-4.8-14.2,1.9-18.5,13.6c-37.9-63.9-115.7-48.1-137.5,1.3l-3.2-15.9c-48.4,1.6-8,18.8-57.6-9.8  c-76.2-43.9-125.4,18.4-116.1,86c10.1,74.1,60.3,84.1,65.8,90.9c6.5,8.2,18.7,67.5,55.2,98.4c-6.9,15.3-18.2,28.5-13.7,51.8  c7.9,41.8,64.4,32.2,92.3,23.2c9.5-3.1,40.9-16.2,45.3-16c10.3,0.4,66.1,31.6,103.6,22C554.1,724.1,517.3,668.5,513.3,657.1z   M200.1,268.7c11.8-25.2,22.9-43.3,38.9-59.5c-1.4-1.7-1.4-1.8-4.1-4.2c-27.6-24-47.6-32.6-54.5-85.2l-4.5-18.9  C126.2,137.2,144.9,219.4,200.1,268.7z M543.5,206.3c17.1,15.8,33.7,35.6,44.1,62.8c47.3-29.8,68.5-139.2,21.7-159.8  c-2.8,28.6-5.7,40.4-19.9,60c-6.8,9.4-22.5,21-32.7,27.6L545,205C544.7,205.3,544,205.9,543.5,206.3z"></path><path class="bw3" d="M300.7,219.4c17.3,18.5,39.7,54.2,44.9,56.7c10.7,5,14.1-5,21.6-9c-9.8,30.4-8.6,57.8,7.2,84.3l40.3,0.8  c15.7-28.9,16.2-50.5,7.9-85.6c10.5,5.4,8.7,15,20.8,9.9c4.7-2,28.9-40.4,45.1-58.4c-30.9-15.5-51.8-25-95.5-24.3  C362.1,194.3,319.5,202.7,300.7,219.4z M544.1,310.8L530,302c1.6,17.9,2.5,30.7-4.3,44.6l13.5,8.1c-17.4-1-34.9,1.2-50.1,5.6  c-12.3,3.5-30.6,8.6-36,20.1c10.3,5.5,18.2,1.7,31.7,3.3c20.6,2.5,15.5,5.1,30.4-5.5c30.3-21.6,43.4-19.5,55.7-24.7l4.3-2.3  c-26.4-8.6-1.1-11.8-25.9-56.8L544.1,310.8z M241.6,315.9c-5.9-8.3-0.3-6.6-6.8-9.8c-2,10.5-2.7,16.1-4,26.8  c-2.3,18.3-0.2,5.9-10.3,19.1c0.5,0.4,1.4,0.1,1.7,0.8l29.2,8.9c9.9,3.9,18.7,9.5,26.4,14.9c12.2,8.5,9.5,11.3,26.8,8  c0.1,0,71.2,0.9,1.1-22.4c-17.5-5.8-29.5-4.7-46.2-8.6l10-7c-7.7-14.1-6.7-25.6-6.7-43.1C251.7,304.3,247.2,310,241.6,315.9z"></path><path class="bw4" d="M223.5,313.6l6.3-23.9l-12.7,5.3c-0.9-22.3,3.8-41.1,15.5-52c-15.5-0.7-20.7,19-24.2,31.9  C203.1,294.8,208.6,309.2,223.5,313.6z M572.5,298.5c-7.8,0.1-2.7-0.6-12-4.5l8.2,22.5c34.4-7.5,3.7-64.1-5.6-71.7  c-3.9,13.8,1.8,8.9,7,23.6C573.3,277.8,573.7,287.4,572.5,298.5z"></path><path class="bw5" d="M476.8,323.8c4.3,17.3,6.4,19.4-4.3,30.5c-25.1,4.1-16.6-5.9-29.3-9.7c-0.4,11.2,0.6,16.3,7.4,23.4  c30.2-9.2,2-6.3,64-20.1c7-11.9,11.6-33.6,1.9-47C495,307.5,491.6,318.5,476.8,323.8z M344.4,371.1c2.7-8.3,6.5-17.7,1.8-26.4  c-15.6,4-1.2,11.9-28.2,9.8c-11.2-13.6-10.2-11.9-5.9-31c-14.9-5.7-21.7-19.9-39.2-20c-0.4,39.9,1,44.4,19.4,47.8  C319.5,356.3,325.1,363.9,344.4,371.1z M360.6,626.8c-4.3-14.6-10.1-28.7-20.3-35.1c-8.7,10-18,31.6-21.5,48.7L360.6,626.8z   M450.6,591.5c-7.1,3.6-1.9-1.2-6.9,6.6c-0.4,0.6-3.7,7.8-4.3,9.4c-3,7.5-4.4,13-5.4,21l36.5,11.7  C468.6,624.1,459.8,600.2,450.6,591.5z M475.3,569.3c9.5-9.7,14-28.8,15.9-42.5l-36.5,8.2C458.5,546.1,465.6,564.8,475.3,569.3z   M339.4,534.6c-15.2-2.7-21.4-4.1-34.3-8.8c0.8,15.6,8.3,31.8,16.3,39.9C330.3,559.5,334.9,546.6,339.4,534.6z M288.3,590.3  l0.9-34.8c-9.7,3.9-9.7,4.4-15.6,14L288.3,590.3z M265.7,526.6c10.8-3.2,11-4.6,16.7-11.9c-4-6.3-11.5-10.6-18.3-14L265.7,526.6z   M511.2,514.2c2.8,7.7,2.6,6.6,10.5,12.7c4.6-7.8,5-13.2,6.3-24.1C521.2,505.7,517,508.3,511.2,514.2z M504.2,576  c4-5.3,7.5-8.7,11.8-15.1c-2.3-6.6-2.5-8-7.8-12.7C504.4,554.1,503.8,566.7,504.2,576z"></path><path d="M649,403.5c-16.7-39.6-62.3-51-72.3-68c5.9-10.5,15.8-7.7,19.9-26.9c5.2-23.8-7.3-18.9,8.4-32.8c34-30,54.2-89.3,41.1-135.7  c-5.5-19.5-22.5-47.9-43.3-45.2c-8.8,9.7-4.8,17.3-8.4,32.9c-2.7,11.4-7.8,17.8-10.8,27.3l-25.4-6.9c5.1-18.3,14-52.4-0.5-68.1  c-8.8,4.4-13.2,15.5-24.7,23.2c4.3-23,7.4-46.2-0.3-67.3H528c-24.4,27.7-50.5,25.3-96,18.4c-44.6-6.8-62.6,3.1-90.1,27l-4.1-16.2  c-24.8,5.3-48.2,30.4-54.7,53.6c-10.4,37.2,5.4,56.6,19.4,79c-52.2-25.4-38,17.1-80-24.5c-32.7-32.4-25.1-73-35.9-85.7  c-17-5.8-31.6,12.3-37.5,20.9c-35.6,52.8-11.2,129.1,33.4,168c9.7,8.5,8.6,3.9,11.2,19.5c4.8,29.4,8.9,19.4,21.2,36.8  c-2.6,11.7-12.2,19-23.8,23.6c-15.9,6.3-17.9,6.3-29.1,17.7c-51.1,52-33.3,154.8,27,189.9c28.1,16.4,10,5.1,30.8,48.8l21.2,36.7  c2,2.7,3.3,4.1,4.9,6.2l3.7,5.1c0.3,0.4,0.8,1.1,1.2,1.8c-14.7,27.7-18.6,59.9,10.4,82.1c25.3,19.3,68.9,10,96.2,0.5  c52.4-18.1,18.9-20.2,71.8-0.9c35.1,12.8,98.6,24.3,113.6-22.6c8.7-27.2-3.4-42.8-9.8-62.4c15.9-12.6,41.3-44.9,49.8-65.1  c4.9-11.5,3-17.6,13.9-24.5C653.1,533.9,674.6,464.3,649,403.5z M568.6,316.5l-8.2-22.5c9.3,3.9,4.2,4.6,12,4.5  c1.2-11.1,0.8-20.7-2.5-30.1c-5.2-14.6-10.9-9.8-7-23.6C572.3,252.4,603,309,568.6,316.5z M436.8,288.8c26.6-7.4,28.8-32.6,45.9-53  c18.4-21.9,50.1-22,65.9,1.2c-8.1,2.9-5.1-3.3-15.8,2.2c18.4,8.2,27.7,21.8,32.3,46.9c-10.9-2.2-19.8-9.2-32.7-11.5  c2.8,7,6,13.5,7.4,23.3c-51.2-15.5-63.9,37.2-105.9,37.5C436.9,316.5,438.8,309.4,436.8,288.8z M473.8,331.5  c6.6,18.6-13.6,30.8-22.6,8.5c12.2-1.9,13,5.2,14.1,3.2c0.4-0.7,1.5,0.7,2.3,0.9C470.2,332,462.7,331.2,473.8,331.5z M443.1,344.6  c12.7,3.8,4.1,13.8,29.3,9.7c10.8-11,8.6-13.1,4.3-30.5c14.8-5.4,18.3-16.3,39.8-23c9.7,13.4,5.1,35.1-1.9,47  c-62.1,13.9-33.8,11-64,20.1C443.6,360.9,442.7,355.8,443.1,344.6z M489,360.3c15.3-4.3,32.7-6.6,50.1-5.6l-13.5-8.1  c6.8-13.9,5.9-26.7,4.3-44.6l14.1,8.8l5.2-16.4c24.8,45-0.5,48.2,25.9,56.8l-4.3,2.3c-12.3,5.2-25.4,3.2-55.7,24.7  c-14.9,10.6-9.8,8-30.4,5.5c-13.5-1.6-21.3,2.2-31.7-3.3C458.4,368.9,476.7,363.8,489,360.3z M589.3,169.3  c14.2-19.5,17.1-31.3,19.9-60c46.8,20.7,25.7,130-21.7,159.8c-10.4-27.2-27-47.1-44.1-62.8c0.5-0.5,1.2-1.1,1.6-1.3l11.6-8.1  C566.7,190.3,582.5,178.7,589.3,169.3z M296.3,132.1c2.5-23.8,16-42.2,32.2-50.4c-2.5,24.6-0.8,37.3,6.2,57l2.8-7  c0.3-0.9,0.4-1.6,0.6-2.5c1.9-9.5-0.4-25.9,18.2-42c11.1-9.7,28.5-18,48.3-19.7c20.4-1.7,42.7,4.1,64,5.2  c22.7,1.1,30.7-0.4,48.3-9.6c5.5-2.9-3.3,0.7,6.9-3.5c-0.4,15-2.4,29.7-7.3,42c-5.3,13.3-12.2,18.8-16.8,28.9  c22.5-1.4,38-8.8,49-19.6c1.2,26.4-11.4,35.9-18.8,52.2c16.5-1.9,28.2-3.6,43.5,2.7c-8.4,8.9-33.4,31.6-50.2,30.8  c-27.9-1.3-14.5,1.6-32.8,4.9c-8.1,1.5-19.1-6.3-28.5-9.5c-62.1-20.9-100.9-3.3-144.6,1.7C307.8,179.2,293.3,160.9,296.3,132.1z   M392.8,193.8c43.7-0.8,64.6,8.7,95.5,24.3c-16.2,18.1-40.4,56.5-45.1,58.4c-12,5.1-10.3-4.5-20.8-9.9c8.4,35.1,7.9,56.7-7.9,85.6  l-40.3-0.8c-15.8-26.5-17-53.9-7.2-84.3c-7.5,4-10.9,14-21.6,9c-5.2-2.4-27.6-38.2-44.9-56.7C319.4,202.7,362,194.3,392.8,193.8z   M268.9,215.5c16.4,0.8,25.5,10.3,33.5,18.2c9.9,9.8,14.3,18,22,30.3c8.8,14,12.1,19.8,28.5,24.8c-3.2,20.5-0.7,27.8,2.8,46.9  c-38.6-1.6-76-63.5-110.2-34.2c-2.2-12.5-1-16.1,3.4-26.1l-25,6.8c3.4-23.9,11.8-36.1,29.7-42.6c-0.7-0.4-1.7-0.7-2.3-0.9  c-0.6-0.2-1.6-0.7-2.2-0.9c-0.7-0.3-1.6-0.6-2.3-0.8l-10-3.1C241,221.8,251.8,214.6,268.9,215.5z M269.5,346.5l-10,7  c16.7,3.9,28.7,2.8,46.2,8.6c70,23.3-1,22.4-1.1,22.4c-17.4,3.3-14.7,0.5-26.8-8c-7.7-5.4-16.4-11-26.4-14.9l-29.2-8.9  c-0.3-0.7-1.2-0.4-1.7-0.8c10.1-13.2,8-0.8,10.3-19.1c1.3-10.7,2-16.3,4-26.8c6.5,3.3,0.9,1.6,6.8,9.8c5.6-5.8,10.1-11.5,21.3-12.4  C262.7,320.9,261.8,332.4,269.5,346.5z M292.2,351.2c-18.5-3.4-19.8-7.9-19.4-47.8c17.5,0.1,24.3,14.3,39.2,20  c-4.3,19.1-5.2,17.4,5.9,31c26.9,2.2,12.6-5.7,28.2-9.8c4.8,8.7,1,18.2-1.8,26.4C325,363.9,319.4,356.3,292.2,351.2z M330.5,341.3  c12.7,0.3,2.8-0.8,6.8,3.4c-14.3,12.6-31.1,2.9-21.4-13.8c10.4,2.3,6.8,2.7,6.3,11.8C324.2,342.6,330.4,341.3,330.5,341.3z   M200,268.7c-55.1-49.3-73.8-131.5-24.3-167.8l4.5,18.9c6.9,52.5,26.9,61.2,54.5,85.2c2.7,2.4,2.7,2.5,4.1,4.2  C222.8,225.3,211.8,243.5,200,268.7z M208.3,274.9c3.5-12.9,8.7-32.6,24.2-31.9c-11.7,10.9-16.4,29.7-15.5,52l12.7-5.3l-6.3,23.9  C208.5,309.2,203,294.8,208.3,274.9z M625.3,521.2c-26.5,43.2-42.5,23.1-51.6,50.2l-21.8,41.4c-13.1,18.3-24.7,29.4-38.7,44.3  c4,11.4,40.8,67-14.4,81.2c-37.5,9.6-93.3-21.6-103.6-22c-4.3-0.2-35.8,13-45.3,16c-27.9,9-84.3,18.7-92.3-23.2  c-4.4-23.2,6.8-36.5,13.7-51.8c-36.6-30.9-48.7-90.2-55.2-98.4c-5.4-6.8-55.6-16.9-65.8-90.9c-9.3-67.6,39.9-129.9,116.1-86  c49.5,28.5,9.2,11.3,57.6,9.8l3.2,15.9c21.7-49.5,99.6-65.3,137.5-1.3c4.3-11.7-10.7-18.4,18.5-13.6c18.6,3.1,16.3,10,29.9-0.1  c13.8-10.1,34.9-24.2,58.2-25.1C643.8,364.4,658.9,466.3,625.3,521.2z M555.8,434.7l9.4,21.7c-9.8,13.1-52.7,45.8-73.8,57.2  c-35.7,19.4-75.1,7.4-95.2-15.9c-13.9,7.1-18.9,17.3-41.1,22.3c-18.3,4.2-35.3,0.6-49.7-6.3c-24.9-11.7-56.8-36.3-68.3-54.8  l14.7-21.4c-18.6,3.9-56.9,57.8-32,82c52.6,51.2,57.7,82.4,84.4,129.2c-6.1,8.7-7.7,6.7-12.9,19.2c36.9-16.1,46.6-31.3,101.7-31.3  c56.8,0,62.9,8.9,102.2,28.4c-2.9-10.7-6.6-11.7-13.4-19.2c14.7-44.2,41.8-79.1,67.3-105c30.5-30.8,37.1-24,34.9-50.3  C581.8,467.7,572.3,439.6,555.8,434.7z M527.9,502.7c-1.3,10.9-1.7,16.3-6.3,24.1c-7.9-6.1-7.7-5-10.5-12.7  C516.9,508.3,521.1,505.7,527.9,502.7z M491.1,526.8c-1.9,13.8-6.4,32.8-15.9,42.5c-9.7-4.5-16.9-23.2-20.6-34.3L491.1,526.8z   M339.3,534.6c-4.5,12-9.1,24.8-18,31c-8-8.1-15.5-24.3-16.3-39.9C318,530.5,324.1,531.9,339.3,534.6z M282.2,514.7  c-5.6,7.3-5.9,8.7-16.7,11.9l-1.7-25.9C270.8,504.1,278.2,508.4,282.2,514.7z M288.2,590.3l-14.7-20.8c5.9-9.5,5.9-10.1,15.6-14  L288.2,590.3z M318.7,640.5c3.5-17.1,12.8-38.7,21.5-48.7c10.1,6.4,15.9,20.4,20.3,35.1L318.7,640.5z M433.9,628.4  c0.9-8,2.4-13.5,5.4-21c0.6-1.6,3.9-8.8,4.3-9.4c5-7.8-0.2-2.9,6.9-6.6c9.2,8.6,17.9,32.6,19.9,48.6L433.9,628.4z M504.1,576  c-0.4-9.3,0.2-21.9,4.1-27.7c5.3,4.7,5.4,6,7.8,12.7C511.6,567.3,508.1,570.7,504.1,576z M526.4,548.8c-4.2,4-1.5,1.7-4.4,3.8  c-9.8-10.2-5-12.6-20-14.8c-2.4,12.8-4.4,42.1-6.9,51.6c-2,7.3-14.1,24.7-18.5,36.1c-9.8-17.8-11.8-40.7-29.3-47.7  C431,593.9,434,606.6,423,626.7h-51.9c-5.5-19.4-16.4-33.1-24.1-46.6c-22,4.9-27.1,32.3-37.3,51.2c-29.1-50.5-4.2-40.7-14.4-82.3  c-0.7-0.2-1.8-1.1-2.1-0.4h-6.3c-8.8,1.9-10.3,7.3-21,13.2c-5.9-15.4-22.1-25.8-26.7-39.4c7.3-6,6.1-7.1,16.2-11.4l7.2,25.3  c17.4-2.7,15.5-13.7,28.9-19.1c9.7,18.9,12.6,51.4,29.9,61c27.2-17.3,12.4-39,38.9-47.1c7.8-2.4,4.3-0.6,12.3-4.2  c10.7-4.8,13.8-8.9,23-13.2c29.8,21.8,40.8,16.8,47.8,24.3c3.4,3.6,16.8,32.1,29.9,43.8c20.7-9.4,20.4-39.9,29.5-62.2l8.3,8.4  c6.4,6.8,4.4,5.3,11,8c10.8-9.2,6.8-17,13.7-26.9c8.5,3.1,9.5,3.8,16.4,10.7C550.1,525.9,533,542.5,526.4,548.8z M443.3,414.7  l-1.1,14.4c31.8-16.4-14.3-47.5-25.4-1.8l18.4-14C443.7,411.4,441.3,413.8,443.3,414.7z M351.5,413c15.7,2.1,14.4,6.9,24.6,15.1  c-3.4-26.1-44.7-36.5-30.8-1.1C351.6,418.9,347.5,420.6,351.5,413z"></path></svg>
