<svg xmlns="http://www.w3.org/2000/svg" xmlns:xlink="http://www.w3.org/1999/xlink" id="Warstwa_1" x="0px" y="0px" viewBox="0 0 792 792" xml:space="preserve"><style type="text/css">
	.go0{fill:#9A512E;}
	.go1{fill:#FFFFFF;}
	.go2{fill:#B59678;}
	.go3{fill:#6B5241;}
	.go4{fill:#5E3D22;}
</style><path class="go0" d="M405.5,124.7c-2.5-13.1-5-26.1-8.8-38.9c-1.5-4.9-3.1-9.7-5-14.4c13.8-5.1,28.5-7.5,43.2-8.2  c26.3-1,52.9,3.9,76.7,15.2c11,5.3,21.3,11.9,30.4,20.1c-8.6,7.5-16.2,16.3-23,25.4c-7.5,9.9-14.2,20.4-20.8,30.9  c-5.9,9.3-11.5,18.7-17.8,27.7c-3,4-6,8.1-10.1,11c1.6-7.6,2-15.5,0.2-23c-0.6-2.6-1.5-5.2-3.1-7.4c-0.6-0.8-1.5-1.3-2.4-1.2  c-0.3,1.5,0,3,0.1,4.5c0.7,7,0,14-1.4,20.9c-1.1,5.6-2.5,11.3-5.9,16c-3,4.4-7.8,7.9-13.2,8.4c-5.1,0.6-10.4-2-13.3-6.2  c-3.9-5.5-4.4-12.7-3.3-19.2c1.7-9.5,4.6-19.1,10.5-26.8c0.4-0.6,1-1.2,1-1.9c-1.1-0.8-2.4,0.1-3.5,0.6c-4.4,2.6-7.9,6.7-10.6,11  c-2.7,4.4-4.5,9.2-5.5,14.3c-3-5.5-4.6-11.7-6.2-17.8C410.3,152.2,408.1,138.4,405.5,124.7 M653.4,319c8.2,14,14.9,28.9,19.6,44.5  c5,17.1,5.4,35.6,1.3,52.9c-8.2,35.9-34.3,67.2-68.2,81.6c-15.8,6.7-33.2,9.5-50.2,7.9c-16.2-1.4-31.8-6.5-47-12  c-18.7-6.8-37.2-14.3-56.3-20.1c-25.1-7.8-51-13-77.2-15.5c-16.2-1.6-32.5-2.2-48.8-2.1c-15.4-0.1-30.8,0.4-46.2-0.8  c-14.1-1.1-28.1-3.6-41.7-7.6c-12.3-3.4-24.1-8.7-34.7-15.7c-10-6.6-19-14.7-26.3-24.3c-7.1-9.4-12.5-20.1-15.6-31.5  c-1.8-6.8-2.9-13.8-3.2-20.9c-0.8-15.3,0.6-30.8,5.2-45.5c3.8-12,9.8-23.2,17.5-33.2c6.8-8.9,14.9-16.7,23.5-23.8  c9.2-7.6,19-14.4,28.6-21.4c4.3-3.2,8.6-6.4,12.6-9.8c4.7-3.9,8.9-8.4,12.6-13.2c8.4-10.8,15.8-22.4,23.4-33.8  c7.5-11.3,15-22.6,23.1-33.5c14.2-19.1,30.5-37.1,50.1-50.9c7.5,9.2,13.3,19.6,18.6,30.1c5.3,10.7,10.1,21.6,14.8,32.5  c-6.7-1.7-13.8-2-20.6-0.7c-10.9,1.9-20.9,7.4-29,14.8c-9.2,8.3-16.3,18.6-21.9,29.6c-6.1,12.1-10.3,25.1-12.5,38.4  c-2.1,13.6-2.2,27.8,1.7,41.1c1.8,5.9,4.4,11.6,8,16.6c3.2,4.5,7.3,8.4,12,11.4c5.5,3.4,11.6,5.8,17.9,7.3  c7.4,1.7,15.2,1.7,22.6-0.2c10.2-2.6,19.2-8.6,26.3-16.2c8.1-8.6,13.9-19,18.3-29.9c6.9-17.6,9.8-36.6,10.3-55.4  c0.8,0.5,1.8,0.8,2.3,1.7c3.7,5.2,9.4,9,15.7,10c4.6,0.8,9.4,0,13.5-2.1c-5.2,12.9-8.2,26.6-9.2,40.5c-1,13.9,0,28.1,4.6,41.3  c3.9,11.5,12.1,21.3,22.3,27.7c10.6,6.7,23.6,9.7,36,7.7c11.6-1.9,22.4-7.8,30.9-15.9c8.3-8,14.5-18,18.6-28.7  c5-13.1,7.2-27.1,7.1-41.1c-0.2-13.9-2.6-27.9-8-40.7c-4.3-10.1-10.4-19.6-19.2-26.3c-6.6-5.1-14.5-8.8-22.9-9.4  c8.1-8.3,16.3-16.6,24.9-24.3c8.6-7.6,17.6-14.9,28-19.8c6.3,10.7,11.7,21.9,16.5,33.3c10,23.5,17.8,47.9,25.7,72.2  c2.2,6.7,4.4,13.3,6.8,19.9c2,5.5,4.2,11,7.1,16.2c4.5,8.1,10,15.7,15.2,23.4C643.4,302.9,648.7,310.8,653.4,319 M593.2,456.6  c1.7-0.8,2.8-2.6,2.8-4.5c0-2.2-0.9-4.2-2-6c-2-3.4-4.7-6.5-7.5-9.3c-0.6-0.7-1.5-1.3-2-2.1c2.3-8.2,4.1-16.5,5.4-24.9  c1.9-12,3-24,2.9-36.2c-0.1-5.5-0.4-11.1-1.4-16.5c-0.6-2.5-1.2-5.2-2.9-7.3c-0.7-0.9-2-1.4-3.1-1.4c-2.2-0.1-4.4,0.5-6.4,1.2  c-6.4,2.4-12.3,6.1-17.9,10c-14.1,10.1-26.5,22.3-37.4,35.7c-38.7-18.7-80.6-29.9-123.1-35.3c-30-3.9-60.4-6.2-90.7-5.3  c-5.2-9.3-10.5-18.5-16.1-27.5s-11.5-17.9-18.2-26.1c-3.2-3.9-6.6-7.8-10.6-11c-2.2-1.7-4.7-3.4-7.6-3.7c-2-0.2-3.8,0.8-5.2,2.1  c-2.4,2.3-4,5.4-5.4,8.4c-3.6,8.2-5.8,17.1-7.6,25.9c-3,14.6-4.7,29.4-6,44.3c-3.3,1.4-6.8,2.8-9.2,5.5c-1.6,1.7-1.9,4.6-0.4,6.4  c1.5,1.5,3.8,1.4,5.7,1.2c3.9-0.4,7.6-1.6,11.3-2.7c13.7-4.3,27.8-6.6,42-8.4c31.1-3.6,62.5-3.2,93.7-0.3  c28.2,2.7,56.2,7.3,83.5,15.2c23.6,6.7,46.5,15.8,68.1,27.5c16.1,8.7,31.5,19,45.4,30.9c3,2.6,5.9,5.3,8.9,7.9  c2.4,2,4.8,4.1,7.6,5.6C590.7,456.4,592,457,593.2,456.6"></path><path class="go1" d="M407.7,216.8c-3-3.3-8-4.7-12.2-3.3c-4.3,1.3-7.7,4.8-10.1,8.5c-3.5,5.6-5.4,12.2-5.8,18.7  c-0.3,5.6,0.5,11.4,3.5,16.2c1.8,2.8,4.7,5.1,8,5.7c3,0.6,6.1-0.2,8.6-1.8c1.5-0.9,2.7-2.1,3.9-3.2c-2.2,6.2-5.1,12.2-8.5,17.8  c-5.3,8.6-12.2,16.6-21.3,21.3c-6.7,3.6-14.6,4.9-22.1,4.1c-5.7-0.6-11.3-2.2-16.1-5.1c-5.1-3-9.3-7.5-12.3-12.6  c-3-5-4.8-10.5-6-16.2c-1.4-6.7-1.7-13.5-1.5-20.2c0.6-13.1,3.5-26.1,8.7-38.1c4.9-11.3,11.6-21.9,20.2-30.7c4.2-4.2,8.8-8,14-10.9  c5.3-2.9,11.1-4.9,17.2-5.2c6.3-0.4,12.7,1.1,18.4,3.9c0.5,0.2,0.6,0.8,0.9,1.2c5.2,11.7,9.8,23.8,17.5,34c0.5,8,0,16.1-1,24  C410.9,222.1,409.8,219.1,407.7,216.8 M457.3,272c-1.3-1.9-2.1-4.2-2.8-6.4c-0.1,8.3,0.5,16.7,2.6,24.8c2.4,9.4,6.9,18.5,14.2,25  c4.1,3.7,9,6.4,14.3,7.9c6.9,2,14.2,2.8,21.3,1.6c5.2-0.9,10.3-2.8,14.8-5.6c4.8-2.9,9-6.8,12.5-11.1c7.6-9.4,12.4-20.9,15.3-32.6  c3.5-14.9,4-30.6,1.2-45.7c-2.3-11.6-6.5-23-13.9-32.3c-3.6-4.5-7.9-8.5-13.1-11.2c-5.6-3-12-4.4-18.3-3.8c-4,3.8-7.8,7.8-11.7,11.7  c-8,7.7-16.6,15.2-27.1,19.3c-3.7,7.5-6.3,15.4-8.2,23.5c1.9-3.6,4.6-7.1,8.3-9c4.5-2.3,10.5-1.4,14,2.3c3.7,4,4.9,9.6,5.3,14.8  c0.3,7-0.6,14.1-3.5,20.5c-2,4.2-4.9,8.2-9.1,10.4c-3,1.7-6.7,2.1-9.9,0.9C460.9,276.1,458.8,274.2,457.3,272 M397,222.3  c-1.7,0.6-2.8,2.1-3.6,3.7c-1,2.1-1.5,4.4-1.7,6.7c-0.1,1.5,0,3.1,0.7,4.5c1,2.1,3.7,3.1,5.8,2.3c1.4-0.5,2.4-1.6,3.2-2.8  c1.5-2.2,2.1-4.9,2.2-7.5c0.1-1.7-0.2-3.6-1.2-5C401.4,222.3,399,221.6,397,222.3 M471.6,252.6c1.5-0.5,2.5-1.8,3.2-3.1  c1.3-2.5,1.7-5.4,1.7-8.2c0-1.9-0.3-3.9-1.5-5.4c-0.9-1.2-2.6-1.6-4-1.4c-1.5,0.3-2.5,1.5-3.3,2.7c-1.2,2-1.6,4.4-1.8,6.7  c-0.1,2.1-0.1,4.4,0.9,6.4C467.7,252.1,469.8,253.2,471.6,252.6 M260.2,299.6c-1-0.9-1.8-2.1-3.1-2.4c-1,0.4-1.4,1.6-1.8,2.5  c-2.4,6.1-3.6,12.7-4.8,19.1c-2.6,14.7-4.1,29.5-5.1,44.3c9-2.2,18.2-3.7,27.3-5.1c7.3-1.1,14.6-1.9,21.9-2.5  c-6.8-14.9-14.8-29.3-24.1-42.8C267.3,308.2,264,303.6,260.2,299.6 M581.1,358c-2.2,0.6-4.1,2-6,3.2c-7.6,5.1-14.4,11.1-21,17.4  c-7.1,6.9-13.7,14.3-19.8,22.2c14.3,7.6,28,16.2,40.7,26.2c4-15.8,6.5-31.9,7.5-48.2c0.3-6.3,0.6-12.7-0.3-19  C582.2,359.1,582.2,357.6,581.1,358"></path><path class="go2" d="M452,620.7c-6.1,3-12.6,5-19.1,6.6c-15.9,3.9-32.6,4.7-48.9,3c-15.9-1.7-31.6-5.9-46.3-12.4  c-6.6-3-13.1-6.4-19.1-10.5c-0.3-0.3-0.8-0.4-1-0.8c0.5-22.3-5.2-44.4-15-64.3c-4.2-8.5-9.2-16.7-14.9-24.3  c3-11.1,8.2-21.7,15.9-30.3c5.5-6.1,12.1-11.3,19.3-15.4c16.3-0.4,32.5-0.3,48.8,1c25.8,2.1,51.4,6.7,76.1,14.5  c10.3,3.2,20.4,7,30.4,11c0.5,0.1,0.6,0.6,0.7,1c6.3,17.7,10.1,36.5,9.8,55.4c-0.3,14.9-3.4,30.2-11.5,43  C471.3,607.9,462.3,615.7,452,620.7"></path><path class="go3" d="M255.2,611.8c3.1,9.8,3.7,20.7-0.3,30.4c-3.1,7.7-9.3,14.4-17.3,17.2c-1.2,0.4-2.5,1-3.8,0.7  c-15.2-2.3-29.9-7.4-43.8-13.9c-16.5-7.9-32.1-17.8-45.2-30.5c-4.5-4.4-8.8-9.1-12.6-14.1c-1.9-2.3-3.2-5-4.8-7.5  c-2.9-4.6-3.6-10.2-3.1-15.5c0.6-6.6,3.2-13,7.3-18.2c3.4-4.3,7.8-7.7,12.7-10.1c6.3-3.1,13.4-4.5,20.4-4.8  c14.5-0.6,29.2,2.6,42.1,9.2c18.1,9.2,32.7,24.7,42.1,42.6C251.3,601.9,253.6,606.7,255.2,611.8"></path><path class="go4" d="M267.2,517.2c15.5,16.7,26.2,37.7,31.4,59.9c2.9,12.3,4.2,25.1,3,37.7c-0.9,8.5-2.9,17.1-7.5,24.4  c-4,6.6-9.8,12.1-16.6,15.7c-8.5,4.5-18.1,6.3-27.7,6.3c6.1-3.9,11.1-9.6,13.8-16.3c3.7-8.9,3.7-18.9,1.8-28.3  c-1.8-8.8-5.3-17.2-9.5-25.2c-4.8-9-10.7-17.4-17.8-24.7c-16-16.7-37.7-28.3-60.7-31.1c-7.3-0.9-14.7-0.7-22,0.5  c-6.8,1.1-13.6,3.3-19.6,6.8c-4.5,2.7-8.6,6.2-11.8,10.4c-4.4,5.8-6.7,13-7.1,20.2c-4.4-12.8-5.5-27-2.1-40.2  c2.9-11.4,8.7-22.1,16.9-30.5c8.6-8.9,19.6-15.3,31.4-18.9c12.9-4,26.9-4.6,40.2-1.9c12.5,2.4,24.7,6.7,35.9,13  C249.6,500.8,259.1,508.4,267.2,517.2 M482.6,623.2c-8.5,7.9-18.9,13.4-29.7,17.6c-13.2,5.1-27.2,7.9-41.3,8.7  c-0.7,2.2-1.2,4.5-1.2,6.9c-0.3,6.6,1.6,13.1,4.3,19.1c4.6,10.1,11.7,19,19.6,26.8c8.6,8.3,18.3,15.3,28.7,21  c11.8,6.5,24.4,11.4,37.5,14.3c14.4,3.2,29.5,4,44.1,1.4c12.4-2.2,24.7-7,34.3-15.3c8.2-7,14.2-16.7,16.1-27.4  c2.4-13.8,1.9-28.3-3.1-41.4c-3.9-10.5-10.7-19.9-19.1-27.3c-9.4-8.3-20.6-14.3-32.3-18.6c-13.3-4.7-27.4-7.4-41.6-7.7  C494.9,609.5,489.3,617,482.6,623.2"></path><path d="M586.5,436.6c-0.6-0.7-1.5-1.3-2-2.1c2.3-8.2,4.1-16.5,5.4-24.9c1.9-12,3-24,2.9-36.2c-0.1-5.5-0.4-11.1-1.4-16.5  c-0.6-2.5-1.2-5.2-2.9-7.3c-0.7-0.9-2-1.4-3.1-1.4c-2.2-0.1-4.4,0.5-6.4,1.2c-6.4,2.4-12.3,6.1-17.9,10  c-14.1,10.1-26.5,22.3-37.4,35.7c-38.7-18.7-80.6-29.9-123.1-35.3c-30-3.9-60.4-6.2-90.7-5.3c-5.2-9.3-10.5-18.5-16.1-27.5  s-11.5-17.9-18.2-26.1c-3.2-3.9-6.6-7.8-10.6-11c-2.2-1.7-4.7-3.4-7.6-3.7c-2-0.2-3.8,0.8-5.2,2.1c-2.4,2.3-4,5.4-5.4,8.4  c-3.6,8.2-5.8,17.1-7.6,25.9c-3,14.6-4.7,29.4-6,44.3c-3.3,1.4-6.8,2.8-9.2,5.5c-1.6,1.7-1.9,4.6-0.4,6.4c1.5,1.5,3.8,1.4,5.7,1.2  c3.9-0.4,7.6-1.6,11.3-2.7c13.7-4.3,27.8-6.6,42-8.4c31.1-3.6,62.5-3.2,93.7-0.3c28.2,2.7,56.2,7.3,83.5,15.2  c23.6,6.7,46.5,15.8,68.1,27.5c16.1,8.7,31.5,19,45.4,30.9c3,2.6,5.9,5.3,8.9,7.9c2.4,2,4.8,4.1,7.6,5.6c0.9,0.5,2.2,1.1,3.4,0.7  c1.7-0.8,2.8-2.6,2.8-4.5c0-2.2-0.9-4.2-2-6C592,442.5,589.3,439.4,586.5,436.6z M272.7,357.8c-9.1,1.4-18.3,2.9-27.3,5.1  c1-14.8,2.5-29.6,5.1-44.3c1.2-6.4,2.4-13,4.8-19.1c0.4-0.9,0.8-2.1,1.8-2.5c1.3,0.3,2.1,1.5,3.1,2.4c3.8,4,7.1,8.6,10.3,13.1  c9.3,13.5,17.3,27.9,24.1,42.8C287.3,355.9,280,356.7,272.7,357.8z M582.5,378.6c-1,16.3-3.5,32.4-7.5,48.2  c-12.7-10-26.4-18.6-40.7-26.2c6.1-7.9,12.7-15.3,19.8-22.2c6.6-6.3,13.4-12.3,21-17.4c1.9-1.2,3.8-2.6,6-3.2  c1.1-0.4,1.1,1.1,1.1,1.8C583.1,365.9,582.8,372.3,582.5,378.6z M693.5,373.9c-2.7-15.5-7.8-30.5-14.3-44.6  c-6.9-15.1-16-29.1-25.8-42.5c-5.6-7.8-11.5-15.4-16.3-23.8c-3.1-5.4-5.4-11.3-7.4-17.2c-1.9-5.5-3.7-11.1-5.4-16.7  c-3.7-11.6-7.2-23.2-11-34.8c-7.8-23.7-16.6-47.3-28.5-69.3c8.9-1.3,18.3-0.7,26.7,2.6c5.6,2.1,10.6,5.4,14.9,9.6  c1.7,1.6,3.2,3.4,4.7,5.2c0.9,1,2.1-0.2,2-1.2c-0.2-3-0.6-5.9-1-8.8c-1.6-10.2-4.6-20.3-10-29.2c-5.2-8.5-12.8-15.8-22.2-19.4  c-7.1-2.9-14.9-3.6-22.4-2.6c-6.9,0.9-13.6,3.2-19.7,6.4c-5.6-5.5-11.7-10.5-18.2-14.9c-21.4-14.5-46.4-23.1-71.9-26.4  c-28.6-3.7-58.1-0.8-85.3,8.9c-4-4.9-9.2-9-14.7-12.3c-9.5-5.6-21-8.1-31.9-6c-7.3,1.3-14.3,4.6-20.3,9  c-8.7,6.3-15.7,14.8-21.3,23.9c-0.6,0.9-1.3,1.9-1,3c0.3,0.7,1.2,0.5,1.8,0.3c5.1-2.1,10.6-3.4,16.1-3.6c10.6-0.5,21,2.9,29.9,8.4  c-16.8,12.7-31.2,28.2-44,44.8c-11,14.2-20.8,29.3-30.5,44.4c-7.6,11.8-14.9,23.7-23.9,34.5c-8.3,9.8-18.8,17.2-28.9,25  c-11.4,8.7-22.6,17.6-33.3,27.2c-3.5,3.2-7.1,6.3-10.2,9.9c-3.9,4.3-7.4,9.1-10.5,14c-7.1,11.4-12.3,23.9-15.7,36.9  c-3.8,14.8-5.3,30.3-4,45.5c1.1,13.5,4.4,26.8,10.1,39.1c4.9,10.7,11.7,20.6,19.9,29.2c8.1,8.4,17.5,15.6,27.6,21.5  c10.6,6.2,22.1,11,33.9,14.6c14.6,4.4,29.8,7,45.1,7.9c7.2,0.5,14.5,0.5,21.7,0.5c-10.4,7.6-18.6,17.9-24.4,29.3  c-10.4-10.2-22.3-18.9-35.4-25.3c-11.6-5.7-24.1-9.8-36.9-11.6c-13.9-2-28.3-1.2-41.8,2.6c-12.3,3.4-23.9,9.3-33.7,17.5  c-8.9,7.3-16.1,16.5-21.1,26.8c-5.5,11.8-8.5,24.8-8.5,37.9c0,13.8,3.5,27.5,9.5,39.9c8.2,16.8,20.7,31.2,35.2,42.7  c6.5,5.3,13.6,9.9,20.9,14.1c12.2,7,24.9,13.2,38.1,18.1c15.6,5.7,31.9,9.8,48.5,10c7.6,0.1,15.2-0.7,22.5-2.7  c7.5-2.1,14.7-5.4,21-10.1c5.1-3.8,9.7-8.3,13.3-13.6c4.6-6.8,7.7-14.5,9.6-22.5c24.2,14.1,51.9,22.1,79.9,23.5  c-1.4,6.2-0.8,12.7,0.6,18.8c2.7,11.4,8.4,21.8,15.4,31c6.9,8.8,15,16.6,23.9,23.4c19.9,15.1,43.2,25.7,67.7,30.5  c14.8,2.9,30,3.6,44.9,1.4c13-1.9,25.8-6.3,36.6-13.8c9.3-6.4,16.9-15.2,21.7-25.4c2.8-6.1,4.7-12.6,6-19.1c1.6-8,2.1-16.2,1.3-24.3  c-1.1-12-4.9-23.7-11-34.1c-5.8-9.9-13.6-18.7-22.7-25.8C570,604.7,559.3,599,548,595c-14.2-4.9-29.2-7.1-44.1-6.9  c3.2-11.1,4.2-22.8,3.6-34.3c-0.8-16.1-4.6-32-10-47.2c14.9,6.2,30,12,46,14.9c16.2,2.9,33,3.2,49.1-0.3c13-2.8,25.6-7.8,37.2-14.5  c19.8-11.6,36.8-28.1,48.3-47.9c6.5-11,11.4-22.9,14.3-35.4C696.2,407.2,696.3,390.3,693.5,373.9z M434.9,63  c26.3-1,52.9,3.9,76.7,15.2c11,5.3,21.3,11.9,30.4,20.1c-8.6,7.5-16.2,16.3-23,25.4c-7.5,9.9-14.2,20.4-20.8,30.9  c-5.9,9.3-11.5,18.7-17.8,27.7c-3,4-6,8.1-10.1,11c1.6-7.6,2-15.5,0.2-23c-0.6-2.6-1.5-5.2-3.1-7.4c-0.6-0.8-1.5-1.3-2.4-1.2  c-0.3,1.5,0,3,0.1,4.5c0.7,7,0,14-1.4,20.9c-1.1,5.6-2.5,11.3-5.9,16c-3,4.4-7.8,7.9-13.2,8.4c-5.1,0.6-10.4-2-13.3-6.2  c-3.9-5.5-4.4-12.7-3.3-19.2c1.7-9.5,4.6-19.1,10.5-26.8c0.4-0.6,1-1.2,1-1.9c-1.1-0.8-2.4,0.1-3.5,0.6c-4.4,2.6-7.9,6.7-10.6,11  c-2.7,4.4-4.5,9.2-5.5,14.3c-3-5.5-4.6-11.7-6.2-17.8c-3.4-13.5-5.6-27.3-8.2-41c-2.5-13.1-5-26.1-8.8-38.9c-1.5-4.9-3.1-9.7-5-14.4  C405.5,66.1,420.2,63.7,434.9,63z M473.4,275.9c4.2-2.2,7.1-6.2,9.1-10.4c2.9-6.4,3.8-13.5,3.5-20.5c-0.4-5.2-1.6-10.8-5.3-14.8  c-3.5-3.7-9.5-4.6-14-2.3c-3.7,1.9-6.4,5.4-8.3,9c1.9-8.1,4.5-16,8.2-23.5c10.5-4.1,19.1-11.6,27.1-19.3c3.9-3.9,7.7-7.9,11.7-11.7  c6.3-0.6,12.7,0.8,18.3,3.8c5.2,2.7,9.5,6.7,13.1,11.2c7.4,9.3,11.6,20.7,13.9,32.3c2.8,15.1,2.3,30.8-1.2,45.7  c-2.9,11.7-7.7,23.2-15.3,32.6c-3.5,4.3-7.7,8.2-12.5,11.1c-4.5,2.8-9.6,4.7-14.8,5.6c-7.1,1.2-14.4,0.4-21.3-1.6  c-5.3-1.5-10.2-4.2-14.3-7.9c-7.3-6.5-11.8-15.6-14.2-25c-2.1-8.1-2.7-16.5-2.6-24.8c0.7,2.2,1.5,4.5,2.8,6.4c1.5,2.2,3.6,4.1,6.2,5  C466.7,278,470.4,277.6,473.4,275.9z M465.9,243.7c0.2-2.3,0.6-4.7,1.8-6.7c0.8-1.2,1.8-2.4,3.3-2.7c1.4-0.2,3.1,0.2,4,1.4  c1.2,1.5,1.5,3.5,1.5,5.4c0,2.8-0.4,5.7-1.7,8.2c-0.7,1.3-1.7,2.6-3.2,3.1c-1.8,0.6-3.9-0.5-4.8-2.3  C465.8,248.1,465.8,245.8,465.9,243.7z M395.5,213.3c-4.3,1.3-7.7,4.8-10.1,8.5c-3.5,5.6-5.4,12.2-5.8,18.7  c-0.3,5.6,0.5,11.4,3.5,16.2c1.8,2.8,4.7,5.1,8,5.7c3,0.6,6.1-0.2,8.6-1.8c1.5-0.9,2.7-2.1,3.9-3.2c-2.2,6.2-5.1,12.2-8.5,17.8  c-5.3,8.6-12.2,16.6-21.3,21.3c-6.7,3.6-14.6,4.9-22.1,4.1c-5.7-0.6-11.3-2.2-16.1-5.1c-5.1-3-9.3-7.5-12.3-12.6  c-3-5-4.8-10.5-6-16.2c-1.4-6.7-1.7-13.5-1.5-20.2c0.6-13.1,3.5-26.1,8.7-38.1c4.9-11.3,11.6-21.9,20.2-30.7c4.2-4.2,8.8-8,14-10.9  c5.3-2.9,11.1-4.9,17.2-5.2c6.3-0.4,12.7,1.1,18.4,3.9c0.5,0.2,0.6,0.8,0.9,1.2c5.2,11.7,9.8,23.8,17.5,34c0.5,8,0,16.1-1,24  c-0.8-2.8-1.9-5.8-4-8.1C404.7,213.3,399.7,211.9,395.5,213.3z M403.6,229c-0.1,2.6-0.7,5.3-2.2,7.5c-0.8,1.2-1.8,2.3-3.2,2.8  c-2.1,0.8-4.8-0.2-5.8-2.3c-0.7-1.4-0.8-3-0.7-4.5c0.2-2.3,0.7-4.6,1.7-6.7c0.8-1.6,1.9-3.1,3.6-3.7c2-0.7,4.4,0,5.4,1.9  C403.4,225.4,403.7,227.3,403.6,229z M237.6,659.2c-1.2,0.4-2.5,1-3.8,0.7c-15.2-2.3-29.9-7.4-43.8-13.9  c-16.5-7.9-32.1-17.8-45.2-30.5c-4.5-4.4-8.8-9.1-12.6-14.1c-1.9-2.3-3.2-5-4.8-7.5c-2.9-4.6-3.6-10.2-3.1-15.5  c0.6-6.6,3.2-13,7.3-18.2c3.4-4.3,7.8-7.7,12.7-10.1c6.3-3.1,13.4-4.5,20.4-4.8c14.5-0.6,29.2,2.6,42.1,9.2  c18.1,9.2,32.7,24.7,42.1,42.6c2.4,4.6,4.7,9.4,6.3,14.5c3.1,9.8,3.7,20.7-0.3,30.4C251.8,649.7,245.6,656.4,237.6,659.2z   M301.6,614.6c-0.9,8.5-2.9,17.1-7.5,24.4c-4,6.6-9.8,12.1-16.6,15.7c-8.5,4.5-18.1,6.3-27.7,6.3c6.1-3.9,11.1-9.6,13.8-16.3  c3.7-8.9,3.7-18.9,1.8-28.3c-1.8-8.8-5.3-17.2-9.5-25.2c-4.8-9-10.7-17.4-17.8-24.7c-16-16.7-37.7-28.3-60.7-31.1  c-7.3-0.9-14.7-0.7-22,0.5c-6.8,1.1-13.6,3.3-19.6,6.8c-4.5,2.7-8.6,6.2-11.8,10.4c-4.4,5.8-6.7,13-7.1,20.2  c-4.4-12.8-5.5-27-2.1-40.2c2.9-11.4,8.7-22.1,16.9-30.5c8.6-8.9,19.6-15.3,31.4-18.9c12.9-4,26.9-4.6,40.2-1.9  c12.5,2.4,24.7,6.7,35.9,13c10.4,5.8,19.9,13.4,28,22.2c15.5,16.7,26.2,37.7,31.4,59.9C301.5,589.2,302.8,602,301.6,614.6z   M384,630.1c-15.9-1.7-31.6-5.9-46.3-12.4c-6.6-3-13.1-6.4-19.1-10.5c-0.3-0.3-0.8-0.4-1-0.8c0.5-22.3-5.2-44.4-15-64.3  c-4.2-8.5-9.2-16.7-14.9-24.3c3-11.1,8.2-21.7,15.9-30.3c5.5-6.1,12.1-11.3,19.3-15.4c16.3-0.4,32.5-0.3,48.8,1  c25.8,2.1,51.4,6.7,76.1,14.5c10.3,3.2,20.4,7,30.4,11c0.5,0.1,0.6,0.6,0.7,1c6.3,17.7,10.1,36.5,9.8,55.4  c-0.3,14.9-3.4,30.2-11.5,43c-5.9,9.7-14.9,17.5-25.2,22.5c-6.1,3-12.6,5-19.1,6.6C417,631,400.3,631.8,384,630.1z M498.9,601.1  c14.2,0.3,28.3,3,41.6,7.7c11.7,4.3,22.9,10.3,32.3,18.6c8.4,7.4,15.2,16.8,19.1,27.3c5,13.1,5.5,27.6,3.1,41.4  c-1.9,10.7-7.9,20.4-16.1,27.4c-9.6,8.3-21.9,13.1-34.3,15.3c-14.6,2.6-29.7,1.8-44.1-1.4c-13.1-2.9-25.7-7.8-37.5-14.3  c-10.4-5.7-20.1-12.7-28.7-21c-7.9-7.8-15-16.7-19.6-26.8c-2.7-6-4.6-12.5-4.3-19.1c0-2.4,0.5-4.7,1.2-6.9  c14.1-0.8,28.1-3.6,41.3-8.7c10.8-4.2,21.2-9.7,29.7-17.6C489.3,616.8,494.9,609.3,498.9,601.1z M674.3,416.2  c-8.2,35.9-34.3,67.2-68.2,81.6c-15.8,6.7-33.2,9.5-50.2,7.9c-16.2-1.4-31.8-6.5-47-12c-18.7-6.8-37.2-14.3-56.3-20.1  c-25.1-7.8-51-13-77.2-15.5c-16.2-1.6-32.5-2.2-48.8-2.1c-15.4-0.1-30.8,0.4-46.2-0.8c-14.1-1.1-28.1-3.6-41.7-7.6  c-12.3-3.4-24.1-8.7-34.7-15.7c-10-6.6-19-14.7-26.3-24.3c-7.1-9.4-12.5-20.1-15.6-31.5c-1.8-6.8-2.9-13.8-3.2-20.9  c-0.8-15.3,0.6-30.8,5.2-45.5c3.8-12,9.8-23.2,17.5-33.2c6.8-8.9,14.9-16.7,23.5-23.8c9.2-7.6,19-14.4,28.6-21.4  c4.3-3.2,8.6-6.4,12.6-9.8c4.7-3.9,8.9-8.4,12.6-13.2c8.4-10.8,15.8-22.4,23.4-33.8c7.5-11.3,15-22.6,23.1-33.5  c14.2-19.1,30.5-37.1,50.1-50.9c7.5,9.2,13.3,19.6,18.6,30.1c5.3,10.7,10.1,21.6,14.8,32.5c-6.7-1.7-13.8-2-20.6-0.7  c-10.9,1.9-20.9,7.4-29,14.8c-9.2,8.3-16.3,18.6-21.9,29.6c-6.1,12.1-10.3,25.1-12.5,38.4c-2.1,13.6-2.2,27.8,1.7,41.1  c1.8,5.9,4.4,11.6,8,16.6c3.2,4.5,7.3,8.4,12,11.4c5.5,3.4,11.6,5.8,17.9,7.3c7.4,1.7,15.2,1.7,22.6-0.2  c10.2-2.6,19.2-8.6,26.3-16.2c8.1-8.6,13.9-19,18.3-29.9c6.9-17.6,9.8-36.6,10.3-55.4c0.8,0.5,1.8,0.8,2.3,1.7  c3.7,5.2,9.4,9,15.7,10c4.6,0.8,9.4,0,13.5-2.1c-5.2,12.9-8.2,26.6-9.2,40.5c-1,13.9,0,28.1,4.6,41.3c3.9,11.5,12.1,21.3,22.3,27.7  c10.6,6.7,23.6,9.7,36,7.7c11.6-1.9,22.4-7.8,30.9-15.9c8.3-8,14.5-18,18.6-28.7c5-13.1,7.2-27.1,7.1-41.1  c-0.2-13.9-2.6-27.9-8-40.7c-4.3-10.1-10.4-19.6-19.2-26.3c-6.6-5.1-14.5-8.8-22.9-9.4c8.1-8.3,16.3-16.6,24.9-24.3  c8.6-7.6,17.6-14.9,28-19.8c6.3,10.7,11.7,21.9,16.5,33.3c10,23.5,17.8,47.9,25.7,72.2c2.2,6.7,4.4,13.3,6.8,19.9  c2,5.5,4.2,11,7.1,16.2c4.5,8.1,10,15.7,15.2,23.4c5.5,7.6,10.8,15.5,15.5,23.7c8.2,14,14.9,28.9,19.6,44.5  C678,380.4,678.4,398.9,674.3,416.2z"></path></svg>
