<svg xmlns="http://www.w3.org/2000/svg" xmlns:xlink="http://www.w3.org/1999/xlink" id="Warstwa_1" x="0px" y="0px" viewBox="0 0 792 792" xml:space="preserve"><style type="text/css">
	.ko0{fill:#F7E6A0;}
	.ko1{fill:#FFFFFF;}
	.ko2{fill:#EA773D;}
</style><path class="ko0" d="M681.2,413c3.4,11.2,6.4,22.7,7.7,34.3c1.6,16.3,0.8,32.9-3.1,48.9c-4.3,16.8-12.6,32.4-23.5,45.8  c-7.2,8.6-15.7,16.3-25.4,22.1c-28.7,17.6-66.9,17.7-96,0.9c-11.8-6.6-22-15.5-31.9-24.6c4,13,13,23.8,23.6,32.1  c13.5,10.8,29.5,18.4,46.5,21.5c4.1,0.9,8.4,1.1,12.6,1.7c-1.8,2.8-4.8,4.6-7.2,7c-4.7,3.9-9,8.4-14.7,10.9  c-7,2.3-14.4,1.7-21.7,1.5c-18.3-0.6-36.3-5.1-53.4-11.7c-13.4-5.2-26.3-12-38-20.3c-11.5-8.2-21.8-17.8-31.1-28.4  c6.2-4.8,9.6-12.3,11.6-19.7c3.3-13.1,3-27.2-0.9-40.2c31.9-17.6,64.2-34.4,95.8-52.5c3.7,15.1,10.5,29.7,20.9,41.5  c9.2,10.7,21.9,18.6,35.8,21.3c14.1,2.9,29.8,1.3,41.7-7.3c10.1-7.1,16.2-19,17.6-31.1c-4.3,3.7-7.5,8.8-12.8,11.2  c5.1-16.3,7.3-33.8,3.9-50.6c-0.6-3.6-3.6-7.7-0.8-11.1c5.1-6.4,12.2-11.2,19.6-14.6c5-2.1,11.2-3.8,16.3-0.9  C678.2,403.6,679.6,408.6,681.2,413 M542.8,622.6c-20.1-0.1-40.3-3.8-59-11.3c-26.7-10.6-49.5-29-69.5-49.3c-13.1,5.4-28.5,4.6-41-2  c-12.7-6.7-23-18.2-27.7-31.8c-16.8,4.5-33.7,8.5-50.6,12.6c12.5,29.1,31,56,55.3,76.5c24.6,21.1,54.9,35.2,86.8,40.7  c14.5,2.3,29.8,2.9,43.9-1.8c24-7.4,47.4-17.1,69-30c2-1.5,4.8-1.8,6.3-3.8C551.7,622.4,547.3,622.7,542.8,622.6 M334.4,618.4  c-22.1-21-37.8-47.7-50.2-75.3c-14.9,3.5-30.1,5.4-45,8.8c0.9,6.9,0.3,14.1-2.4,20.5c-2.4,5.7-6.4,10.5-11,14.6  c17.4,29.9,44.3,53.7,74.8,69.8c6.4,3.3,13.4,5.1,20.5,6.3c17.8,2.8,35.6,5.5,53.6,6.1c21.7,0.9,43.7-0.1,65-4.5  c-8.8-0.9-17.6-2.3-26.3-4.3C384,653.8,356.1,639.5,334.4,618.4 M212.5,589.6c-9.6-1.1-18.8-5.9-24.9-13.5  c-4.5-5.3-7.6-11.6-10.5-17.8c-5.5-0.2-11.1,0.7-16.6,0.4c25,38.1,61.9,68,104.1,85.2C244,629.3,226,610.9,212.5,589.6"></path><path class="ko1" d="M703.5,299.1c11.5,6.8,20.6,17.6,25.2,30.1c5.9,16,6.8,33.9,2.1,50.3c-5.1,18.4-16.3,34.6-30,47.8  c-4.5-14.2-5.8-29.7-13.6-42.7c-4.4-7.4-12.3-11.8-20.5-13.7c-17-3.8-34.5,0.7-50.4,6.7c-42.4,17.1-79.8,43.8-119.7,65.5  c-57.4,30.7-117.4,57.1-180.4,74c-51.9,13.7-105.5,21.8-159.2,21.8c-20.3-0.1-41.2-0.4-60.4-8c-12.4-4.8-24-12.8-30.7-24.5  c-5.9-10-7.6-22.1-6.1-33.5c1.5-11.7,6.3-22.9,13.8-32c5.9-7.5,14.3-12.4,22.9-16.2c0.9,6.7,4.9,12.7,10.4,16.6  c8.4,6.1,18.7,8.5,28.8,10.4c17.1,2.8,34.4,3.3,51.7,2.8c39.9-1,79.2-9.7,116.9-22.5c60.2-19.9,116.1-50.1,172.2-79.1  c26.3-13.4,52-27.9,78.9-40.3c15.7-7,31.4-13.9,47.7-19.2c18.2-5.9,37.5-8.9,56.6-7.2C674.7,287.6,690.2,291.1,703.5,299.1"></path><path class="ko2" d="M208.4,250.7c-10.2-6-18.3-15.5-22.2-26.7c9.1-15.4,23.2-26.7,36.8-37.9c33.3-27.1,73-46.4,115-55.2  c37.9-8.1,77.2-7.1,115.2-0.4c-25.2,14-47.5,33.1-65.3,55.8c-24.8-0.3-49.7,2.2-73.6,8.7c-15.8,4.1-31.1,10.1-45.7,17.3  C247.3,222.9,227.4,236.3,208.4,250.7 M400.4,197.3c15.3,30.7,31.1,61.5,41,94.4c17.5,0.5,34.3,6.4,49.7,14.3c6,2.6,11.1,6.8,17,9.6  c2.1,1.2,4.3,0,6.2-0.9c26.1-13.9,52.1-28.5,80.2-38.2c15.1-5.3,30.8-9,46.7-11c-31.4-51.7-79.7-92.3-134.5-117.3  c-7.6-3.4-15.1-7.1-23.1-9.6c-2.3-0.6-5-2-7,0C448.1,153.4,421.6,172.9,400.4,197.3 M237.8,433.1c7.5-0.6,14.5-3.8,21.8-5.5  c47.7-12,93.5-30.6,136.9-53.5c4.1-11.6,7.8-23.4,12.7-34.8c6-14.9,13.4-29.2,21.9-42.7c-14.7-27-28.5-54.6-40.8-82.8  c-1.8-4-2.8-8.3-5-12c-0.8-1.6-2.8-1.8-4.3-1.4c-3.7,0.8-7.6,1-11.4,1.6c-21.6,2.8-42.6,8.9-63.1,16.4  c-33.5,12.4-66.9,26.7-95.5,48.4c-10.4,38.2-20.2,76.7-27.2,115.7c15.8,14.6,32.2,28.9,45.8,45.7  C231.9,430.4,234.3,433.5,237.8,433.1 M128.7,431.8c7.1-15.5,17.8-29.3,30.2-40.8c3.8-3.6,8.8-5.8,11.8-10.1  c1.6-3.5,1.2-7.6,1.4-11.3c-0.1-4.7,1-9.3,1.6-13.9c5.3-32.4,14.2-64,24-95.2c-9.3-4.8-17.2-11.9-23.5-20.3  c-17.9,29-30.6,60.9-39.7,93.7c-6.6,23.3-11.4,47.2-11.4,71.5c0,6.4-1.1,13,0.5,19.3C124.4,427.6,126.2,430.1,128.7,431.8   M440,301.8c-7.1,20-14.5,39.8-20.2,60.3c24-11.6,47.7-23.9,71.3-36.3C475,315.9,458.3,306.7,440,301.8 M146.2,436.8  c22.4,3.6,45.3,3.1,67.7,0c-12.8-15.3-25.5-30.6-38.7-45.6C163.8,405.2,152.9,419.9,146.2,436.8"></path><path d="M752.5,330.6c-5.1-18.9-15.8-36.6-32.3-48c-14.5-10.5-32.3-15.7-50-17.6c-12.1-20.1-25.8-39.2-41.6-56.5  c-19.1-21.3-41.1-39.9-65.3-55.2c-29.9-19.3-62.5-34.9-97.2-43.6c-23.1-5.7-46.9-9.2-70.7-8.7c-5.5,0.1-10.9-0.2-16.4,0.3  c-23.6,1.6-47.1,5.5-69.9,12.1c-45,12.7-87.1,36.6-119.7,70.3c-27.9,28.7-49.3,63.5-64.1,100.7c-15.5,38.8-23.8,80.3-27,121.9  c-11.5,3-22.7,7.8-32.2,15c-13.8,10.2-23,25.7-27.1,42.2c-2.8,9.7-3.5,20.1-1,29.9c2.4,10.7,7,21.1,13.9,29.7  c7.5,9.5,17.7,16.8,28.7,21.8c16.7,7.7,35,11,53.1,12.9c9.8,15.9,20.8,31,33.4,44.7c20.1,22.2,44.3,40.8,70.9,54.5  c29.6,15.4,62.1,24.9,95.1,29.9c18.1,2.6,36.3,4.6,54.5,4.1c11.5,0.4,22.9-0.9,34.3-2.4c40.2-5.2,80-15.8,116.3-34  c27.6-13.7,53-31.8,74.7-53.5c3.1-3.1,5.6-6.8,9.1-9.5c3.8-2.6,8.5-3.3,12.6-5.3c19.5-9.5,35.7-24.7,47.9-42.4  c8-11.2,13.6-24,17.2-37.3c5.4-20,6.5-40.9,4.2-61.4c10-8.3,20-16.6,28.5-26.5c10.1-11.6,17.7-25.3,21.4-40.2  c1.7-6.8,3-13.6,2.7-20.6C756.9,348.6,754.8,339.5,752.5,330.6z M477.2,138.6c2-2,4.7-0.6,7,0c8,2.5,15.5,6.2,23.1,9.6  c54.8,25,103.1,65.6,134.5,117.3c-15.9,2-31.6,5.7-46.7,11c-28.1,9.7-54.1,24.3-80.2,38.2c-1.9,0.9-4.1,2.1-6.2,0.9  c-5.9-2.8-11-7-17-9.6c-15.4-7.9-32.2-13.8-49.7-14.3c-9.9-32.9-25.7-63.7-41-94.4C422.2,172.9,448.7,153.4,477.2,138.6z   M184.4,382.5c7-39,16.8-77.5,27.2-115.7c28.6-21.7,62-36,95.5-48.4c20.5-7.5,41.5-13.6,63.1-16.4c3.8-0.6,7.7-0.8,11.4-1.6  c1.5-0.4,3.5-0.2,4.3,1.4c2.2,3.7,3.2,8,5,12c12.3,28.2,26.1,55.8,40.8,82.8c-8.5,13.5-15.9,27.8-21.9,42.7  c-4.9,11.4-8.6,23.2-12.7,34.8c-43.4,22.9-89.2,41.5-136.9,53.5c-7.3,1.7-14.3,4.9-21.8,5.5c-3.5,0.4-5.9-2.7-8.2-4.9  C216.6,411.4,200.2,397.1,184.4,382.5z M214.5,436.8c-22.4,3.1-45.3,3.6-67.7,0c6.7-16.9,17.6-31.6,29-45.6  C189,406.2,201.7,421.5,214.5,436.8z M440.6,301.8c18.3,4.9,35,14.1,51.1,24c-23.6,12.4-47.3,24.7-71.3,36.3  C426.1,341.6,433.5,321.8,440.6,301.8z M223.6,186.1c33.3-27.1,73-46.4,115-55.2c37.9-8.1,77.2-7.1,115.2-0.4  c-25.2,14-47.5,33.1-65.3,55.8c-24.8-0.3-49.7,2.2-73.6,8.7c-15.8,4.1-31.1,10.1-45.7,17.3c-21.3,10.6-41.2,24-60.2,38.4  c-10.2-6-18.3-15.5-22.2-26.7C195.9,208.6,210,197.3,223.6,186.1z M123.7,405.4c0-24.3,4.8-48.2,11.4-71.5  c9.1-32.8,21.8-64.7,39.7-93.7c6.3,8.4,14.2,15.5,23.5,20.3c-9.8,31.2-18.7,62.8-24,95.2c-0.6,4.6-1.7,9.2-1.6,13.9  c-0.2,3.7,0.2,7.8-1.4,11.3c-3,4.3-8,6.5-11.8,10.1c-12.4,11.5-23.1,25.3-30.2,40.8c-2.5-1.7-4.3-4.2-5.1-7.1  C122.6,418.4,123.7,411.8,123.7,405.4z M161.1,558.7c5.5,0.3,11.1-0.6,16.6-0.4c2.9,6.2,6,12.5,10.5,17.8  c6.1,7.6,15.3,12.4,24.9,13.5c13.5,21.3,31.5,39.7,52.1,54.3C223,626.7,186.1,596.8,161.1,558.7z M375.3,669.2  c-18-0.6-35.8-3.3-53.6-6.1c-7.1-1.2-14.1-3-20.5-6.3c-30.5-16.1-57.4-39.9-74.8-69.8c4.6-4.1,8.6-8.9,11-14.6  c2.7-6.4,3.3-13.6,2.4-20.5c14.9-3.4,30.1-5.3,45-8.8c12.4,27.6,28.1,54.3,50.2,75.3c21.7,21.1,49.6,35.4,79,42  c8.7,2,17.5,3.4,26.3,4.3C419,669.1,397,670.1,375.3,669.2z M550.6,626.2c-21.6,12.9-45,22.6-69,30c-14.1,4.7-29.4,4.1-43.9,1.8  c-31.9-5.5-62.2-19.6-86.8-40.7c-24.3-20.5-42.8-47.4-55.3-76.5c16.9-4.1,33.8-8.1,50.6-12.6c4.7,13.6,15,25.1,27.7,31.8  c12.5,6.6,27.9,7.4,41,2c20,20.3,42.8,38.7,69.5,49.3c18.7,7.5,38.9,11.2,59,11.3c4.5,0.1,8.9-0.2,13.5-0.2  C555.4,624.4,552.6,624.7,550.6,626.2z M686.4,496.2c-4.3,16.8-12.6,32.4-23.5,45.8c-7.2,8.6-15.7,16.3-25.4,22.1  c-28.7,17.6-66.9,17.7-96,0.9c-11.8-6.6-22-15.5-31.9-24.6c4,13,13,23.8,23.6,32.1c13.5,10.8,29.5,18.4,46.5,21.5  c4.1,0.9,8.4,1.1,12.6,1.7c-1.8,2.8-4.8,4.6-7.2,7c-4.7,3.9-9,8.4-14.7,10.9c-7,2.3-14.4,1.7-21.7,1.5c-18.3-0.6-36.3-5.1-53.4-11.7  c-13.4-5.2-26.3-12-38-20.3c-11.5-8.2-21.8-17.8-31.1-28.4c6.2-4.8,9.6-12.3,11.6-19.7c3.3-13.1,3-27.2-0.9-40.2  c31.9-17.6,64.2-34.4,95.8-52.5c3.7,15.1,10.5,29.7,20.9,41.5c9.2,10.7,21.9,18.6,35.8,21.3c14.1,2.9,29.8,1.3,41.7-7.3  c10.1-7.1,16.2-19,17.6-31.1c-4.3,3.7-7.5,8.8-12.8,11.2c5.1-16.3,7.3-33.8,3.9-50.6c-0.6-3.6-3.6-7.7-0.8-11.1  c5.1-6.4,12.2-11.2,19.6-14.6c5-2.1,11.2-3.8,16.3-0.9c3.9,2.9,5.3,7.9,6.9,12.3c3.4,11.2,6.4,22.7,7.7,34.3  C691.1,463.6,690.3,480.2,686.4,496.2z M731.4,379.5c-5.1,18.4-16.3,34.6-30,47.8c-4.5-14.2-5.8-29.7-13.6-42.7  c-4.4-7.4-12.3-11.8-20.5-13.7c-17-3.8-34.5,0.7-50.4,6.7c-42.4,17.1-79.8,43.8-119.7,65.5c-57.4,30.7-117.4,57.1-180.4,74  c-51.9,13.7-105.5,21.8-159.2,21.8c-20.3-0.1-41.2-0.4-60.4-8c-12.4-4.8-24-12.8-30.7-24.5c-5.9-10-7.6-22.1-6.1-33.5  c1.5-11.7,6.3-22.9,13.8-32c5.9-7.5,14.3-12.4,22.9-16.2c0.9,6.7,4.9,12.7,10.4,16.6c8.4,6.1,18.7,8.5,28.8,10.4  c17.1,2.8,34.4,3.3,51.7,2.8c39.9-1,79.2-9.7,116.9-22.5c60.2-19.9,116.1-50.1,172.2-79.1c26.3-13.4,52-27.9,78.9-40.3  c15.7-7,31.4-13.9,47.7-19.2c18.2-5.9,37.5-8.9,56.6-7.2c15,1.4,30.5,4.9,43.8,12.9c11.5,6.8,20.6,17.6,25.2,30.1  C735.2,345.2,736.1,363.1,731.4,379.5z"></path></svg>
