<svg xmlns="http://www.w3.org/2000/svg" xmlns:xlink="http://www.w3.org/1999/xlink" id="Warstwa_1" x="0px" y="0px" viewBox="0 0 792 792" xml:space="preserve"><style type="text/css">
	.mr0{fill:#E00B00;}
	.mr1{fill:#80402F;}
	.mr2{fill:#E57C7C;}
	.mr3{fill:#40D4FF;}
	.mr4{fill:#FFD7B0;}
	.mr5{fill:#A50400;}
	.mr6{fill:#FFFFFF;}
</style><path class="mr0" d="M681.2,408.3c5.4,9.8,8.4,20.8,9.5,31.9c1.4,13-0.2,26.3-5.1,38.4c-5.9,14.5-16.3,26.7-28.3,36.5  c-8.1-20.2-24.2-37.4-44.6-45.4c-14.5-5.9-31.2-6.6-45.9-0.8c-7.1-20.7-16.3-40.8-27-59.9c-11.7-21-25.2-40.9-40.4-59.6  c-13.5-16.6-28.3-32.2-43.8-47c-16.6-15.7-34.2-30.4-52.7-44c7.2-7.6,12.5-16.9,15.8-26.8c4-12.2,5-25.2,3.6-37.9  c-2.5-23.8-12.9-47.1-30.3-63.8c-14.1-13.7-32.7-22.2-52-25.5c-12.9-2.2-26.2-2.6-39,0c-18.3,3.7-35,13.8-47.2,27.8  c-10.9,12.6-18.8,27.8-22.7,44.1c-6.3-1.5-12.6-3-19-4.2c6.5-19.7,15.4-38.6,27.7-55.4C252.6,99,269.4,84.1,289,74.3  c17.3-8.7,36.6-13.3,55.9-14.1c29.4-1.1,59,5.7,85.1,19c19.7,9.9,37.7,23.3,53.7,38.5c16.2,15.3,30.6,32.4,43.7,50.3  c12.5,17.3,23.9,35.4,34.4,54c10.8,19.5,20,39.9,28.1,60.6c15.2,39.1,26.9,79.6,35.8,120.6c0.1,0.9,0.6,1.7,1.3,2.3  c2.1-0.9,2.6-3.3,3.3-5.3c2.2-9.3,1.4-18.8,1-28.2c11.2,2.5,21.9,7.3,31,14.3C670.1,392.2,676.5,399.7,681.2,408.3"></path><path class="mr1" d="M465.4,524.2c1.2-1.8,2.9-3.1,4.3-4.6c2.2-2.5,4.5-5.1,6.8-7.6c-4.6-2.8-10.2-4.4-13.7-8.7  c-3.7-4.1-6.2-10-4.4-15.5c1.4-4,3.3-7.8,6.1-11c2.9-3.5,7.1-5.6,11.5-6.7c6.4-1.6,13-2,19.5-2.3c5-0.3,9.9-1.6,14.2-4  c11.6-6.3,18.8-18.2,23.1-30.3c7.1,14.2,13.3,28.8,18.2,43.9c-13.7,9.8-24.2,23.5-32.5,38c-4.7,8.7-9.6,17.2-15.6,25.1  c-5.8,7.4-12.1,14.9-20.5,19.4c-7,4-16.4,1-20.9-5.4c-2.2-3.1-3.4-7-3.1-10.9C459.1,536.7,461.4,529.8,465.4,524.2"></path><path class="mr2" d="M281.3,674c0.8-4.2,2.5-8.1,4.7-11.7c12-1.1,23.6-4.6,34.8-8.8c10.3-3.9,20.3-8.6,30-13.9  c-1.3,12.4-3.8,25-10.2,35.8c-4.3,7.3-11.2,13.4-19.5,15.5c-6.3,1.6-13.2,1.8-19.3-0.5C293.3,687.4,286.6,681,281.3,674"></path><path class="st3" d="M373.8,379.8c7-1.2,15,0.4,19.8,5.8c3,8.3,3.5,17.3,2.9,26.1c-2-4.2-5.1-8.2-9.6-9.9c-4.8-1.9-10.2-0.7-14.4,2  c-7.3,4.8-11.8,12.8-14.8,20.8c-3.8,10.7-6.4,22.2-5.6,33.7c0.5,5.9,2.3,12,6.4,16.5c2.8,3,6.5,5.6,10.8,5.2  c-5.4,4.5-12.4,7.5-19.5,7.4c-7-3.7-11.3-11.1-13.5-18.6c-3.6-12.4-2.5-25.5,0.2-37.9c2.8-12.6,7.1-25.1,14.7-35.5  C356.6,387.8,364.4,381.4,373.8,379.8 M251.4,385.8c0.1-4.1,0.2-8.3-0.4-12.4c-2.2-4.3-6.3-8.2-11.3-8.7c-4.2-0.4-8.1,1.7-11,4.5  c-4.5,4.3-7.4,9.9-9.6,15.7c-3,7.7-4.7,15.9-6,24.1c2.5,1,5,2.2,7.5,3.3c1.6-8.9,3.8-18,9-25.5c2.8-4,7.2-7.8,12.4-7.6  C246.2,379.3,249.3,382.5,251.4,385.8"></path><path class="mr4" d="M627.1,504.4c-6.6-8.5-15.8-15.2-26.3-17.9c-12.9-3.4-26.8-0.6-38.3,5.9c-15.7,8.7-27.8,22.8-36.4,38.4  c-6.4,11.9-13.3,23.8-22.3,33.9c-6.4,7.2-14.5,13.5-24,15.7c-9.6,2.4-20.2-0.1-27.9-6.4c-7.4-5.5-11.7-14.4-12.7-23.4  c-1.3-12.5,2.5-25.3,9.5-35.7c-5-5.3-8.7-12-9.3-19.3c-0.7-7.3,1.8-14.6,5.4-20.9c3.9-7.1,10-13.1,17.5-16.2  c11.3-4.8,23.8-5.3,35.9-6c5.4-0.4,9.8-4.2,12.9-8.3c6.2-8.5,9.6-18.7,12.1-28.8c-4.1-7.1-8.3-14.2-12.9-21.1  c-4.6,2.4-9.6,3.8-14.8,4.2c-12.1,0.8-24-3.3-34.5-8.9c-5-2.5-9.4-6.1-13.7-9.7c-7.3-6.4-14.3-13.2-21.5-19.8  c-1.2,2.8-2.7,5.6-4.6,8.1c-3.8-12.9-11.6-25.3-23.6-32c-6.2-3.5-13.3-5-20.3-5.4c-11.1-0.7-22.3,2-32.4,6.5  c-9.5,4.4-18.4,10.2-26,17.4c0.4-3.6,1.6-7,2.7-10.4c3.5-9.7,8.1-19.1,13.7-27.8c-25.4-5.7-51.5-9.2-77.6-8  c2.3,11.8,4.1,23.9,2.3,35.8c-2.6-6.3-5.8-12.4-9.9-17.9c-4.7-6.2-10.5-11.8-17.6-15.1c-6.9-3.4-14.9-4.3-22.5-3.4  c-6,12.7-10.9,25.8-15.1,39.2c-5.4,17.5-9.3,35.5-11.2,53.8c1.6,0.3,3.2,0.6,4.8,0.9c1.4-13.1,3.6-26.4,8.6-38.6  c3.1-7.5,7.5-14.7,14-19.7c5.4-4.3,12.5-6.5,19.4-6.1c8.4,0.3,16.9,3.7,22.5,10c5.3,5.8,8.1,13.4,9.3,21.1  c1.6,9.7,1.1,19.6-0.3,29.2c-2,12.3-5.3,24.5-9.8,36.1c3.7,3.4,7.1,7.2,10.3,11c-4.7,3.8-9.7,7.3-14.5,10.9c-2.2-2.5-4.6-4.8-7.2-7  c-17.8-15.4-40-25.5-63.3-28.9c-11.3-1.8-23.1-1.8-34.2,1.4c-11.8,3.3-22.3,10.5-29.5,20.4c-9.6,13.1-13.5,29.6-13.8,45.7  c-0.1,12.6,1.4,25.4,6.2,37.2c3.8,9.3,10,17.7,18,23.9c9.8,7.6,21.7,12,33.8,14.6c12.3,2.6,25,4,37.5,3.1  c22.5-1.5,44.5-10.3,61.9-24.7c7.5-6.2,14.3-13.5,19.1-22c5.3,2.2,10.7,4.3,16,6.5c-1.8,3.2-3.8,6.3-6,9.3c19.7-1.2,39.4-5,58-11.8  c21.4-7.8,41.4-20.2,56.5-37.4c7.2,10.2,12.7,21.8,14.2,34.3c1.5,12.4-3.5,25.6-13.4,33.4c-7.8,6.2-17.6,9-27.1,11.1  c-0.2,11.8-5.6,23.2-14.3,31c1.1,11.8,1.4,23.8,0.7,35.6c-0.9,13.3-2.9,26.7-7.7,39.2c-3.9,9.9-9.7,19.3-18.3,25.6  c-7.6,5.6-17,8.2-26.2,8.6c-9.6,0.4-18.6-4.2-26-10c-8.7-6.9-15.2-16.1-20.5-25.8c-5.2-9.7-9.1-20-11.9-30.5  c-6.7-0.4-13.5-1.5-19.4-5c-2.3-1.6-5-4.1-4.1-7.2c2.1,0.2,4,1.2,6,1.6c8.4,2.1,17.3,1.8,25.8,0.5c0.3-0.1,0.7-0.1,1.1-0.2  c21.5-3.6,41.9-12.2,61.4-21.8c-9-1.8-17.6-5.5-25.3-10.6c-4.1,11.4-12.8,21.2-23.8,26.2c-4,1.8-8.3,3.1-12.7,3.8  c-6.1,1-12.4,1-18.6-0.1c-9.9-1.8-19.2-8.2-23.1-17.7c-4,5.9-9,11.2-14.9,15.1c-7.7,5.3-17.7,7.5-26.9,5.3c-10-2-18.4-10-21.2-19.7  c-2.4,1.7-5.1,3.1-7.8,4.3c5.5,13.9,15.5,25.6,27,35c17.1,14,37.5,23.5,58.2,30.7c0.9,2.4,1.8,4.9,3.1,7.1  c10.6,18.4,26.7,33.9,46.3,42.4c9.4,4.1,19.6,6.3,29.8,7c14.7,1.1,29.6-0.2,43.7-4.8c9.7-3.1,18.8-7.8,27.3-13.4  c8.1-5.3,15.6-11.5,23.1-17.5c15.8-3.1,30.7-9.5,44.7-17.2c20-11.1,37.8-26.3,51-45.1c15,5.7,31.3,8,47.3,7  c19.4-1.1,38.5-7.9,53.7-20.1c18.7-15,31.7-36.7,36.5-60.1c2.3-11.1,3.2-22.7,0.6-33.8C637.2,520.9,633,512,627.1,504.4   M406.3,428.3c-2.3,11.4-5.4,22.7-10.1,33.4c-4.8,10.9-11.4,21.4-21,28.7c-8.4,6.5-19.2,9.8-29.7,8.7c-11.4-1.1-22.9-5.9-30.4-14.8  c-6-6.9-9.1-15.7-10.7-24.5c-2.1-12.7-1.1-25.6,0.8-38.2c2.3-14.2,6-28.3,12.6-41.2c4.8-9.1,11.2-17.6,19.9-23.5  c6.4-4.4,13.9-7,21.6-7.3c11.7-0.5,23.6,3.5,32.2,11.4c7.3,6.6,12.2,15.5,14.6,25C409.8,399.9,409,414.4,406.3,428.3 M613.8,536.2  c-1.7,0.2-3.3-0.6-5-0.7c-9.4-1-18.9,2.2-27,6.8c-6.4,3.7-12.3,8.5-17.6,13.7c10.3-0.3,20,4.9,27,12.2c0.1,0.3,0.5,1,0.6,1.3  c-1.7,0-3.2-0.5-4.7-1c-11-4-23.4-3.9-34.2,0.2c-6.7,8.2-12.9,16.9-17.8,26.2c-1.2,2.1-1.7,4.7-3.8,6c-0.4-2.8,0.3-5.5,0.8-8.2  c1.5-7,3-14.1,5.9-20.6c7.3-17.5,20.8-32.8,38.4-40.6c8-3.6,17.1-4.7,25.7-2.7c3.9,0.9,7.9,2.3,11.1,4.8  C613.7,534.3,614.9,535.3,613.8,536.2"></path><path class="mr5" d="M185.7,320.3c-2.7,7-5.1,14.1-7.4,21.3c-12.6-10.1-24.7-21-35.5-33c-12.4-13.7-23.3-28.8-30.8-45.7  c-5.4-12.4-9-26.1-7.5-39.8c0.7-6.6,3.2-13.1,7.8-18.1c7-7.6,16.7-12,26.6-14.7c13.6-3.6,27.8-4,41.8-3.3  c24.4,1.5,48.2,7.4,71.5,14.7c70.5,22,135.5,60.8,189.2,111.3c22,20.6,42.4,43.1,59.9,67.8c-10.3,2.7-20.9-0.8-30.2-5.3  c-9.6-4.5-17.6-11.6-25.5-18.5c-5-4.3-9.8-8.8-14.7-13.2c-0.4-0.4-1.1-0.9-0.9-1.6c0.9-11.6-1.3-23.8-7.8-33.6  c-4.6-7.2-11.2-12.8-18.7-16.8c-7-3.7-14.7-6.4-22.6-6.4c-6.6-0.1-13.1,1.7-19,4.8c-33.2-22-69-40.2-106.9-52.6  c-7.8-2.5-15.6-5-23.6-6.7c-3.2-0.6-6.8-1.2-9.8,0.5c0.8,1.5,2.5,1.7,3.9,2.2c44.3,15.9,86.7,37.4,125.2,64.5  c-1.8,1.5-3.4,3.2-5,4.9c-30.1-7.5-61.2-11.8-92.3-9.9c-3.3-8.4-7.8-16.6-15.1-22.2c-6-4.6-14-6.3-21.4-4.8  c-6.7,1.4-12.3,5.8-16.2,11.2c-6.9,9.9-10.1,21.8-12,33.5C188.5,314.3,186.7,317.2,185.7,320.3"></path><path class="mr6" d="M351,605.2c0.3,6.3,0.7,12.7,0.5,19c-11,6.4-22.4,12.2-34.3,16.7c-11,4.2-22.4,7.9-34.2,8.5  c-4.4,0.1-9.4,0-13.1-2.8c-2.3-2.4-3.7-5.6-5.1-8.6c22.1-2.8,43.1-11.1,63.1-20.5C335.8,613.6,343.5,609.5,351,605.2 M239.5,351.6  c-5.5-2.8-12.4-3.5-18-0.6c-5.8,3-9.5,8.8-12.2,14.5c-5.5,12.3-7.6,25.7-8.9,39c3.2,1,6.3,2,9.4,3.1c1.2-7.8,3-15.5,5.7-22.9  c2.6-6.8,5.9-13.5,11.3-18.4c3.9-3.6,9.5-6,14.9-4.8c3,0.6,5.7,2.2,8,4.2C248,360.1,244.9,354.4,239.5,351.6 M242.8,393.4  c-2.8,0.3-4.4,3-5.3,5.4c-1.3,4.2-1.4,9.3,1.3,13c1.1,1.6,3.2,2.4,4.9,1.5c1.9-1,3.1-3.1,3.9-5.1c1.2-3.7,1.3-7.9-0.4-11.5  C246.4,395,244.8,393.3,242.8,393.4 M382.2,416.3c-2.4,0.7-4.2,2.7-5.3,4.9c-2,3.9-2.2,8.8-0.1,12.7c1,2,3.1,3.6,5.4,3.5  c2.5-0.1,4.5-1.9,5.8-3.9c2.5-4,3-9.3,0.9-13.6C387.8,417.4,385,415.4,382.2,416.3 M331.6,434.4c2.2-11.7,5.7-23.3,11.4-33.8  c4.7-8.4,11.1-16.2,19.6-21c8.3-4.7,18.8-5.7,27.5-1.5c-1.6-2.3-3.2-4.6-5.2-6.6c-8.1-8.3-20.8-11.9-31.9-8.7  c-8.8,2.6-15.8,9.2-20.8,16.7c-7.2,10.8-11.1,23.5-13.8,36.2c-2.6,13.3-4.4,27-2.6,40.5c1.1,7.9,3.8,16,9.6,21.8  c4.4,4.5,10.4,7.1,16.5,8.5c-4.2-4.1-7.1-9.4-9-15C329.1,459.5,329.5,446.7,331.6,434.4 M304.9,199.1c-4.6-9.8-8.5-20-12.6-30  c-5,7.1-9.4,14.6-13.4,22.3c8.4,3.1,16.7,6.5,24.9,10.1c16,7,31.6,14.8,46.8,23.3c-5.8-17.9-11.3-35.9-16.6-54  C324.4,180.2,314.7,189.6,304.9,199.1 M394,252.1c5.6-5.6,9.9-12.3,12.8-19.7c4.6-11.4,6-24,4.7-36.3c-2.2-22.8-12.2-45.3-29.6-60.6  c-12.8-11.5-29.3-18.3-46.2-20.8c-11.2-1.7-22.7-1.9-33.9,0.6c-10.9,2.3-21.3,7.4-29.9,14.4c-15.3,12.5-25.6,30.3-30.3,49.4  c4.6,1.3,9.1,2.7,13.7,4.1c12.7-19.9,26.5-39,41.6-57.1c4.8,11.9,9.3,24,13.7,36.1c11.5-11.6,22.9-23.4,34.4-35.1  c14.2,33.5,29.2,66.7,45,99.5c-5.5,3.9-11,7.8-16.5,11.7C380.4,242.9,387.2,247.4,394,252.1"></path><path d="M613.7,533.7c-3.2-2.6-7.1-3.9-11.1-4.8c-8.6-2-17.7-0.9-25.7,2.7c-17.5,7.7-31,23.1-38.4,40.6c-2.9,6.6-4.4,13.6-5.9,20.6  c-0.5,2.7-1.2,5.4-0.8,8.2c2.1-1.4,2.7-3.9,3.8-6c4.9-9.4,11.1-18.1,17.8-26.2c10.9-4.1,23.3-4.2,34.2-0.2c1.5,0.6,3.1,1,4.7,1  c-0.2-0.3-0.5-1-0.6-1.3c-7-7.3-16.7-12.5-27-12.2c5.3-5.2,11.1-9.9,17.6-13.7c8.1-4.6,17.5-7.8,27-6.8c1.7,0.1,3.3,0.9,5,0.7  C615.6,535.3,614.4,534.3,613.7,533.7 M392.3,361.1c-8.7-7.9-20.6-11.9-32.2-11.4c-7.7,0.4-15.3,3-21.6,7.3  c-8.6,5.8-15.1,14.3-19.9,23.5c-6.6,12.8-10.3,26.9-12.6,41.2c-2,12.6-2.9,25.5-0.8,38.2c1.5,8.8,4.7,17.7,10.7,24.5  c7.5,8.9,19,13.6,30.4,14.8c10.6,1,21.4-2.2,29.7-8.7c9.6-7.3,16.1-17.8,21-28.7c4.7-10.7,7.8-22,10.1-33.4  c2.6-13.9,3.5-28.4-0.1-42.2C404.4,376.6,399.6,367.7,392.3,361.1 M326.1,478c-5.8-5.8-8.5-13.9-9.6-21.8c-1.8-13.5,0-27.2,2.6-40.5  c2.7-12.7,6.6-25.3,13.8-36.2c5-7.5,12-14.1,20.8-16.7c11.1-3.3,23.8,0.4,31.9,8.7c2,2,3.7,4.3,5.2,6.6c-8.7-4.2-19.2-3.2-27.5,1.5  c-8.5,4.8-14.9,12.6-19.6,21c-5.8,10.5-9.2,22.1-11.4,33.8c-2.2,12.2-2.6,25.1,1.3,37c1.9,5.5,4.8,10.8,9,15  C336.5,485.1,330.5,482.5,326.1,478 M388.7,433.5c-1.3,2-3.3,3.8-5.8,3.9c-2.3,0.1-4.4-1.5-5.4-3.5c-2.1-3.9-1.9-8.8,0.1-12.7  c1.1-2.2,2.9-4.2,5.3-4.9c2.8-0.9,5.7,1.1,6.8,3.6C391.8,424.1,391.3,429.5,388.7,433.5 M397.2,411.6c-2-4.2-5.1-8.2-9.6-9.9  c-4.8-1.9-10.2-0.7-14.4,2c-7.3,4.8-11.8,12.8-14.8,20.8c-3.8,10.7-6.4,22.2-5.6,33.7c0.5,5.9,2.3,12,6.4,16.5  c2.8,3,6.5,5.6,10.8,5.2c-5.4,4.5-12.4,7.5-19.5,7.4c-7-3.7-11.3-11.1-13.5-18.6c-3.6-12.4-2.5-25.5,0.2-37.9  c2.8-12.6,7.1-25.1,14.7-35.5c5.5-7.5,13.3-13.9,22.7-15.6c7-1.2,15,0.4,19.8,5.8C397.3,393.9,397.8,402.9,397.2,411.6 M714,444.1  c-0.7-12.3-3.4-24.6-8.4-35.9c-4.2-9.4-10-18-17.2-25.4c-15.6-15.9-36.5-26-58.3-30.1c-6.6-49.9-23-98.3-47.2-142.4  c-11.1-20-23.3-39.3-36.8-57.7c-24.7-33.5-54-64.3-89.8-86C433,52.4,407,42.5,380,38.4c-18.6-3-37.7-3.2-56.3-0.2  c-20.5,3.3-40.4,10.8-57.9,22.2c-17.7,11.4-32.2,27.2-43.6,44.8c-12.8,19.7-22.1,41.6-29,64c-19.5-2.1-39.5-2.2-58.5,2.8  c-9.9,2.7-19.5,6.7-27.6,13c-8.9,7-15.5,16.9-18.2,27.9c-2.5,10.3-2.2,21.2-0.2,31.5c2.5,13.2,7.6,25.8,14.1,37.6  c9.7,17.5,22.3,33.1,36.4,47.3c10.8,11,22.7,21.1,34.9,30.5c-3.1,12.9-5.5,25.9-6.8,39.1c-14.4-0.6-29.1,1-42.3,6.9  c-12.2,5.3-22.4,14.6-29.7,25.6c-9.9,14.8-14.8,32.5-15.8,50.2c-0.6,13.1,0.4,26.2,3.7,38.9c2.9,10.9,7.7,21.4,14.9,30.2  c-0.7,7-0.1,14.4,3.4,20.5c3.1,5.4,8.1,9.6,13.9,11.5c1.1,7.8,2.8,15.7,6.4,22.7c2,3.7,4.7,7.3,8.7,9c3.7,11.5,9.9,21.9,17.4,31.4  c36.1,45.4,74,47.9,74.6,48.8c30.1,51.8,64.5,58.8,76.7,60.1c83.2,9.2,112.4-36.6,115.3-38.5c19.4-1.9,78-28.7,95-56.4  c47.5,11.8,84.4-3.8,96.4-10.9c16.4-9.5,29.6-23.7,39.6-39.7c6.5-10.4,11.8-21.7,15-33.6c3.6-12.9,4.6-26.6,2.8-39.9  c3.3-2.5,6.7-4.9,9.8-7.5c15.2-12.2,28.3-27.7,35.2-46.1C712.9,470.1,714.8,457,714,444.1 M143.5,308.6  c-12.4-13.7-23.3-28.8-30.8-45.7c-5.4-12.4-9-26.1-7.5-39.8c0.7-6.6,3.2-13.1,7.8-18.1c7-7.6,16.7-12,26.6-14.7  c13.6-3.6,27.8-4,41.8-3.2c24.4,1.5,48.2,7.4,71.5,14.7c70.5,22,135.5,60.8,189.2,111.3c22,20.6,42.4,43.1,59.9,67.8  c-10.3,2.7-20.9-0.8-30.2-5.3c-9.6-4.5-17.6-11.6-25.5-18.5c-5-4.3-9.8-8.8-14.7-13.2c-0.4-0.4-1.1-0.9-0.9-1.6  c0.9-11.6-1.3-23.8-7.8-33.6c-4.6-7.2-11.2-12.8-18.7-16.8c-7-3.7-14.7-6.4-22.6-6.4c-6.6-0.1-13.1,1.7-19,4.8  c-33.2-22-69-40.2-106.9-52.6c-7.8-2.5-15.6-5-23.6-6.7c-3.2-0.6-6.8-1.2-9.8,0.5c0.8,1.5,2.5,1.7,3.9,2.2  c44.3,15.9,86.7,37.4,125.2,64.5c-1.8,1.5-3.4,3.2-5,4.9c-30.1-7.5-61.2-11.8-92.3-9.9c-3.3-8.4-7.8-16.6-15.1-22.2  c-6-4.6-14-6.3-21.4-4.8c-6.7,1.4-12.3,5.8-16.2,11.2c-6.9,9.9-10.1,21.8-12,33.5c-0.2,3.3-2,6.2-3,9.3c-2.7,7-5.1,14.1-7.4,21.3  C166.4,331.5,154.3,320.6,143.5,308.6 M345.7,127.2c-11.5,11.7-22.9,23.4-34.4,35.1c-4.4-12.1-8.9-24.1-13.7-36.1  c-15.1,18.1-28.9,37.3-41.6,57.1c-4.5-1.5-9.1-2.8-13.7-4.1c4.8-19,15.1-36.9,30.3-49.4c8.7-7.1,19-12.1,29.9-14.4  c11.1-2.5,22.7-2.3,33.9-0.6c16.9,2.5,33.4,9.3,46.2,20.8c17.3,15.3,27.3,37.8,29.6,60.6c1.2,12.2-0.1,24.8-4.7,36.3  c-2.9,7.3-7.3,14.1-12.8,19.7c-6.7-4.7-13.5-9.2-20.4-13.6c5.5-3.9,11-7.8,16.5-11.7C374.9,194,359.9,160.8,345.7,127.2   M351.4,224.8c-15.2-8.5-30.8-16.3-46.8-23.3c-8.2-3.6-16.5-7-24.9-10.1c4-7.7,8.4-15.2,13.4-22.3c4.1,10,8,20.2,12.6,30  c9.7-9.4,19.4-18.9,29.2-28.3C340.1,188.9,345.6,206.9,351.4,224.8 M639.7,564c-4.8,23.4-17.8,45.2-36.5,60.1  c-15.1,12.2-34.3,19-53.7,20.1c-16,1-32.3-1.4-47.3-7c-13.2,18.8-31,34-51,45.1c-14,7.7-29,14.2-44.7,17.2c-7.5,6-15,12.2-23.1,17.5  c-8.4,5.6-17.6,10.3-27.3,13.4c-14,4.6-29,5.9-43.7,4.8c-10.2-0.6-20.4-2.9-29.8-7c-19.6-8.5-35.7-24-46.3-42.4  c-1.3-2.3-2.2-4.7-3.1-7.1c-20.8-7.2-41.1-16.7-58.2-30.7c-11.4-9.4-21.4-21.1-27-35c2.7-1.2,5.4-2.6,7.8-4.3  c2.8,9.8,11.2,17.7,21.2,19.7c9.2,2.2,19.1,0,26.9-5.3c6-3.9,11-9.2,14.9-15.1c3.8,9.5,13.2,15.9,23.1,17.7  c6.1,1.1,12.4,1.1,18.6,0.1c4.4-0.7,8.6-2,12.7-3.8c11.1-5,19.7-14.8,23.8-26.2c7.7,5.1,16.3,8.8,25.3,10.6  c-19.5,9.6-39.8,18.2-61.4,21.8c-0.4,0.1-0.7,0.1-1.1,0.2c-8.5,1.2-17.4,1.6-25.8-0.5c-2-0.5-3.9-1.4-6-1.6  c-0.9,3.1,1.8,5.6,4.1,7.2c5.8,3.5,12.7,4.5,19.4,5c2.8,10.6,6.7,20.9,11.9,30.5c5.3,9.7,11.8,18.9,20.5,25.8  c7.3,5.8,16.4,10.3,26,10c9.3-0.4,18.7-3,26.2-8.6c8.7-6.3,14.5-15.7,18.3-25.6c4.8-12.5,6.8-25.9,7.7-39.2  c0.7-11.9,0.4-23.8-0.7-35.6c8.7-7.8,14.1-19.3,14.3-31c9.5-2.1,19.3-4.9,27.1-11.1c9.9-7.8,14.9-21,13.4-33.4  c-1.5-12.5-7-24.1-14.2-34.3c-15.1,17.2-35.1,29.6-56.5,37.4c-18.6,6.8-38.3,10.6-58,11.8c2.2-3,4.2-6.1,6-9.3  c-5.3-2.2-10.6-4.3-16-6.5c-4.9,8.5-11.7,15.7-19.1,22c-17.4,14.4-39.4,23.2-61.9,24.7c-12.6,0.9-25.2-0.5-37.5-3.1  c-12-2.6-24-7-33.8-14.6c-8-6.2-14.2-14.5-18-23.9c-4.8-11.7-6.3-24.6-6.2-37.2c0.2-16.1,4.1-32.6,13.8-45.7  c7.2-9.9,17.8-17.1,29.5-20.4c11.1-3.2,22.9-3.2,34.2-1.4c23.2,3.5,45.5,13.5,63.3,28.9c2.5,2.2,4.9,4.5,7.2,7  c4.8-3.6,9.8-7.1,14.5-10.9c-3.2-3.9-6.6-7.6-10.3-11c4.5-11.7,7.8-23.8,9.8-36.1c1.4-9.6,1.9-19.5,0.3-29.2  c-1.3-7.6-4.1-15.3-9.3-21.1c-5.6-6.3-14.1-9.7-22.5-10c-6.9-0.4-14,1.8-19.4,6.1c-6.5,5-10.9,12.2-14,19.7  c-5.1,12.3-7.3,25.5-8.6,38.6c-1.6-0.3-3.2-0.6-4.8-0.9c1.8-18.3,5.8-36.3,11.2-53.8c4.1-13.4,9.1-26.5,15.1-39.2  c7.6-1,15.6,0,22.5,3.4c7.1,3.4,12.9,8.9,17.6,15.1c4.1,5.4,7.4,11.5,9.9,17.9c1.8-11.9,0-24.1-2.3-35.8c26.1-1.2,52.2,2.4,77.6,8  c-5.7,8.7-10.2,18-13.7,27.8c-1.1,3.4-2.2,6.8-2.7,10.4c7.6-7.2,16.5-13,26-17.4c10.1-4.6,21.2-7.2,32.4-6.5c7,0.5,14.1,2,20.3,5.4  c12,6.7,19.8,19.1,23.6,32c1.9-2.5,3.3-5.3,4.6-8.1c7.1,6.6,14.2,13.4,21.5,19.8c4.3,3.6,8.6,7.2,13.7,9.7  c10.5,5.7,22.4,9.7,34.5,8.9c5.1-0.4,10.2-1.8,14.8-4.2c4.6,6.9,8.8,13.9,12.9,21.1c-2.5,10.2-5.9,20.3-12.1,28.8  c-3.1,4.2-7.5,7.9-12.9,8.3c-12.1,0.8-24.6,1.2-35.9,6c-7.5,3.1-13.6,9.1-17.5,16.2c-3.5,6.3-6,13.6-5.4,20.9s4.3,14,9.3,19.3  c-7,10.4-10.8,23.1-9.5,35.7c1,9.1,5.3,17.9,12.7,23.4c7.7,6.3,18.2,8.8,27.9,6.4c9.6-2.2,17.6-8.5,24-15.7  c9.1-10.1,15.9-22,22.3-33.9c8.6-15.6,20.6-29.8,36.4-38.4c11.5-6.4,25.4-9.3,38.3-5.9c10.5,2.6,19.7,9.4,26.3,17.9  c5.9,7.6,10.1,16.5,12.6,25.8C642.9,541.3,642,552.9,639.7,564 M317.9,640.9c-11,4.2-22.4,7.9-34.2,8.5c-4.4,0.1-9.4,0-13.1-2.8  c-2.3-2.4-3.7-5.6-5.1-8.6c22.1-2.8,43.1-11.1,63.1-20.5c7.8-3.8,15.5-7.9,23.1-12.2c0.3,6.3,0.7,12.7,0.5,19  C341.2,630.6,329.8,636.3,317.9,640.9 M351.5,639.6c-1.3,12.4-3.8,25-10.2,35.8c-4.3,7.3-11.2,13.4-19.5,15.5  c-6.3,1.6-13.2,1.8-19.3-0.5c-8.4-2.9-15.1-9.4-20.4-16.4c0.8-4.2,2.5-8.1,4.7-11.7c12-1.1,23.6-4.6,34.8-8.8  C331.8,649.6,341.8,644.9,351.5,639.6 M242.8,379.1c-5.2-0.3-9.6,3.5-12.4,7.6c-5.2,7.5-7.4,16.6-9,25.5c-2.5-1.1-5-2.3-7.5-3.3  c1.3-8.2,3-16.3,6-24.1c2.2-5.7,5.1-11.4,9.6-15.7c2.9-2.8,6.8-4.9,11-4.5c5,0.6,9,4.4,11.3,8.7c0.6,4.1,0.4,8.2,0.4,12.4  C250,382.5,246.9,379.3,242.8,379.1 M248.3,408.2c-0.7,2-1.9,4-3.9,5.1c-1.8,0.9-3.9,0-4.9-1.5c-2.7-3.7-2.6-8.8-1.3-13  c0.9-2.4,2.5-5.1,5.3-5.4c2.1-0.1,3.6,1.6,4.4,3.3C249.6,400.3,249.5,404.5,248.3,408.2 M242.3,361.5c-5.4-1.2-10.9,1.2-14.9,4.8  c-5.4,5-8.7,11.7-11.3,18.4c-2.7,7.4-4.4,15.1-5.7,22.9c-3.1-1.1-6.2-2.2-9.4-3.1c1.3-13.3,3.4-26.7,8.9-39  c2.7-5.7,6.4-11.5,12.2-14.5c5.6-2.8,12.5-2.2,18,0.6c5.4,2.8,8.5,8.4,10.1,14.1C248,363.7,245.4,362.1,242.3,361.5 M463.5,503.3  c-3.7-4.1-6.2-10-4.4-15.5c1.4-4,3.3-7.8,6.1-11c2.9-3.5,7.1-5.6,11.5-6.7c6.4-1.6,13-2,19.5-2.3c5-0.3,9.9-1.6,14.2-4  c11.6-6.3,18.8-18.2,23.1-30.3c7.1,14.2,13.3,28.8,18.2,43.9c-13.7,9.8-24.2,23.5-32.5,38c-4.7,8.7-9.6,17.2-15.6,25.1  c-5.8,7.4-12.1,14.9-20.5,19.4c-7,4-16.4,1-20.9-5.4c-2.2-3.1-3.4-7-3.1-10.9c0.5-6.9,2.9-13.7,6.9-19.4c1.2-1.8,2.9-3.1,4.3-4.6  c2.2-2.5,4.5-5.1,6.8-7.6C472.6,509.1,467,507.6,463.5,503.3 M686.3,478.6c-5.9,14.5-16.3,26.7-28.3,36.5  c-8.1-20.2-24.2-37.4-44.6-45.4c-14.5-5.9-31.2-6.6-45.9-0.8c-7.1-20.7-16.3-40.8-27-59.9c-11.7-21-25.2-40.9-40.4-59.6  c-13.5-16.6-28.3-32.2-43.8-47c-16.6-15.7-34.2-30.4-52.7-44c7.2-7.6,12.5-16.9,15.8-26.8c4-12.2,5-25.2,3.6-37.9  c-2.5-23.8-12.9-47.1-30.3-63.7c-14.1-13.7-32.7-22.2-52-25.5c-12.9-2.2-26.2-2.6-39,0c-18.3,3.7-35,13.8-47.2,27.8  c-10.9,12.6-18.8,27.8-22.7,44.1c-6.3-1.5-12.6-3-19-4.2c6.5-19.7,15.4-38.6,27.7-55.4c12.8-17.7,29.6-32.6,49.2-42.4  c17.3-8.7,36.6-13.3,55.9-14.1c29.4-1.1,59,5.7,85.1,19c19.7,9.9,37.7,23.3,53.7,38.5c16.2,15.3,30.6,32.4,43.7,50.3  c12.5,17.3,23.9,35.4,34.4,54c10.8,19.5,20,39.9,28.1,60.6c15.2,39.1,26.9,79.6,35.8,120.6c0.1,0.9,0.6,1.7,1.3,2.3  c2.1-0.9,2.6-3.3,3.3-5.3c2.2-9.3,1.4-18.8,1-28.2c11.2,2.5,21.9,7.3,31,14.3c7.8,5.9,14.2,13.4,18.9,22c5.4,9.8,8.4,20.8,9.5,31.9  C692.8,453.1,691.3,466.5,686.3,478.6"></path></svg>
