<svg id="Warstwa_1" xmlns="http://www.w3.org/2000/svg" xmlns:xlink="http://www.w3.org/1999/xlink" x="0px" y="0px" viewBox="0 0 792 792" xml:space="preserve"><style type="text/css">
	.pi0{fill:#FB5454;}
	.pi1{fill:#F90000;}
	.pi2{fill:#007D00;}
	.pi3{fill:#FBFBFB;}
	.pi4{fill:#7D0000;}
</style><path class="pi0" d="M308.6,323.8c-0.5,2.9-1.1,5.4-1.2,7.8c-0.2,4.8,1.4,6.9,6.1,7.9c8.6,1.9,17.3,0.9,25.9-0.4 c9.6-1.3,18.8-4.2,28.2-6.4c5.4-1.3,6.5-0.8,8.6,4.2c2.9,7,5,14.3,6.2,21.8c0.4,2.5-0.5,4.8-1.5,7c-2.4,5.3-5.4,10.2-8.8,14.9 c-2.1,2.9-4.5,3.6-7.7,1.7c-8.1-4.7-16.3-9.3-24.5-14c-8.9-5.1-17.9-10-27.4-13.9c-2.9-1.2-5.8-2.1-9.1-2.2c-2.6,0-3.8,1.2-4.1,3.5 c-0.3,2.3-0.1,4.5,0.4,6.8c4.8,21.5,10.2,42.9,15.9,64.2c1.1,4.1,0.1,7.1-3,9.5c-8.4,6.5-16.8,13-25.1,19.6 c-1.7,1.3-2.9,0.6-4.3-0.1c-13.8-7.5-27.5-15-41.3-22.5c-10.6-5.8-21.3-11.3-33-14.6c-2.5-0.7-5-0.8-7.5-0.3 c-4.1,0.9-6.4,3.9-6.6,8.3c-0.9,23.2,4.3,45.2,12.8,66.6c2.2,5.6,4.2,11.3,6.5,16.9c1.1,2.7,0.2,4.4-2.1,5.7 c-7.4,4.2-15.3,7.1-23.6,8.7c-2.2,0.4-4.1-0.2-5.7-1.6c-13.2-12.2-22-26.2-22.8-45c-0.8-16.5,4.3-30.9,11.5-45.2 c11.2-22.3,26.4-41.4,45.5-57.5c10.2-8.6,21.9-15.4,33.4-22.3c17.9-10.8,36.5-20.1,55.7-28.3C306.6,324.5,307.4,324.3,308.6,323.8z"></path><path class="pi1" d="M321.4,532.7c4.9-5.5,9.4-10.7,14.1-15.9c8.8-9.7,17.6-19.5,25.9-29.8c0.9-1.1,1.6-2.6,3.2-0.6 c7.2,9.3,18.1,7.7,27.3,1.6c11.1-7.3,18.3-18,24.7-29.4c6.1-11,9.3-22.7,8.8-35.3c-0.2-5.3-1.2-10.3-4.5-14.6c-1.3-1.6-1-3-0.4-4.6 c3.3-9.7,6.8-19.3,8.1-29.6c2.8-21.9,1.3-43.4-4.8-64.8c-13.1-46.3-32.7-89.8-56-131.8c-13.6-24.6-29.7-47.4-48.6-68.2 c-1.5-1.7-2.9-3.5-4.5-5.4c7.2-0.2,58.8,22.8,70.8,31.6c-6.5,1.4-11,4.8-12.5,11.3c-0.6,2.8-1,5.7-1,8.6 c0.3,19.6,6.2,36.9,20.8,50.7c2.3,2.2,4.8,4,7.7,5.3c9.6,4.3,19.2-1.6,20-12.2c0.9-11.5-0.4-22.6-5.3-33.2c-1.1-2.5-2-5.1-3.1-8 c1.8,0,2.4,0.9,3.1,1.6c16.5,15.8,30.8,33.2,40.8,54c0.3,0.5,0.5,1.1,0.8,1.6c1.9,3.3,2.6,5.9-1.6,8.5c-3.8,2.4-4.7,6.9-5,11.2 c-1.9,31.3,7.2,59.2,26.5,83.8c2.1,2.7,4.4,5.2,7.4,6.9c3.2,1.8,3.9,4.3,3.8,7.7c-0.4,7.9,0.2,15.9-0.6,23.9 c-0.2,1.8-0.7,2.9-2.4,3.6c-11.3,4.6-18.9,13.3-25.3,23c-11.7,17.8-20.6,37.1-25.5,57.9c-1.9,8.1-0.7,16.4-0.5,24.5 c0.1,3.1-0.9,5-3.1,7.1c-30.1,28.6-65.6,47.6-105.4,58.6C324,532.9,323.1,533.2,321.4,532.7z"></path><path class="pi2" d="M434,702.6c-0.1-14.9,0.6-29.9,1.5-44.8c1.1-17.4,2.8-34.7,7.8-51.6c4.7-15.9,12.4-30.3,23.1-43 c14.3-17,29.8-32.8,44.7-49.2c10.9-12,21-24.5,27.5-39.6c3.3-7.6,5.4-15.4,5.8-23.7c0.6-11.5,0.7-22.8-4.1-33.7 c-6.9-15.9-17.5-27.8-34.9-32.5c-7.5-2.1-7.1-2.3-6.1-10.3c1-7.3,1.3-14.6,1.8-21.9c0.4-5.2,0.6-10.3,0.8-15.5 c0.1-2.7,0.9-3.8,4-2.5c11.6,4.9,22.5,10.9,31.7,19.7c12.2,11.7,23,24.4,30.9,39.3c7.3,13.8,10.7,28.5,10.8,44.1 c0.4,30.4-6.9,58.9-20.3,85.9c-7,14-16.8,26.1-26.2,38.5c-13.9,18.2-29.2,35.3-41.6,54.6c-9.3,14.5-17.1,29.6-20.7,46.6 c-1.3,6.2-2.3,12.6-2.5,18.9c-0.3,10.4-2.7,20.2-7.2,29.5c-1.9,4-3.1,8.3-3.2,12.9c0,3.1,0.8,4.4,4.1,4.2c3.8-0.2,7.7,0.1,11.6,0 c2.4-0.1,3.3,0.9,3.1,3.2c-0.2,2.8-0.4,5.5-0.6,8.3c-0.2,1.9-1.3,2.7-3.1,3c-8.5,1.3-17.1,2.4-25.5,0.4c-5.4-1.2-9.7-4.9-11.3-10.7 c-1.8-6.5-1.9-13.3-2.1-20C434,709.3,434,706,434,702.6z M703.4,714.9c-2.7-0.5-5.5-0.8-8.2-1.4c-9.9-2-18-7.3-25-14.4 c-11.2-11.3-22.3-22.8-33.5-34c-7.6-7.6-16.2-13.6-26.5-17.1c-2.6-0.9-5.1-2.1-7.6-3.3c-7.3-3.5-8.1-6.5-3.5-13.2 c0.5-0.7,1-1.3,1.5-2c3.7-4.8,8.3-8.8,12.4-13.2c1.2-1.3,2.5-2.4,3.1-4.5c-0.8,0.1-1.2,0.2-1.7,0.3c-16.3,4.7-32.3,10.5-48.3,16.2 c-11.1,4-22,8.6-32.3,14.4c-14.5,8.2-26.2,19.7-37.4,31.7c-1.9,2.1-4.2,4.2-5.3,7.9c3.7-1.7,6.9-3.1,10-4.6 c12.6-6.1,25.6-9.5,39.8-8.9c8.6,0.4,17,1.4,25.5,2.4c0.7,0.3,1.4,0.6,2.1,0.8l0,0c-2.5,0.1-5.2,0.6-7.9-0.1c-4.2,0-8.4-0.1-12.7,0 c-13.2,0.3-26.1,2.5-38.5,7.2c-18,6.8-32.1,18.3-42,34.8c-0.9,1.4-2.3,3.2-1.6,4.5c0.7,1.3,2.9,0.5,4.3,0.5 c16.5-0.6,32.8-3.3,49.4-1.5c8.4,0.9,16.6,2.5,24.6,5.2c10,3.3,18.4,9.4,27,15.2c4.2,2.8,6.5,2.9,10.6-0.1c2.8-2,5.7-4.1,8.2-6.5 c9.8-9.6,21.5-13.6,35.1-13.1c7.7,0.3,15.4,0.4,23.1,0.6c15.4,0.4,30.9,0.2,46.3,0.1c3,0,5.9-0.8,8.9-1.2c0.8-0.1,1.8-0.5,1.8-1.5 C705.3,715.2,704.1,715,703.4,714.9z M377,643.1c11.6,2.4,23.2,4.7,32.4,12.9c3.2,2.9,6.9,5.2,10.3,8c2.1,1.7,2.5,0.9,2.7-1.3 c0.4-5.2,0.9-10.3,1.3-15.5c0.7-9,0.8-17.8-6.8-24.7c-2.3-2.1-3.8-2.6-6.4-0.8c-4,2.8-8.2,5.2-13.2,5.2c-16.4,0.2-32.8,0.9-49.1,1.3 c-13.4,0.3-26.7,0.8-40,2.4c-5.4,0.6-10.4,2.2-14.5,5.9c-7.9,7.3-15.7,14.7-25.9,18.8c-0.7,0.3-1.7,0.8-1.5,1.8c0.1,1,1.2,1.2,2,1.4 c3.2,0.9,6.6,1.4,9.7,2.6c13.4,5.5,25,13.9,36.4,22.7c5.9,4.6,12.4,7.1,19.7,6.6c8.6-0.6,17.3-1.3,26-1.4c6.7-0.1,12.2,2.4,16.8,7.1 c4.5,4.6,7.6,10.3,11.2,15.5c1.8,2.6,3.6,3.8,6.8,3.6c7.5-0.4,14.7-2.2,22-3.6c3-0.6,4-2,4.1-4.9c0.2-5.5-0.1-11.2,1-16.6 c2-10.3-2.5-17.9-9.2-24.6c-7.9-8-17.7-13.3-28-17.5c-4.4-1.8-8.8-3.5-13.9-5.6C373.5,641.9,375.3,642.7,377,643.1z"></path><path class="pi3" d="M146.6,107.2c6.2-1.3,12.3-3.3,18.7-4.2c3-0.4,6-0.8,9-0.2c0.6,0.1,1.6,0.3,1.5,1.2c0,0.4-0.7,1-1.2,1.2 c-1.7,0.7-3.3,1.4-5,1.9c-32.6,8.9-51.1,31-58.9,63c-2.8,11.5-4.5,23.2-4.8,35.1c-0.1,5.5,1.4,6.4,6.5,4.3c4-1.7,8-3.4,11.9-5.3 c1.7-0.8,2.6-0.4,3.6,1c1.9,3,3.3,6.3,2.4,9.9c-3.6,15.3-5.5,30.8-8.5,46.2c-0.2,1-0.4,2.6-1.1,2.9c-1.3,0.6-2-1-2.8-1.8 c-6.5-7.7-10.9-16.7-15.6-25.5c-16.2-30.4-20.1-63.1-18.7-97.1c0.9-23.1,10.1-42.6,24-59.9c16.3-20.2,38.5-31,64.2-33.7 c18.6-2,37.1-1,55,5.1C238,55,248,60.9,257.1,68c27.8,21.6,52.3,46.5,73.8,74.2c13,16.7,22.7,35.5,32.5,54.2 c18.7,35.5,36.2,71.5,47.6,110.1c4.9,16.5,8.9,33.1,8.4,50.4c-0.9,25.8-7.7,49.6-23.9,70.3c-17.6,22.6-35,45.5-53.7,67.3 c-16.9,19.7-34.6,38.8-54.3,55.7c-24.1,20.6-50.7,37.5-81.8,46.1c-9.8,2.7-19.7,3.1-29.7,3.2c-19.4,0.3-37.6-4.2-53.7-15.1 c-18.8-12.7-31.5-30.2-38.8-51.7c-4.6-13.6-7.3-27.5-6.5-41.9c0.6-11.1,3.3-21.4,10.9-30c4.5-5.1,5.8-5,8.5,1.3 c5.1,11.8,10.4,23.5,16.2,35c3.3,6.7,6.6,13.4,10.6,19.7c9.5,15.2,24.3,21,41.4,21.9c22.6,1.2,42.4-7.2,61-19.1 c24-15.4,45.4-34.2,67.2-52.5c26.6-22.3,53.5-44.4,78.3-68.8c4.8-4.8,9.3-9.8,13.7-14.9c8.1-9.7,9.9-20.2,6.1-32.4 c-7.2-23.2-17.9-44.6-31-65c-19.1-29.8-41.2-57.4-61.6-86.2C285,181,271,162.8,255,146.4c-13.8-14.2-27.9-28.1-45.9-37.1 c-13.3-6.7-27-10.9-42.1-9.4c-7.5,0.7-14.5,3.3-21.3,6.5C145.2,107.6,146,107.3,146.6,107.2z M191.3,193.1c0,2.2,0.8,3,3.1,2.4 c20.7-6.2,41.5-12.1,60.7-22.5c8-4.3,8.2-4.7,2.4-11.7c-11.1-13.2-23.1-25.6-35.9-37.2c-1.6-1.4-2.8-1.4-4.4-0.2 c-8.4,6.3-15.6,13.6-19.8,23.5c-4.9,11.5-6.1,23.7-6.2,36C191.3,186.6,191.4,189.8,191.3,193.1z M204.2,431.6 c-0.5,5.3-0.2,10.6,0.6,15.9c2.8,19,8.7,37.2,16.1,54.9c2.8,6.8,1.6,7.7,8.8,2.4c15.9-11.7,30.2-25.1,45.1-38c1.7-1.5,2-2.5-0.2-3.7 c-20.4-11.1-40.5-22.7-61.8-32c-2-0.9-4-1.7-6.3-1.8C204.4,428.8,204.3,430.2,204.2,431.6z M100.5,444c6.5,21.8,17,41.8,27.5,61.8 c7,13.4,18.5,19.3,32.7,21.3c3.1,0.4,6.3,1.2,9.7,0.3c-0.4-0.7-0.6-1.1-0.9-1.4c-13.4-14.6-19.2-32.3-20.9-51.5 c-0.4-4-2.1-6.6-5.5-8.6c-12.6-7.3-25.1-14.8-37.6-22.2c-1.6-0.9-3.1-1.8-5-2.1C99.9,442.7,100.3,443.4,100.5,444z M389.8,200.3 c3.1,3.9,6.5,7.5,11.1,9.6c7.4,3.5,14.6,0.2,16.6-7.7c0.7-2.8,1.2-5.7,1.2-8.6c0.1-14.2-4.6-26.9-12.7-38.4 c-4.3-6.1-9.1-11.6-16-14.7c-5.2-2.4-9.1-1-11.9,4c-2.7,4.9-3.5,10.2-3.5,13.9C374.8,173.4,380.8,189.3,389.8,200.3z M112.3,196.6 c-0.1,4.3,0.8,4.9,4.8,3.1c1.3-0.6,2.6-1.2,3.8-2c6.7-4.3,13.4-8.5,20-12.9c7.1-4.8,14.3-9.3,20.5-15.3c2.4-2.3,3-4.8,2.2-7.8 c-1.7-6.3-3.8-12.4-6.9-18.1c-2.4-4.5-5.6-8.4-10.4-10.7c-6.5-3.3-10.2-2.4-14.7,3.4c-13.2,17.2-18.3,37.1-19.4,58.3 C112.3,195.2,112.3,195.9,112.3,196.6z M436,461.1c0.2,2.1-0.3,5,1.8,5.8c2.1,0.7,3.3-1.9,4.6-3.4c19.9-23.7,34.1-50.3,41.5-80.4 c1.1-4.7,2.2-9.4,2.7-14.2c0.5-4.4-1.1-5.6-5.2-3.8c-0.8,0.3-1.5,0.7-2.2,1.2c-4.9,3.3-9.2,7.4-12.8,12.1 c-8.8,11.1-14.4,23.9-19.7,36.8c-5.4,13.1-10.8,26.3-10.9,40.9C435.8,457.7,435.8,459.4,436,461.1z M422.4,416.2 c-0.5-2.3-0.5-5.5-3.1-6c-2.1-0.4-3.2,2.5-4.4,4.2c-10.7,15.7-22.1,31-33.6,46.1c-4.7,6.1-9.2,12.4-13.8,18.6 c-1.9,2.5-1.6,4.7,0.4,7.1c4.1,4.9,14.4,6.1,20.5,2c5.7-3.7,10.5-8.5,14.9-13.6c11.9-13.9,19.6-29.6,20-48.3 C423.3,422.9,423,419.5,422.4,416.2z M127.4,369.5c3.3,13.1,8,25.7,12.5,38.4c3.6,10.1,7.7,20,13.2,29.2c0.8,1.3,1.7,3.1,3.3,2.9 c1.4-0.2,1.8-2.1,2.4-3.4c5.7-12.8,12.1-25.1,19.3-37.1c1.9-3.2,1.5-4.9-1.2-7.1c-10.5-8.4-21.5-15.8-33.6-21.7 c-4.3-2.1-8.8-3.9-13.1-4.3C127,366.2,126.8,367.3,127.4,369.5z M265.1,256.7c0.1,5.8,0.1,6,5.8,4.8c14-2.9,27-8.6,39.7-14.9 c5.5-2.8,5.9-4.3,2.3-9.5c-5.3-7.6-10.9-15-16.4-22.5c-3.3-4.5-6.6-8.9-9.9-13.4c-1.6-2.1-2.8-2.1-4.2,0.4 c-2.5,4.3-4.6,8.7-6.7,13.2c-5.9,12.8-10.2,26-10.7,39.6C265.1,255.5,265.1,256.1,265.1,256.7z M477.7,266.8 c-4.4-13.1-8.3-26.4-14.8-38.7c-2.2-4.1-4.4-4.2-7.2-0.5c-3.3,4.3-3.4,9.5-3.2,14.5c0.5,16.1,3.5,31.8,9.2,46.9 c4.7,12.4,10.7,24,20.8,32.9c1.3,1.1,2.8,3.4,4.3,2.6c1.6-0.8,0.6-3.3,0.8-4.8C486.5,301.6,483.5,283.9,477.7,266.8z M309.5,365.6 c4.5,18.9,9.1,37.9,13.7,56.8c0.7,2.9,1.8,3.4,4.3,1.4c11.1-9.5,21.9-19.3,32.4-29.4c2.1-2,2.1-3.3-0.5-4.8 c-14.7-8.4-29.3-17.1-44.3-25c-1.4-0.7-2.9-1.2-4.3-1.8C308.5,362.9,309.2,364.6,309.5,365.6z M364.1,325.1c4.5-1.6,4.5-1.7,2.5-6.1 c-5.9-12.8-12.8-25.1-20.4-37c-2.5-3.9-3.1-3.9-5.4,0.3c-7.5,13.5-14.9,27-22.3,40.5c-1.3,2.4-2.3,5-3.4,7.6c-1.2,2.9,0.2,4,3,4 c0.7,0,1.4,0,2.2,0C335.5,333.6,350,330.1,364.1,325.1z M129,267.9c12-4,23.6-8.9,33.4-17.2c5.4-4.6,6-8.1,3.2-14.7 c-4-9.5-10.6-16.8-18.6-23.1c-5.4-4.3-7.3-3.9-10.1,2.5c-6.9,15.6-8.2,32.5-10.9,49.1C126.1,266.5,125.3,269.1,129,267.9z  M173,327.2c-7.9-17.3-16.6-34.2-25.7-50.8c-4.1-7.4-4.3-7.6-12-4.1c-9.1,4-8.6,3-3.7,11.1c7.8,12.8,16.6,24.8,25.6,36.7 c3.8,5.1,4.5,9.8,1,15.2c-4.1,6.5-8,13.1-12.1,19.7c-3.3,5.4-3.3,5.4,2.2,8.3c4.6,2.5,4.9,2.4,8-1.6c5.9-7.6,11.1-15.7,15.6-24.3 c1-1.9,2.1-3.8,2.2-6.7C174.2,329.8,173.6,328.5,173,327.2z M126.8,401.7c-0.5-1.1-1-2.5-2.3-2.5c-1,0-1.5,1.4-2,2.3 c-3.9,7.2-7.9,14.3-11.7,21.5c-4.8,9.2-5.9,7.2,4.3,14c2.3,1.5,3.5,0.9,4.8-1.4c2.8-5.2,5.7-10.3,7.9-15.8c1-2.4,1.5-4.8,1.4-7.4 C129.2,408.8,128.4,405.2,126.8,401.7z"></path><path class="pi4" d="M187.5,109.4c8.3-0.2,15.9,2.2,22.9,6.6c2.5,1.6,2.5,2.9,0.2,4.6c-3.3,2.5-6.4,5.1-9.6,7.7 c-6.8,5.6-10.2,13.5-12.9,21.4c-5.4,15.9-6.1,32.3-3.2,48.8c1.3,7.3,3.8,8.7,10.9,6.6c15.8-4.5,31.1-10.4,46.2-16.6 c8.4-3.4,16.6-7.2,24.8-10.9c1.9-0.8,3.2-0.9,4.4,1.2c1.9,3.3,4.1,6.5,6.4,9.6c1.5,2.1,1.4,3.7,0.1,5.8 c-7.1,11.3-13.9,22.9-17.6,35.9c-2.7,9.5-4,19.1-2.7,28.9c1.3,9,6.3,11.2,13.9,10.4c12.4-1.4,23.5-6.7,34.8-11.6c4.6-2,9.3-4,13.9-6 c1.8-0.8,3.1-0.7,4.4,0.9c4.7,5.8,9.2,11.8,13,18.2c0.8,1.3,0.8,2.4,0,3.7c-5,8.8-10,17.7-16.2,25.7c-4.5,5.8-11.7,8-18.1,10.9 c-30.7,13.9-60.7,29-87.8,49.2c-10,7.5-18.9,16.1-27.2,25.4c-2.1,2.3-3.4,2.4-5.9,0.3c-5.8-4.9-11.8-9.5-17.9-14 c-1.9-1.4-1.8-2.3-0.6-4c5.6-7.7,11.3-15.3,16.4-23.4c1.7-2.8,3-5.8,4.2-8.8c1.3-3.1,0.9-6-0.4-9C179,315,172,304.1,166,292.7 c-4.1-7.8-8.8-15.2-12.3-23.3c-1-2.4-0.6-3.8,1.6-5c4.1-2.1,7.6-5.1,11.3-7.7c6-4.2,8.4-10.2,6.4-16.7c-4.6-15-12.4-27.9-26.6-36 c-2.1-1.2-4.6-1.5-6.8-2.3c-1.3-0.5-3.4-0.3-3.6-1.9c-0.2-1.6,1.4-2.7,2.7-3.5c4.2-2.8,8.4-5.6,12.7-8.3c5-3.2,9.5-6.9,14.2-10.5 c5.6-4.3,5.4-10.3,4.6-16.2c-1.3-9.8-4.7-18.8-10.9-26.8c-3-3.8-6.6-6.6-10.7-9c-3.4-2-3.5-2.6-0.1-4.8c10.4-6.5,21.6-10.6,34-10.9 C184.1,109.8,185.8,109.6,187.5,109.4z M133,427.6c-2.2,3.9-3.9,8-5.3,12.2c-0.7,2.1,0,3.4,1.7,4.5c6.1,4.1,12.5,7.6,19.1,11 c0.8,0.4,1.8,1.3,2.6,0.5c1-1,0-2.1-0.5-2.9c-4.9-8.3-10.1-16.4-14.4-25c-0.4-0.7-0.9-1.4-1.9-1.8C133.9,426.5,133.3,427,133,427.6z "></path><path d="M722.6,707.8c-3-0.9-6.1-1.5-9.2-1.8c-17.3-1.9-32.2-8.6-44-21.7c-4.4-4.8-8.8-9.7-13.2-14.4c-9.8-10.7-21.1-19.4-34.2-25.6 c-5.9-2.8-11.6-5.8-17.7-8.8c0.9-1.1,1.6-2,2.5-2.9c7.5-7.9,15-15.7,22.4-23.6c2.5-2.6,4.9-5.3,7.3-8c0.6-0.7,1.6-1.5,0.9-2.5 c-0.5-0.8-1.6-0.4-2.4-0.3c-2.9,0.4-5.7,1-8.6,1.4c-28.2,4.2-55.7,11.1-81.9,22.5c-15.3,6.7-29.8,14.7-41.7,26.8 c-7.3,7.4-14.6,14.7-20.4,23.4c-0.5,0.7-0.9,2.1-2,1.8c-1.4-0.5-0.6-1.9-0.5-2.9c0.4-2.5,0.9-5,1.6-7.4 c5.2-19.4,15.3-36.3,26.6-52.6c10.7-15.5,23.8-29.1,35.8-43.6c22.3-27,38.6-56.9,45.5-91.5c3.5-17.8,5.6-35.6,2.6-53.6 c-3.2-19.5-10.5-37.5-22.2-53.6c-16.8-23.1-37-41.9-65.6-49.5c-2.6-0.7-3.4-2.1-3.7-4.5c-0.8-6.9-1.5-13.9-2.6-20.8 c-3.1-19.5-9-38.1-16-56.5c-6.7-17.6-13.9-34.9-24.4-50.6c-23-34.6-54.3-59.8-91.5-77.8c-20.6-10-42.6-15.8-64.4-22.4 c-3.6-1.1-6.9-2.8-9.8-5.1c-7.7-6.2-15.4-12.4-23.2-18.5c-10.6-8.2-21.9-15.4-34.5-20c-19.3-7.2-39.4-8.2-59.6-6.4 c-21.4,1.9-41,9.1-57.7,22.7c-24.4,19.8-37.7,46-42.3,77c-2,14-1.4,27.9,0.1,41.8c2,18.8,5.8,37.2,13.6,54.4 c14.6,32.7,34,62.6,55.8,90.9c2.3,3,2.5,5.4,0.7,8.3c-4.1,6.8-8.1,13.6-12.2,20.5c-1,1.7-2.1,2-3.9,1.1s-3.8-1.7-5.7-2.2 c-6.2-1.9-10.9,2.4-9.6,8.7c1.4,7,3.6,13.7,5.8,20.5c0.7,2,0.5,3.6-0.5,5.4c-6.5,11.5-13,23.1-19.4,34.7c-1.7,3.1-3.4,4.4-7.2,3.2 c-5.3-1.6-7-0.2-6.2,6.3c0.4,3.2,1.2,6.4,2,9.6c0.3,1.5,0.1,2.4-1.1,3.4c-15.6,12.8-21,30.1-21.2,49.4c-0.2,20.3,5.5,39.2,14.4,57.3 c12.7,25.8,32.6,43.5,59.7,53.1c14.9,5.3,30.2,5.3,45.7,4c21.1-1.8,41.3-6.8,60-17c17.7-9.7,34.3-21.1,50.3-33.3 c1.7-1.3,3.4-2.7,5.6-3.1c13.9-2.7,27.1-7.5,40.5-11.8c30.5-9.9,59-23.5,83.5-44.7c18-15.7,34.4-32.8,46.5-53.6 c8.8-15.3,16-31.2,21.7-47.9c0.7-1.9,1.2-3.6,3.9-2.8c8.6,2.6,16.5,6.4,22.4,13.3c13.4,15.7,15.3,34.1,11.5,53.4 c-3.1,15.4-12,27.8-22.4,39c-14.5,15.7-29.4,31-44.3,46.3c-14.4,14.8-25.5,31.7-32.5,51.1c-2.4,6.7-4.2,13.7-6.6,21.6 c-2.3-2.6-4-4.7-6-6.7c-5.3-5.3-8.2-5.5-13.9-0.4c-4.4,3.9-9.2,6-15.3,6.1c-26.7,0.4-53.3,0.9-79.9,4c-10.2,1.2-18.9,4.1-25.9,11.7 c-2.5,2.6-5.3,4.9-7.9,7.4c-4.7,4.4-10,7.9-16.1,10.1c-5.6,2.1-11.6,3.3-17,6c-1.9,1-4.9,1.7-4.5,4c0.4,2,3.4,1.5,5.4,1.6 c14.8,0.4,28.5,4.1,41,12.2c8,5.2,14.9,11.9,22.4,17.8c7.1,5.7,14.9,9.1,24.3,8.3c8.4-0.7,16.9-0.5,25.3-1.1 c6.2-0.5,10.5,1.8,13.5,7c2.4,4.1,4.8,8.1,7.3,12c4.4,6.9,10.1,10.7,18.8,8.3c5.2-1.4,10.6-2.2,16-3.1c9.2-1.6,9.1-1.6,11,7.6 c2.2,10.8,7.4,19.3,18.3,23.3c2.5,0.9,5.4,0.8,7.7,2.5h10.9c0.5,0,1,0,1.4,0h1.4c0.3-1,1.1-0.6,1.8-0.7c5.3-0.5,10.4-1.8,15.4-3.6 c2.7-1,4.4-2.5,4.8-5.6c0.6-5.4,1.2-10.8,1.3-16.2c0-2.4,0.7-3.5,3.3-3.5c4.3-0.1,8.7-0.7,13-0.9c22.5-0.9,42.9,4.9,60.6,19.2 c6.4,5.2,10.4,7.5,21.4,1.4c5.6-3.1,10.4-7.5,15.1-11.8c4.7-4.3,10.1-6.1,16.4-6.4c17.9-0.9,35.7,0.5,53.5,1.8 c13.7,1,27-0.5,39.7-5.8c5.2-2.2,10.3-4.8,14.5-8.7C727.8,711.8,727.2,709.1,722.6,707.8z M462.9,228.1 c6.5,12.3,10.4,25.6,14.8,38.7c5.8,17.1,8.8,34.8,9.9,52.9c-0.2,1.5,0.8,4-0.8,4.8c-1.5,0.8-3-1.5-4.3-2.6 c-10.1-8.9-16.1-20.5-20.8-32.9c-5.7-15.1-8.7-30.8-9.2-46.9c-0.2-5-0.1-10.2,3.2-14.5C458.5,223.9,460.7,224,462.9,228.1z  M406,155.2c8.1,11.5,12.8,24.2,12.7,38.4c0,2.9-0.5,5.8-1.2,8.6c-2,7.9-9.2,11.2-16.6,7.7c-4.6-2.1-8-5.7-11.1-9.6 c-9-11-15-26.9-15.2-41.9c0-3.7,0.8-9,3.5-13.9c2.8-5,6.7-6.4,11.9-4C396.9,143.6,401.7,149.1,406,155.2z M126,264.5 c2.7-16.6,4-33.5,10.9-49.1c2.8-6.4,4.7-6.8,10.1-2.5c8,6.3,14.6,13.6,18.6,23.1c2.8,6.6,2.2,10.1-3.2,14.7 c-9.8,8.3-21.4,13.2-33.4,17.2C125.3,269.1,126.1,266.5,126,264.5z M112.2,194.6c1.1-21.2,6.2-41.1,19.4-58.3 c4.5-5.8,8.2-6.7,14.7-3.4c4.8,2.3,8,6.2,10.4,10.7c3.1,5.7,5.2,11.8,6.9,18.1c0.8,3,0.2,5.5-2.2,7.8c-6.2,6-13.4,10.5-20.5,15.3 c-6.6,4.4-13.3,8.6-20,12.9c-1.2,0.8-2.5,1.4-3.8,2c-4,1.8-4.9,1.2-4.8-3.1C112.3,195.9,112.3,195.2,112.2,194.6z M138.7,196.3 c4.2-2.8,8.4-5.6,12.7-8.3c5-3.2,9.5-6.9,14.2-10.5c5.6-4.3,5.4-10.3,4.6-16.2c-1.3-9.8-4.7-18.8-10.9-26.8c-3-3.8-6.6-6.6-10.7-9 c-3.4-2-3.5-2.6-0.1-4.8c10.4-6.5,21.6-10.6,34-10.9c1.6,0,3.3-0.2,5-0.4c8.3-0.2,15.9,2.2,22.9,6.6c2.5,1.6,2.5,2.9,0.2,4.6 c-3.3,2.5-6.4,5.1-9.6,7.7c-6.8,5.6-10.2,13.5-12.9,21.4c-5.4,15.9-6.1,32.3-3.2,48.8c1.3,7.3,3.8,8.7,10.9,6.6 c15.8-4.5,31.1-10.4,46.2-16.6c8.4-3.4,16.6-7.2,24.8-10.9c1.9-0.8,3.2-0.9,4.4,1.2c1.9,3.3,4.1,6.5,6.4,9.6 c1.5,2.1,1.4,3.7,0.1,5.8c-7.1,11.3-13.9,22.9-17.6,35.9c-2.7,9.5-4,19.1-2.7,28.9c1.3,9,6.3,11.2,13.9,10.4 c12.4-1.4,23.5-6.7,34.8-11.6c4.6-2,9.3-4,13.9-6c1.8-0.8,3.1-0.7,4.4,0.9c4.7,5.8,9.2,11.8,13,18.2c0.8,1.3,0.8,2.4,0,3.7 c-5,8.8-10,17.7-16.2,25.7c-4.5,5.8-11.7,8-18.1,10.9c-30.7,13.9-60.7,29-87.8,49.2c-10,7.5-18.9,16.1-27.2,25.4 c-2.1,2.3-3.4,2.4-5.9,0.3c-5.8-4.9-11.8-9.5-17.9-14c-1.9-1.4-1.8-2.3-0.6-4c5.6-7.7,11.3-15.3,16.4-23.4c1.7-2.8,3-5.8,4.2-8.8 c1.3-3.1,0.9-6-0.4-9C179,315,172,304.1,166,292.7c-4.1-7.8-8.8-15.2-12.3-23.3c-1-2.4-0.6-3.8,1.6-5c4.1-2.1,7.6-5.1,11.3-7.7 c6-4.2,8.4-10.2,6.4-16.7c-4.6-15-12.4-27.9-26.6-36c-2.1-1.2-4.6-1.5-6.8-2.3c-1.3-0.5-3.4-0.3-3.6-1.9 C135.8,198.2,137.4,197.1,138.7,196.3z M191.2,183.4c0.1-12.3,1.3-24.5,6.2-36c4.2-9.9,11.4-17.2,19.8-23.5c1.6-1.2,2.8-1.2,4.4,0.2 c12.8,11.6,24.8,24,35.9,37.2c5.8,7,5.6,7.4-2.4,11.7c-19.2,10.4-40,16.3-60.7,22.5c-2.3,0.6-3.1-0.2-3.1-2.4 C191.4,189.8,191.3,186.6,191.2,183.4z M282.4,201.6c1.4-2.5,2.6-2.5,4.2-0.4c3.3,4.5,6.6,8.9,9.9,13.4c5.5,7.5,11.1,14.9,16.4,22.5 c3.6,5.2,3.2,6.7-2.3,9.5c-12.7,6.3-25.7,12-39.7,14.9c-5.7,1.2-5.7,1-5.8-4.8c0-0.6,0-1.2-0.1-2.3c0.5-13.6,4.8-26.8,10.7-39.6 C277.8,210.3,279.9,205.9,282.4,201.6z M339.9,368.3c-8.9-5.1-17.9-10-27.4-13.9c-2.9-1.2-5.8-2.1-9.1-2.2c-2.6,0-3.8,1.2-4.1,3.5 c-0.3,2.3-0.1,4.5,0.4,6.8c4.8,21.5,10.2,42.9,15.9,64.2c1.1,4.1,0.1,7.1-3,9.5c-8.4,6.5-16.8,13-25.1,19.6 c-1.7,1.3-2.9,0.6-4.3-0.1c-13.8-7.5-27.5-15-41.3-22.5c-10.6-5.8-21.3-11.3-33-14.6c-2.5-0.7-5-0.8-7.5-0.3 c-4.1,0.9-6.4,3.9-6.6,8.3c-0.9,23.2,4.3,45.2,12.8,66.6c2.2,5.6,4.2,11.3,6.5,16.9c1.1,2.7,0.2,4.4-2.1,5.7 c-7.4,4.2-15.3,7.1-23.6,8.7c-2.2,0.4-4.1-0.2-5.7-1.6c-13.2-12.2-22-26.2-22.8-45c-0.8-16.5,4.3-30.9,11.5-45.2 c11.2-22.3,26.4-41.4,45.5-57.5c10.2-8.6,21.9-15.4,33.4-22.3c17.9-10.8,36.5-20.1,55.7-28.3c0.6-0.1,1.4-0.3,2.6-0.8 c-0.5,2.9-1.1,5.4-1.2,7.8c-0.2,4.8,1.4,6.9,6.1,7.9c8.6,1.9,17.3,0.9,25.9-0.4c9.6-1.3,18.8-4.2,28.2-6.4c5.4-1.3,6.5-0.8,8.6,4.2 c2.9,7,5,14.3,6.2,21.8c0.4,2.5-0.5,4.8-1.5,7c-2.4,5.3-5.4,10.2-8.8,14.9c-2.1,2.9-4.5,3.6-7.7,1.7 C356.3,377.6,348.1,373,339.9,368.3z M359.9,394.4c-10.5,10.1-21.3,19.9-32.4,29.4c-2.5,2-3.6,1.5-4.3-1.4 c-4.6-18.9-9.2-37.9-13.7-56.8c-0.3-1-1-2.7,1.3-2.8c1.4,0.6,2.9,1.1,4.3,1.8c15,7.9,29.6,16.6,44.3,25 C362,391.1,362,392.4,359.9,394.4z M274.8,466.8c-14.9,12.9-29.2,26.3-45.1,38c-7.2,5.3-6,4.4-8.8-2.4 c-7.4-17.7-13.3-35.9-16.1-54.9c-0.8-5.3-1.1-10.6-0.6-15.9c0.1-1.4,0.2-2.8,2.3-2.3c2.3,0.1,4.3,0.9,6.3,1.8 c21.3,9.3,41.4,20.9,61.8,32C276.8,464.3,276.5,465.3,274.8,466.8z M364.1,325.1c-14.1,5-28.6,8.5-43.8,9.3c-0.8,0-1.5,0-2.2,0 c-2.8,0-4.2-1.1-3-4c1.1-2.6,2.1-5.2,3.4-7.6c7.4-13.5,14.8-27,22.3-40.5c2.3-4.2,2.9-4.2,5.4-0.3c7.6,11.9,14.5,24.2,20.4,37 C368.6,323.4,368.6,323.5,364.1,325.1z M146.1,355c4.1-6.6,8-13.2,12.1-19.7c3.5-5.4,2.8-10.1-1-15.2c-9-11.9-17.8-23.9-25.6-36.7 c-4.9-8.1-5.4-7.1,3.7-11.1c7.7-3.5,7.9-3.3,12,4.1c9.1,16.6,17.8,33.5,25.7,50.8c0.6,1.3,1.2,2.6,1.1,3.5c-0.1,2.9-1.2,4.8-2.2,6.7 c-4.5,8.6-9.7,16.7-15.6,24.3c-3.1,4-3.4,4.1-8,1.6C142.8,360.4,142.8,360.4,146.1,355z M130.2,366.4c4.3,0.4,8.8,2.2,13.1,4.3 c12.1,5.9,23.1,13.3,33.6,21.7c2.7,2.2,3.1,3.9,1.2,7.1c-7.2,12-13.6,24.3-19.3,37.1c-0.6,1.3-1,3.2-2.4,3.4 c-1.6,0.2-2.5-1.6-3.3-2.9c-5.5-9.2-9.6-19.1-13.2-29.2c-4.5-12.7-9.2-25.3-12.5-38.4C126.8,367.3,127,366.2,130.2,366.4z  M151.1,455.8c-0.8,0.8-1.8-0.1-2.6-0.5c-6.6-3.4-13-6.9-19.1-11c-1.7-1.1-2.4-2.4-1.7-4.5c1.4-4.2,3.1-8.3,5.3-12.2 c0.3-0.6,0.9-1.1,1.3-1.5c1,0.4,1.5,1.1,1.9,1.8c4.3,8.6,9.5,16.7,14.4,25C151.1,453.7,152.1,454.8,151.1,455.8z M110.8,423 c3.8-7.2,7.8-14.3,11.7-21.5c0.5-0.9,1-2.3,2-2.3c1.3,0,1.8,1.4,2.3,2.5c1.6,3.5,2.4,7.1,2.4,10.7c0.1,2.6-0.4,5-1.4,7.4 c-2.2,5.5-5.1,10.6-7.9,15.8c-1.3,2.3-2.5,2.9-4.8,1.4C104.9,430.2,106,432.2,110.8,423z M100.5,441.6c1.9,0.3,3.4,1.2,5,2.1 c12.5,7.4,25,14.9,37.6,22.2c3.4,2,5.1,4.6,5.5,8.6c1.7,19.2,7.5,36.9,20.9,51.5c0.3,0.3,0.5,0.7,0.9,1.4c-3.4,0.9-6.6,0.1-9.7-0.3 c-14.2-2-25.7-7.9-32.7-21.3c-10.5-20-21-40-27.5-61.8C100.3,443.4,99.9,442.7,100.5,441.6z M287.5,550.2 c-24.1,20.6-50.7,37.5-81.8,46.1c-9.8,2.7-19.7,3.1-29.7,3.2c-19.4,0.3-37.6-4.2-53.7-15.1c-18.8-12.7-31.5-30.2-38.8-51.7 c-4.6-13.6-7.3-27.5-6.5-41.9c0.6-11.1,3.3-21.4,10.9-30c4.5-5.1,5.8-5,8.5,1.3c5.1,11.8,10.4,23.5,16.2,35 c3.3,6.7,6.6,13.4,10.6,19.7c9.5,15.2,24.3,21,41.4,21.9c22.6,1.2,42.4-7.2,61-19.1c24-15.4,45.4-34.2,67.2-52.5 c26.6-22.3,53.5-44.4,78.3-68.8c4.8-4.8,9.3-9.8,13.7-14.9c8.1-9.7,9.9-20.2,6.1-32.4c-7.2-23.2-17.9-44.6-31-65 c-19.1-29.8-41.2-57.4-61.6-86.2C285,181,271,162.8,255,146.4c-13.8-14.2-27.9-28.1-45.9-37.1c-13.3-6.7-27-10.9-42.1-9.4 c-7.5,0.7-14.5,3.3-21.3,6.5c-0.5,1.2,0.3,0.9,0.9,0.8c6.2-1.3,12.3-3.3,18.7-4.2c3-0.4,6-0.8,9-0.2c0.6,0.1,1.6,0.3,1.5,1.2 c0,0.4-0.7,1-1.2,1.2c-1.7,0.7-3.3,1.4-5,1.9c-32.6,8.9-51.1,31-58.9,63c-2.8,11.5-4.5,23.2-4.8,35.1c-0.1,5.5,1.4,6.4,6.5,4.3 c4-1.7,8-3.4,11.9-5.3c1.7-0.8,2.6-0.4,3.6,1c1.9,3,3.3,6.3,2.4,9.9c-3.6,15.3-5.5,30.8-8.5,46.2c-0.2,1-0.4,2.6-1.1,2.9 c-1.3,0.6-2-1-2.8-1.8c-6.5-7.7-10.9-16.7-15.6-25.5c-16.2-30.4-20.1-63.1-18.7-97.1c0.9-23.1,10.1-42.6,24-59.9 c16.3-20.2,38.5-31,64.2-33.7c18.6-2,37.1-1,55,5.1C238,55,248,60.9,257.1,68c27.8,21.6,52.3,46.5,73.8,74.2 c13,16.7,22.7,35.5,32.5,54.2c18.7,35.5,36.2,71.5,47.6,110.1c4.9,16.5,8.9,33.1,8.4,50.4c-0.9,25.8-7.7,49.6-23.9,70.3 c-17.6,22.6-35,45.5-53.7,67.3C324.9,514.2,307.2,533.3,287.5,550.2z M422.4,416.2c0.6,3.3,0.9,6.7,0.9,10.1 c-0.4,18.7-8.1,34.4-20,48.3c-4.4,5.1-9.2,9.9-14.9,13.6c-6.1,4.1-16.4,2.9-20.5-2c-2-2.4-2.3-4.6-0.4-7.1 c4.6-6.2,9.1-12.5,13.8-18.6c11.5-15.1,22.9-30.4,33.6-46.1c1.2-1.7,2.3-4.6,4.4-4.2C421.9,410.7,421.9,413.9,422.4,416.2z  M486.6,368.9c-0.5,4.8-1.6,9.5-2.7,14.2c-7.4,30.1-21.6,56.7-41.5,80.4c-1.3,1.5-2.5,4.1-4.6,3.4c-2.1-0.8-1.6-3.7-1.8-5.8 c-0.2-1.7-0.2-3.4-0.2-5c0.1-14.6,5.5-27.8,10.9-40.9c5.3-12.9,10.9-25.7,19.7-36.8c3.6-4.7,7.9-8.8,12.8-12.1 c0.7-0.5,1.4-0.9,2.2-1.2C485.5,363.3,487.1,364.5,486.6,368.9z M487.9,333.7c-0.4,7.9,0.2,15.9-0.6,23.9c-0.2,1.8-0.7,2.9-2.4,3.6 c-11.3,4.6-18.9,13.3-25.3,23c-11.7,17.8-20.6,37.1-25.5,57.9c-1.9,8.1-0.7,16.4-0.5,24.5c0.1,3.1-0.9,5-3.1,7.1 c-30.1,28.6-65.6,47.6-105.4,58.6c-1.1,0.6-2,0.9-3.7,0.4c4.9-5.5,9.4-10.7,14.1-15.9c8.8-9.7,17.6-19.5,25.9-29.8 c0.9-1.1,1.6-2.6,3.2-0.6c7.2,9.3,18.1,7.7,27.3,1.6c11.1-7.3,18.3-18,24.7-29.4c6.1-11,9.3-22.7,8.8-35.3 c-0.2-5.3-1.2-10.3-4.5-14.6c-1.3-1.6-1-3-0.4-4.6c3.3-9.7,6.8-19.3,8.1-29.6c2.8-21.9,1.3-43.4-4.8-64.8 c-13.1-46.3-32.7-89.8-56-131.8c-13.6-24.6-29.7-47.4-48.6-68.2c-1.5-1.7-2.9-3.5-4.5-5.4c7.2-0.2,58.8,22.8,70.8,31.6 c-6.5,1.4-11,4.8-12.5,11.3c-0.6,2.8-1,5.7-1,8.6c0.3,19.6,6.2,36.9,20.8,50.7c2.3,2.2,4.8,4,7.7,5.3c9.6,4.3,19.2-1.6,20-12.2 c0.9-11.5-0.4-22.6-5.3-33.2c-1.1-2.5-2-5.1-3.1-8c1.8,0,2.4,0.9,3.1,1.6c16.5,15.8,30.8,33.2,40.8,54c0.3,0.5,0.5,1.1,0.8,1.6 c1.9,3.3,2.6,5.9-1.6,8.5c-3.8,2.4-4.7,6.9-5,11.2c-1.9,31.3,7.2,59.2,26.5,83.8c2.1,2.7,4.4,5.2,7.4,6.9 C487.3,327.8,488,330.3,487.9,333.7z M423.7,647.2c-0.4,5.2-0.9,10.3-1.3,15.5c-0.2,2.2-0.6,3-2.7,1.3c-3.4-2.8-7.1-5.1-10.3-8 c-9.2-8.2-20.8-10.5-32.4-12.9c-1.7-0.4-3.5-1.2-6.1-0.7c5.1,2.1,9.5,3.8,13.9,5.6c10.3,4.2,20.1,9.5,28,17.5 c6.7,6.7,11.2,14.3,9.2,24.6c-1.1,5.4-0.8,11.1-1,16.6c-0.1,2.9-1.1,4.3-4.1,4.9c-7.3,1.4-14.5,3.2-22,3.6c-3.2,0.2-5-1-6.8-3.6 c-3.6-5.2-6.7-10.9-11.2-15.5c-4.6-4.7-10.1-7.2-16.8-7.1c-8.7,0.1-17.4,0.8-26,1.4c-7.3,0.5-13.8-2-19.7-6.6 c-11.4-8.8-23-17.2-36.4-22.7c-3.1-1.2-6.5-1.7-9.7-2.6c-0.8-0.2-1.9-0.4-2-1.4c-0.2-1,0.8-1.5,1.5-1.8c10.2-4.1,18-11.5,25.9-18.8 c4.1-3.7,9.1-5.3,14.5-5.9c13.3-1.6,26.6-2.1,40-2.4c16.3-0.4,32.7-1.1,49.1-1.3c5,0,9.2-2.4,13.2-5.2c2.6-1.8,4.1-1.3,6.4,0.8 C424.5,629.4,424.4,638.2,423.7,647.2z M476.4,731.7c-0.2,2.8-0.4,5.5-0.6,8.3c-0.2,1.9-1.3,2.7-3.1,3c-8.5,1.3-17.1,2.4-25.5,0.4 c-5.4-1.2-9.7-4.9-11.3-10.7c-1.8-6.5-1.9-13.3-2.1-20c0.2-3.4,0.2-6.7,0.2-10.1c-0.1-14.9,0.6-29.9,1.5-44.8 c1.1-17.4,2.8-34.7,7.8-51.6c4.7-15.9,12.4-30.3,23.1-43c14.3-17,29.8-32.8,44.7-49.2c10.9-12,21-24.5,27.5-39.6 c3.3-7.6,5.4-15.4,5.8-23.7c0.6-11.5,0.7-22.8-4.1-33.7c-6.9-15.9-17.5-27.8-34.9-32.5c-7.5-2.1-7.1-2.3-6.1-10.3 c1-7.3,1.3-14.6,1.8-21.9c0.4-5.2,0.6-10.3,0.8-15.5c0.1-2.7,0.9-3.8,4-2.5c11.6,4.9,22.5,10.9,31.7,19.7 c12.2,11.7,23,24.4,30.9,39.3c7.3,13.8,10.7,28.5,10.8,44.1c0.4,30.4-6.9,58.9-20.3,85.9c-7,14-16.8,26.1-26.2,38.5 c-13.9,18.2-29.2,35.3-41.6,54.6c-9.3,14.5-17.1,29.6-20.7,46.6c-1.3,6.2-2.3,12.6-2.5,18.9c-0.3,10.4-2.7,20.2-7.2,29.5 c-1.9,4-3.1,8.3-3.2,12.9c0,3.1,0.8,4.4,4.1,4.2c3.8-0.2,7.7,0.1,11.6,0C475.7,728.4,476.6,729.4,476.4,731.7z M705.1,716.1 c0,1-1,1.4-1.8,1.5c-3,0.4-5.9,1.2-8.9,1.2c-15.4,0.1-30.9,0.3-46.3-0.1c-7.7-0.2-15.4-0.3-23.1-0.6c-13.6-0.5-25.3,3.5-35.1,13.1 c-2.5,2.4-5.4,4.5-8.2,6.5c-4.1,3-6.4,2.9-10.6,0.1c-8.6-5.8-17-11.9-27-15.2c-8-2.7-16.2-4.3-24.6-5.2c-16.6-1.8-32.9,0.9-49.4,1.5 c-1.4,0-3.6,0.8-4.3-0.5c-0.7-1.3,0.7-3.1,1.6-4.5c9.9-16.5,24-28,42-34.8c12.4-4.7,25.3-6.9,38.5-7.2c4.3-0.1,8.5,0,12.7,0 c2.7,0.7,5.4,0.2,7.9,0.1c-0.7-0.2-1.4-0.5-2.1-0.8c-8.5-1-16.9-2-25.5-2.4c-14.2-0.6-27.2,2.8-39.8,8.9c-3.1,1.5-6.3,2.9-10,4.6 c1.1-3.7,3.4-5.8,5.3-7.9c11.2-12,22.9-23.5,37.4-31.7c10.3-5.8,21.2-10.4,32.3-14.4c16-5.7,32-11.5,48.3-16.2 c0.5-0.1,0.9-0.2,1.7-0.3c-0.6,2.1-1.9,3.2-3.1,4.5c-4.1,4.4-8.7,8.4-12.4,13.2c-0.5,0.7-1,1.3-1.5,2c-4.6,6.7-3.8,9.7,3.5,13.2 c2.5,1.2,5,2.4,7.6,3.3c10.3,3.5,18.9,9.5,26.5,17.1c11.2,11.2,22.3,22.7,33.5,34c7,7.1,15.1,12.4,25,14.4c2.7,0.6,5.5,0.9,8.2,1.4 C704.1,715,705.3,715.2,705.1,716.1z"></path></svg>
