<svg id="Warstwa_1" xmlns="http://www.w3.org/2000/svg" xmlns:xlink="http://www.w3.org/1999/xlink" x="0px" y="0px" viewBox="0 0 792 792" xml:space="preserve"><style type="text/css">
	.ra0{fill:#FDB354;}
	.ra1{fill:#FBBDA4;}
	.ra2{fill:#D8010B;}
	.ra3{fill:#A95807;}
	.ra4{fill:#A6E3FE;}
	.ra5{fill:#DCC5B5;}
	.ra6{fill:#FFFFFF;}
</style><path class="ra0" d="M138.8,618.8c0.5,23.2,9.5,56.5,22.1,67.8c10.8,9.7,23.4-3.5,27.4-10.8c15.8-28.2,13.4-86.3-13-102.6 c-13.7-8.4-24.8-2-30.3,7.6C138.9,591.4,138.5,605.4,138.8,618.8z M294,556c-1.5-14.9-6.8-27.8-13.9-37.8 c-15.7-22.3-50.8-30.1-73.6-21.5c-13.1,4.9-16.8,18.4-16.8,34.5c25.5,1.8,34,9.3,47.4,21.1c4.2,3.8,3.7,6.6,10.2,4.7 c4.9-1.4,8.5-2.3,13.6-2.9C272.9,552.8,282.7,554.1,294,556z"></path><path class="ra1" d="M352.8,351.6c-9.9-13.4,1-16.3-1-22.5c-2.1-6.3-8.2-9.9,4.1-20.7c3.2-2.8,15.3-10,20.4-11.3 c-3.8-20.2-21.4-53.2-37-64.8l-1.5,21.7c-2.6-3.3-8.5-23.7-18.8-33.3l-4.1-3.8c-14.3-10.8-23.3-3.1-31.1,3.8 c-2.9,2.6-3.9,5.8-7.6,7.8c1.1-15.7,5.4-21.1,5.7-25.7c-12-2.1-23.2-3.4-35.6-2.9l0.5,19.3c-2.1-1.4-2.4-1.8-3.9-3.9l-11.6-11.2 c-7.1-4.7-16.3,1.1-21.2,4.9c-7.5,5.9-23.6,42-10.7,47.2c1.7,0.7,3.2,0.9,5,1.1c-0.3-3.1-0.1-7,0.4-11.1c1.3-9,4.3-18.9,7.4-23.8 c2.3-3.8,6.3-8.1,11.3-9.8c17.3-5.6,26.8,11.7,27.7,32.3c0,0.8,0,1.6,0,2.5c0,0.3,0,0.5,0,0.8c-0.1,11.5-2.8,23.7-8.3,33.3 c0.9,3.2,1.2,2.8,4,4.3c-4,16.5-10.6,0.7-34.6-12.8c-26.1-14.8-52.3-14-72,8.9c-7.1,8.2-12.7,23.9-9.2,38.1 c6.2,24.9,27.2,43.9,54,45.6c15.1,0.9,29.2-2.5,40.2-9.2c22.3-13.5,14.8-22.6,30.2-16.2l0.9,6.9c12.5,1.6,36.4-0.7,46.4-6.1 c6.3-3.4,10.1-7.1,15.3-11c3.2-2.5,9-9.3,14.2-12.7c13.2,4.4,16.8,30.4,4.1,43.1c-4.8,4.8-7.8,4.4-14,7.9 c-1.7,16.2-6.5,24.6-21.5,27.7c-0.7,14.4,6.7,41.2-8.5,58l-2.6,2.7c-2.8,2.8-7.7,5.2-12.2,6.2c-15.6,3.3-24.2-7.2-29.3-17.3 c-2.6-5.1-4.9-12.3-9.1-14.5c-4.7-2.6-13.7-4-11.4-10.9c0.2-0.1,0.5-0.3,0.6-0.1l2.4,0.2c3.8,1.1,5,2.9,12.6,1.2 c9.5-2.1,30.7-14.3,36.3-21.2c-1.4-2.2-3.1-3.6-5.3-5c-8.1,5.7-18,16.8-33.9,15.9c-13.5-0.7-28.2-12.3-32.2-19.1 c-11.2,4.7-21.2,19.5-39.9-1.4c-2.7-3-4.8-9.1-10.8-8.3c0.4,20.1,17.2,36.5,34.1,45.4c5.7,3,14.3,7.6,20.9,9 c11,2.3,3.9,0.1,15.8,14.9l9.8,10.4c18,16.6,34.1,21.2,58.3,10.2c27.9-12.7,30.6-41.4,34.1-46.5c2.6,1,3.7,2.6,5.1,4.3 c7.1-3.2,20.5-21.4,25.6-30.5c6.9-12.4,14.8-25.4,15.9-42C367,359.1,357.4,357.8,352.8,351.6z M304.6,320.2 c-2.3,0.6-4.4,0.9-6.4,0.9c-19.4,0.3-26.5-24.5-26.9-44.3c-0.4-20.2,4.8-37,17.8-45.1c3-1.9,6.4-3.3,10.3-4.1 c4.3-1,8.5-0.3,12.3,1.7c11.4,6,19.6,23.4,19.4,41.3C330.8,293,323.1,315.4,304.6,320.2z"></path><path class="ra2" d="M292.5,438.2c6.9-19.8-33.9-3.2-34.7,8c-0.6,7.2,14,10.8,20.2,9C285,453.1,290.2,444.6,292.5,438.2z"></path><path class="ra3" d="M152.4,564.6c20-3,31.8,2.1,40,14.2c17.3,25.7,19.8,82.9-3.9,108.4c-2.2,2.4-5,4.5-7.8,6.3 c-2.3,1.5-6.6,3.2-8.1,5c10.8,9.6,25.7,14.5,44.3,10c7.8-1.9,13.9-4.4,20.2-7.8c4.4-2.3,5.1-3.6,10.8-3.6c4.4,0,9.6,0.4,14,0.6 c44.3,2.1,59.9,4.4,102.9-8.7c14.2-4.3,28.4-9.8,40.8-16.1c24.1-12.1,44.6-33.9,55.9-57.2c4.9-10.1,10.1-35.4,4.8-47.7 c-15,5.8-15.1,20.6-30.3,34.5c-18,16.5-33.7,23.8-58.4,11c-4.5-2.3-9.2-0.9-14.6-1.4c-15.9-1.5-21.9-8.7-27.5-21.4 c-7-15.8-6,2.3-23.6-23.4c-3,2.2-2.3,4.8-5.3,7.4c-4.4-1.6-9-4.6-14.3-6.4c-23.4-7.9-35.9-1.4-55.8-0.1c-2.7-3.2-4.5-7-7.2-10.5 c-14.8-19.2-39.4-20.8-60.1-9.7C160.5,552.6,156.5,557,152.4,564.6z M546.5,533.7c13.9,13.4,28.8,35.2,30.3,62.2 c0.7,13.5-1.4,29.8-4.1,42.5c-4.3,20.9-8.9,24.8-11.6,34.1c12-0.2,33.3-4.3,43.8-9.9c2.9-1.6,1.5-0.1,3.2-3.8 c15.5-32.6,18.7-62.5,3.7-96.1c-9.5-21.3-14.6-23-23.3-36.2C579.5,525.7,551.9,528.4,546.5,533.7z M475.7,560 c0,4.5,4.8,19.9,6.1,25.7c9.5,41,2.1,42-8.5,77c9.9,3.6,20.3,7.9,32.4,8.6c6.3-7.3,13.9-21.9,18.1-33.5c9.1-25.1,1.6-60-14.2-79.8 C501.6,547.9,502.8,548.5,475.7,560z M384.1,710.8c3.1,8.4,12,18.5,18.6,23.3c27.6,19.9,65.7-2.2,61.3-46.8 c-1.5-14.9-5.1-18.4-17.6-23.2c-9.9-3.8-8.1,0.2-24.4,12.2c-28,20.5-49.7,19.9-56.5,25.8C366.6,709.5,376.1,710.3,384.1,710.8z  M523,208.7c-12.7-25.4-10.6-23.8-21.6-20.3c2.1-36.7,11.2-73.4-8.6-111.8C486.3,64,482.1,60,465,66.1 c-21.8,7.8-49.6,27.5-64.3,43.5c-2.8,3-7.2,8.6-10.3,10.9c-6.4,4.7-6.4-6.3-2-11.9c2.4-3.1,8.4-8.9,9.8-11.6 c-6.4-1.9-12.5-4.7-19.8-6.7c-22.6-6.4-45-10.8-69.1-8.9c-27.2,2.2-58.5,14.2-77,26.5c-21.2,14.2-37.1,29.2-48.4,55.9 c-10.1,23.6-15.8,60.4-15.1,88.5l17.9,1c1.1-38.1,12.2-34.8,17.8-52.3c5.8-17.9,25-31.3,38.3-9.4c13.8,0,23.4-0.4,36.8,2 c9.9,1.7,6.5,2.8,13-2.6c11.8-9.9,38.4-10.8,44.6,19.5c2,9.8-0.7,7.1,5.7,12.7c33.1,28.1,46.7,61.7,46.7,108.2 c0,77.8-46.6,97.4-52.3,108.8c-12.8,25.4-29.9,49.5-67.1,46.7c-30.4-2.3-32.4-17.7-41.2-13c-6.3,3.4-16.4,9-19,15.3 c51-6.6,78.2,13.3,91.4,61.3c2.1,7.8,1.6,10.9,8.7,13.7c-1.6-12-3.1-13.8,1.1-25.5c2.3-6.4,1-5.2-1.5-10.6 c-9.3-19.9,10.9-36.2,26.3-44.3c1.7-12.9,1.6-16.4,8.7-25.6c4.6-6,10.4-10.8,20-14.1c19.8-6.6,38.9-0.2,52.7,8.8 c5,3.3,5.2,5,12.6,4.5c15.1-1,27.4,3.9,36.7,14.6c10.8,12.5,17,27.6,18.3,49.2c2.8-1.4,0.2,0.2,2.5-1.7c0,0,1.2-1,1.4-1.3l9.1-9.2 c13.9-18.1,5.3-38.3-8-50.8c-13.7-12.9-32.5-9.6-35-12.4c-1.4-2-1.4-8.5-0.4-11c8.8-2.5,14.4,2.8,20.7-3.8 c16-16.7,18.3-17.8,33.6-37.4c11.9-15.4,26-39.9,31.1-63.6C548,294.7,539.1,241,523,208.7z M496.6,193.7c-0.8,0.7-1.8,1.2-2.8,1.6 c-2.2,0.9-4.8,1.4-7.7,1.6c-6.4,0.5-13.8-0.4-18.6-1.2c-28.8-5-46.2-23.3-46.1-47.6c0.1-11,3.7-23.3,11.6-36.2 c8.5-13.9,46.2-59.4,56.4-36.5l0,0l0,0c-16.8-1.4-13.2-0.3-22.2,8.4c-14.1,13.6-29.6,35.5-34.6,55.7c-1.2,4.9-1.6,9.1-1.5,12.8 c0.4,13.6,8.8,20.2,19.9,26.5c25.7,14.6,39.7,8.4,46.1,13.2c0.2,0.2,0.4,0.3,0.6,0.5C497.4,193.1,497,193.4,496.6,193.7z  M364.8,332.1c-1.9,2.1-11.3,5.5-4,14.2c4.3,5.2,11.3,5.7,15.2-0.1c5.3-8.1,7.2-29.3,2.6-38.9c-5.3,0.6-13.7,5.7-16.5,8.3 C355.1,322,362.6,327.8,364.8,332.1z M261.1,81.2c3.2-0.1,20.3-5.9,23.5-7.8l-14.7-16.6c-3-3.1-12.7-12.8-19.8-11.8 c-0.4,4.5,4.3,11.9,5.9,16.8C257.8,67.1,259,76.6,261.1,81.2z"></path><path class="ra4" d="M279,256.3c22.3-0.8,16.3,31.1,2.2,45.1c1.3,4.3,3.3,6.9,6,9.2c18.3-9.6,30.8-62.8-4.3-65.5 C281.6,248.6,279.8,252.1,279,256.3z M232.7,274.7c0.7-7.4,0.9-22.6,9.3-24.9l3.7-1c0-3.4,0-8-1.3-10.4c-2.6-1.6-8-1.3-11.2,0 c-8.6,3.3-9.2,22.8-8.9,30.8L232.7,274.7z"></path><path class="ra5" d="M167,477.2c0.5-4.8,1.9-3.9,4.5-7.2l7.6,0.9l0.9-7.5c-12.2-0.9-19.2,0.8-27.5,7.1c-5.2,4-12.7,12.1-10.3,23.4 c4.1,19.6,31.1,27.7,41.9,16c-1-4.7-6.3-7.3-8.6-11.7c-4.9-9.5,4.4-14.7-4.3-19.4C169.5,478,168.3,477.7,167,477.2z M174.9,533.4 c2.1-1.9,8.3-9.3,0.8-10.6c-12.5-2.2-12.5,2.4-29.6-9.2c-3.4-2.3-8.5-7-10.9-7.8C130.7,525.8,158,547.8,174.9,533.4z M214.4,468.9 c-4.5-5.3-17.5-5.2-24.1-0.7c-5,3.5-10.2,13.8-7.1,23.4c1.6,5.1,5.1,7.1,8.7,2.8c11.2-13.6,1.9-6.2,19.7-20.6 C214.6,471.2,214.1,472.3,214.4,468.9z M473.6,501.8c-6.2-18.5-18.7-31.5-41.8-33.2c1,5.1,3.5,10.1,1.6,15.6 c-3.1-2.9-5.3-9.9-16.5-18.7c-20.3-16.1-61.7-19.7-69.7,14.3h5.9l0,0c4.6-2.1,2.1-15.1,14.9-10.1c0.5,1.3-3.2,14-3.9,16.9 c-16.5,2-26.6,5-36.9,13.3c-3.2,2.6-7.9,9.7-8.9,16.5c-1.6,10.4,3.9,13.1,4.3,19.9c0.4,7.1-5,10.2-2.8,21.1 c2.9,14.9,9.9,16.3,18.3,19.4c4.5,1.7,3.5,2.9,5.1,7.1c2.3,6,6.8,11.1,10.3,14.2c5.4,5,11.1,6.2,19.9,5.8 c10.6-0.4,27.2,13.5,49.4-4.3c4.6-3.6,13.9-14.4,17.5-20.2c13.2-20.9,15.5-34.8,10-59.2c10.6,4.3,10.4,26.2,11.8,38.4 C475.5,548.8,480.7,523.3,473.6,501.8z M388.2,526.5c-0.1-0.6-0.1-1.2,0-1.7c0.1-0.8,0.4-1.5,0.8-2.1c0.1-0.2,0.3-0.4,0.5-0.6 c0.9-0.9,2.1-1.6,3.6-2.1c0.9-0.3,1.9-0.5,2.9-0.6s2.1-0.2,3.2-0.2c0.7,0,1.5,0,2.2,0.1s1.5,0.2,2.2,0.3s1.5,0.3,2.2,0.4 s1.4,0.4,2,0.6c2.3,0.8,4.3,1.9,5.5,3.3c-0.2,0.3-0.6,0.6-0.9,0.9C407,529.7,389.6,536.2,388.2,526.5z M394.9,556.7 c-2.2-3.9-2.4-4.7-1.7-9.3c0-0.3,0.1-0.6,0.1-1c6-3.7,16.9-7.6,25.8-7.5l0,0l0,0c-0.3,4.4-5,10.8-11.1,14.7 c-0.2,0.1-0.4,0.3-0.6,0.4c-1.1,0.6-2.2,1.2-3.4,1.6c-0.2,0.1-0.4,0.2-0.6,0.3c-1.1,0.4-2.2,0.7-3.4,0.8c-0.4,0.1-0.7,0.1-1.1,0.1 C397.6,557.1,396.3,557,394.9,556.7z M423.8,570.1c-1.1,1.8-2.3,3.6-3.7,5c-2.2,2.2-5.1,3.5-9.5,2.7c-0.8-1.1-1.3-2.1-1.8-2.9 c-0.5-1-0.8-1.9-0.9-2.8c-0.7-4.2,2.9-6.2,6.6-9.6c2.9-2.7,9.8-8.5,13.7-9.1l0,0l0,0C429.6,559.4,426.1,566.3,423.8,570.1z M136,535 c-4.7,14.4,13.2,26.2,19.6,9.5c-2.9-2-7-3-10.3-4.5C141.8,538.5,139,536.3,136,535z"></path><path class="ra6" d="M286,241.8c6.1,3.5,24.5,4.9,21.9,33c-1.1,12.7-4.9,26.3-14,34.9l-4.1,4.1c37.6,13,45.6-58,24.8-75.6 C303.9,229.1,293,232.5,286,241.8z M221.1,266.7c0.9-19.8,1.2-33.5,23-32.3c-1.2-7.3-4-13.2-8.9-15.8 c-21.9-11.6-27.6,35.4-26.1,39.8C209.5,259.5,218.5,266.4,221.1,266.7z M247.7,427.3c4,14.9,19.9,1.9,26.9-2.8 c5-3.3,8.2-6.1,12.6-9.3c4.1-3.1,10.2-7.3,4.4-14.3c-2.8,0.3-10.2,9.3-19.4,15C267.1,419,254.3,425.5,247.7,427.3z M286.1,283.3 c2-4.6,1.9-4.8-0.2-9.1c-4-1-8.5-0.8-8.7,4.4C277,284.1,281.8,284.3,286.1,283.3z"></path><path d="M428.2,553.4c1.4,6-2.1,12.9-4.4,16.7c-1.1,1.8-2.3,3.6-3.7,5c-2.2,2.2-5.1,3.5-9.5,2.7c-0.8-1.1-1.3-2.1-1.8-2.9 c-0.5-1-0.8-1.9-0.9-2.8c-0.7-4.2,2.9-6.2,6.6-9.6C417.4,559.8,424.3,554,428.2,553.4z M412.4,524.8c0.3-0.3,0.7-0.6,0.9-0.9 c-1.2-1.4-3.2-2.5-5.5-3.3c-0.6-0.2-1.3-0.5-2-0.6s-1.5-0.3-2.2-0.4c-0.7-0.1-1.5-0.2-2.2-0.3s-1.5-0.1-2.2-0.1 c-1.1,0-2.2,0.1-3.2,0.2c-1,0.1-2,0.3-2.9,0.6c-1.5,0.5-2.7,1.2-3.6,2.1c-0.2,0.2-0.4,0.4-0.5,0.6c-0.4,0.6-0.7,1.3-0.8,2.1 c-0.1,0.5-0.1,1.1,0,1.7C389.6,536.2,407,529.7,412.4,524.8z M419.1,538.9c-8.9-0.1-19.8,3.8-25.8,7.5c0,0.4-0.1,0.7-0.1,1 c-0.7,4.6-0.5,5.4,1.7,9.3c1.4,0.3,2.7,0.4,4,0.1c0.4,0,0.7,0,1.1-0.1c1.2-0.1,2.3-0.4,3.4-0.8c0.2-0.1,0.4-0.2,0.6-0.3 c1.2-0.4,2.3-1,3.4-1.6c0.2-0.1,0.4-0.3,0.6-0.4C414.1,549.7,418.8,543.3,419.1,538.9z M467.5,195.7c4.8,0.8,12.2,1.7,18.6,1.2 c2.9-0.2,5.5-0.7,7.7-1.6c1-0.4,2-0.9,2.8-1.6c0.4-0.3,0.8-0.6,1.1-1.2c-0.2-0.2-0.4-0.3-0.6-0.5c-6.4-4.8-20.4,1.4-46.1-13.2 c-11.1-6.3-19.5-12.9-19.9-26.5c-0.1-3.7,0.3-7.9,1.5-12.8c5-20.2,20.5-42.1,34.6-55.7c9-8.7,5.4-9.8,22.2-8.4 C479.2,52.5,441.5,98,433,111.9c-7.9,12.9-11.5,25.2-11.6,36.2C421.3,172.4,438.7,190.7,467.5,195.7z M331.1,270.6 c-0.3,22.4-8,44.8-26.5,49.6c-2.3,0.6-4.4,0.9-6.4,0.9c-19.4,0.3-26.5-24.5-26.9-44.3c-0.4-20.2,4.8-37,17.8-45.1 c3-1.9,6.4-3.3,10.3-4.1c4.3-1,8.5-0.3,12.3,1.7C323.1,235.3,331.3,252.7,331.1,270.6z M286.1,283.3c2-4.6,1.9-4.8-0.2-9.1 c-4-1-8.5-0.8-8.7,4.4C277,284.1,281.8,284.3,286.1,283.3z M287.2,310.6c18.3-9.6,30.8-62.8-4.3-65.5c-1.3,3.5-3.1,7-3.9,11.2 c22.3-0.8,16.3,31.1,2.2,45.1C282.5,305.7,284.5,308.3,287.2,310.6z M314.6,238.2c-10.7-9.1-21.6-5.7-28.6,3.6 c6.1,3.5,24.5,4.9,21.9,33c-1.1,12.7-4.9,26.3-14,34.9l-4.1,4.1C327.4,326.8,335.4,255.8,314.6,238.2z M674.9,595.2 c-2.8,41.7-33.4,68.1-70.9,80.8c-44.6,15.1-88.9,10.3-132.6-1.1c3.7,13.7,5.9,22.4,2.3,37.3c-8.8,36.8-41.5,56.4-74.5,35.2 c-21.5-13.9-17.1-25.5-32.5-30.6c-6.9-2.3-8.6-3.7-14.2-6.9c-8.1-4.6-6.7-3.3-16.7-2.2c-38.4,4.2-40.5,3.1-77.9,0.5 c-10.5-0.8-9-2.2-17.2,2.5c-8.4,4.8-19.9,9.6-30.7,11.3c-26.5,4-46.8-13.9-57.6-25.9c-13.6-15.2-20.7-39.8-23.2-60.7 c-1.6-13.2-1.7-26.5,0-39.7c2.4-18.9,6.3-21,10-32.1c-5.5-5-9.2-8.2-12.8-16.9c-5.5-13.2,3-15.7-0.3-24.2c-8.2-20.8,2.8-23.4,4.5-35 c1.1-7.3,4.2-15.6,9.5-20.4c8.5-7.9,19.3-12.5,31.6-13.5c4.9-0.4,9.6-0.1,14.2,1.1c6.6,1.6,6.7,0.4,13.1,0.2 c9.5-0.3,15.2,3.9,22.6,7.1c-1.1-2.2-7.3-11.3-9.3-13.5c-3.1-3.6-10.8-4.6-15.4-6.4c-47.1-18.5-46.8-55.7-49.8-60.9 c-2-3.4-17.6-5.8-15.8-29c0.4-5.6,0.2-5.4-2.7-8.6c-12.8-13.9-15.8-40.9-5.6-60.2c1.9-3.6,7.5-10.2,9.7-12.2 c5.7-5,17.2-14.3,27-16.8c-3.1-30.9,3.2-62.5,14.1-89.4c8.9-22,12-25,24.2-40.7l16-16.3c6.6-7.4,11.3-73.8,38.3-71.9 c15.8,1.2,30.8,19.2,38.5,27l6.2,7c3.3,3.4,18.4,1.5,23.7,1.5c16.7,0,31.3,0.5,46.9,4.9c4.7,1.3,38.3,12,39.1,12 c2-0.2,2.1-1,3.8-2.4c17.1-13.9,42.3-28.1,63.9-32.7c9.6-2.1,14.7-0.1,18.9,5.3c11.3,14.2,20.2,34.4,23.9,53.4 c2.7,13.7,2.1,34.8,1.1,48.9c-0.8,10-2.6,12.7,0.9,17.2c2.8,3.6,5.5,7.9,7.9,11.6c2,2.3,4.4,6,6.7,10.4c1.5,2.8,2.8,5.6,3.7,8 c1.1,2.1,2.3,4.1,3.3,6.3c2.1,4.6,4.1,10,6,15.1c3.6,10.1,6.7,22.1,8.5,33.6c8,49.4-4.8,108.4-38.5,144.7c-2.6,2.8-2.7,3.3-4.8,5.8 c-1.9,2.3-3.4,2.8-5.5,5l-10.3,10.8c-3.2,3.5-8.5,5.9-10.7,9.7c6.9,3.6,18.3,14.3,22.6,20.1c15.4,20.9,10.2,44-4.8,63.3 c-11.1,14.4-15.6,10.6-18.3,24.2c6-1.5,18.8-9.1,26.1-12.1c29.7-12.1,58-23.4,91.9-19.4C645.7,520.3,678.1,548,674.9,595.2z  M256,61.8c1.8,5.3,3,14.8,5.1,19.4c3.2-0.1,20.3-5.9,23.5-7.8l-14.7-16.6c-3-3.1-12.7-12.8-19.8-11.8 C249.7,49.5,254.4,56.9,256,61.8z M228.4,451.7l9.8,10.4c18,16.6,34.1,21.2,58.3,10.2c27.9-12.7,30.6-41.4,34.1-46.5 c2.6,1,3.7,2.6,5.1,4.3c7.1-3.2,20.5-21.4,25.6-30.5c6.9-12.4,14.8-25.4,15.9-42c-10.2,1.5-19.8,0.2-24.4-6c-9.9-13.4,1-16.3-1-22.5 c-2.1-6.3-8.2-9.9,4.1-20.7c3.2-2.8,15.3-10,20.4-11.3c-3.8-20.2-21.4-53.2-37-64.8l-1.5,21.7c-2.6-3.3-8.5-23.7-18.8-33.3l-4.1-3.8 c-14.3-10.8-23.3-3.1-31.1,3.8c-2.9,2.6-3.9,5.8-7.6,7.8c1.1-15.7,5.4-21.1,5.7-25.7c-12-2.1-23.2-3.4-35.6-2.9l0.5,19.3 c-2.1-1.4-2.4-1.8-3.9-3.9l-11.6-11.2c-7.1-4.7-16.3,1.1-21.2,4.9c-7.5,5.9-23.6,42-10.7,47.2c1.7,0.7,3.2,0.9,5,1.1 c-0.3-3.1-0.1-7,0.4-11.1c1.3-9,4.3-18.9,7.4-23.8c2.3-3.8,6.3-8.1,11.3-9.8c17.3-5.6,26.8,11.7,27.7,32.3c0,0.8,0,1.6,0,2.5 c0,0.3,0,0.5,0,0.8c-0.1,11.5-2.8,23.7-8.3,33.3c0.9,3.2,1.2,2.8,4,4.3c-4,16.5-10.6,0.7-34.6-12.8c-26.1-14.8-52.3-14-72,8.9 c-7.1,8.2-12.7,23.9-9.2,38.1c6.2,24.9,27.2,43.9,54,45.6c15.1,0.9,29.2-2.5,40.2-9.2c22.3-13.5,14.8-22.6,30.2-16.2l0.9,6.9 c12.5,1.6,36.4-0.7,46.4-6.1c6.3-3.4,10.1-7.1,15.3-11c3.2-2.5,9-9.3,14.2-12.7c13.2,4.4,16.8,30.4,4.1,43.1 c-4.8,4.8-7.8,4.4-14,7.9c-1.7,16.2-6.5,24.6-21.5,27.7c-0.7,14.4,6.7,41.2-8.5,58l-2.6,2.7c-2.8,2.8-7.7,5.2-12.2,6.2 c-15.6,3.3-24.2-7.2-29.3-17.3c-2.6-5.1-4.9-12.3-9.1-14.5c-4.7-2.6-13.7-4-11.4-10.9c0.2-0.1,0.5-0.3,0.6-0.1l2.4,0.2 c3.8,1.1,5,2.9,12.6,1.2c9.5-2.1,30.7-14.3,36.3-21.2c-1.4-2.2-3.1-3.6-5.3-5c-8.1,5.7-18,16.8-33.9,15.9 c-13.5-0.7-28.2-12.3-32.2-19.1c-11.2,4.7-21.2,19.5-39.9-1.4c-2.7-3-4.8-9.1-10.8-8.3c0.4,20.1,17.2,36.5,34.1,45.4 c5.7,3,14.3,7.6,20.9,9C223.6,439.1,216.5,436.9,228.4,451.7z M291.6,400.9c-2.8,0.3-10.2,9.3-19.4,15c-5.1,3.1-17.9,9.6-24.5,11.4 c4,14.9,19.9,1.9,26.9-2.8c5-3.3,8.2-6.1,12.6-9.3C291.3,412.1,297.4,407.9,291.6,400.9z M257.8,446.2c-0.6,7.2,14,10.8,20.2,9 c7-2.1,12.2-10.6,14.5-17C299.4,418.4,258.6,435,257.8,446.2z M244.1,234.4c-1.2-7.3-4-13.2-8.9-15.8 c-21.9-11.6-27.6,35.4-26.1,39.8c0.4,1.1,9.4,8,12,8.3C222,246.9,222.3,233.2,244.1,234.4z M233.2,238.4c-8.6,3.3-9.2,22.8-8.9,30.8 l8.4,5.5c0.7-7.4,0.9-22.6,9.3-24.9l3.7-1c0-3.4,0-8-1.3-10.4C241.8,236.8,236.4,237.1,233.2,238.4z M364.8,332.1 c-1.9,2.1-11.3,5.5-4,14.2c4.3,5.2,11.3,5.7,15.2-0.1c5.3-8.1,7.2-29.3,2.6-38.9c-5.3,0.6-13.7,5.7-16.5,8.3 C355.1,322,362.6,327.8,364.8,332.1z M210,489.2c51-6.6,78.2,13.3,91.4,61.3c2.1,7.8,1.6,10.9,8.7,13.7c-1.6-12-3.1-13.8,1.1-25.5 c2.3-6.4,1-5.2-1.5-10.6c-9.3-19.9,10.9-36.2,26.3-44.3c1.7-12.9,1.6-16.4,8.7-25.6c4.6-6,10.4-10.8,20-14.1 c19.8-6.6,38.9-0.2,52.7,8.8c5,3.3,5.2,5,12.6,4.5c15.1-1,27.4,3.9,36.7,14.6c10.8,12.5,17,27.6,18.3,49.2c2.8-1.4,0.2,0.2,2.5-1.7 c0,0,1.2-1,1.4-1.3l9.1-9.2c13.9-18.1,5.3-38.3-8-50.8c-13.7-12.9-32.5-9.6-35-12.4c-1.4-2-1.4-8.5-0.4-11 c8.8-2.5,14.4,2.8,20.7-3.8c16-16.7,18.3-17.8,33.6-37.4c11.9-15.4,26-39.9,31.1-63.6c8-35.3-0.9-89-17-121.3 c-12.7-25.4-10.6-23.8-21.6-20.3c2.1-36.7,11.2-73.4-8.6-111.8C486.3,64,482.1,60,465,66.1c-21.8,7.8-49.6,27.5-64.3,43.5 c-2.8,3-7.2,8.6-10.3,10.9c-6.4,4.7-6.4-6.3-2-11.9c2.4-3.1,8.4-8.9,9.8-11.6c-6.4-1.9-12.5-4.7-19.8-6.7 c-22.6-6.4-45-10.8-69.1-8.9c-27.2,2.2-58.5,14.2-77,26.5c-21.2,14.2-37.1,29.2-48.4,55.9c-10.1,23.6-15.8,60.4-15.1,88.5l17.9,1 c1.1-38.1,12.2-34.8,17.8-52.3c5.8-17.9,25-31.3,38.3-9.4c13.8,0,23.4-0.4,36.8,2c9.9,1.7,6.5,2.8,13-2.6 c11.8-9.9,38.4-10.8,44.6,19.5c2,9.8-0.7,7.1,5.7,12.7c33.1,28.1,46.7,61.7,46.7,108.2c0,77.8-46.6,97.4-52.3,108.8 c-12.8,25.4-29.9,49.5-67.1,46.7c-30.4-2.3-32.4-17.7-41.2-13C222.7,477.3,212.6,482.9,210,489.2z M280.1,518.2 c-15.7-22.3-50.8-30.1-73.6-21.5c-13.1,4.9-16.8,18.4-16.8,34.5c25.5,1.8,34,9.3,47.4,21.1c4.2,3.8,3.7,6.6,10.2,4.7 c4.9-1.4,8.5-2.3,13.6-2.9c12-1.3,21.8,0,33.1,1.9C292.5,541.1,287.2,528.2,280.1,518.2z M183.2,491.6c1.6,5.1,5.1,7.1,8.7,2.8 c11.2-13.6,1.9-6.2,19.7-20.6c3-2.6,2.5-1.5,2.8-4.9c-4.5-5.3-17.5-5.2-24.1-0.7C185.3,471.7,180.1,482,183.2,491.6z M142.2,493.9 c4.1,19.6,31.1,27.7,41.9,16c-1-4.7-6.3-7.3-8.6-11.7c-4.9-9.5,4.4-14.7-4.3-19.4c-1.7-0.8-2.9-1.1-4.2-1.6c0.5-4.8,1.9-3.9,4.5-7.2 l7.6,0.9l0.9-7.5c-12.2-0.9-19.2,0.8-27.5,7.1C147.3,474.5,139.8,482.6,142.2,493.9z M174.9,533.4c2.1-1.9,8.3-9.3,0.8-10.6 c-12.5-2.2-12.5,2.4-29.6-9.2c-3.4-2.3-8.5-7-10.9-7.8C130.7,525.8,158,547.8,174.9,533.4z M155.6,544.5c-2.9-2-7-3-10.3-4.5 c-3.5-1.5-6.3-3.7-9.3-5C131.3,549.4,149.2,561.2,155.6,544.5z M188.3,675.8c15.8-28.2,13.4-86.3-13-102.6 c-13.7-8.4-24.8-2-30.3,7.6c-6.1,10.6-6.5,24.6-6.2,38c0.5,23.2,9.5,56.5,22.1,67.8C171.7,696.3,184.3,683.1,188.3,675.8z  M464,687.3c-1.5-14.9-5.1-18.4-17.6-23.2c-9.9-3.8-8.1,0.2-24.4,12.2c-28,20.5-49.7,19.9-56.5,25.8c1.1,7.4,10.6,8.2,18.6,8.7 c3.1,8.4,12,18.5,18.6,23.3C430.3,754,468.4,731.9,464,687.3z M466.3,568c-15,5.8-15.1,20.6-30.3,34.5c-18,16.5-33.7,23.8-58.4,11 c-4.5-2.3-9.2-0.9-14.6-1.4c-15.9-1.5-21.9-8.7-27.5-21.4c-7-15.8-6,2.3-23.6-23.4c-3,2.2-2.3,4.8-5.3,7.4c-4.4-1.6-9-4.6-14.3-6.4 c-23.4-7.9-35.9-1.4-55.8-0.1c-2.7-3.2-4.5-7-7.2-10.5c-14.8-19.2-39.4-20.8-60.1-9.7c-8.7,4.6-12.7,9-16.8,16.6 c20-3,31.8,2.1,40,14.2c17.3,25.7,19.8,82.9-3.9,108.4c-2.2,2.4-5,4.5-7.8,6.3c-2.3,1.5-6.6,3.2-8.1,5c10.8,9.6,25.7,14.5,44.3,10 c7.8-1.9,13.9-4.4,20.2-7.8c4.4-2.3,5.1-3.6,10.8-3.6c4.4,0,9.6,0.4,14,0.6c44.3,2.1,59.9,4.4,102.9-8.7 c14.2-4.3,28.4-9.8,40.8-16.1c24.1-12.1,44.6-33.9,55.9-57.2C466.4,605.6,471.6,580.3,466.3,568z M473.6,501.8 c-6.2-18.5-18.7-31.5-41.8-33.2c1,5.1,3.5,10.1,1.6,15.6c-3.1-2.9-5.3-9.9-16.5-18.7c-20.3-16.1-61.7-19.7-69.7,14.3h5.9 c4.6-2.1,2.1-15.1,14.9-10.1c0.5,1.3-3.2,14-3.9,16.9c-16.5,2-26.6,5-36.9,13.3c-3.2,2.6-7.9,9.7-8.9,16.5 c-1.6,10.4,3.9,13.1,4.3,19.9c0.4,7.1-5,10.2-2.8,21.1c2.9,14.9,9.9,16.3,18.3,19.4c4.5,1.7,3.5,2.9,5.1,7.1 c2.3,6,6.8,11.1,10.3,14.2c5.4,5,11.1,6.2,19.9,5.8c10.6-0.4,27.2,13.5,49.4-4.3c4.6-3.6,13.9-14.4,17.5-20.2 c13.2-20.9,15.5-34.8,10-59.2c10.6,4.3,10.4,26.2,11.8,38.4C475.5,548.8,480.7,523.3,473.6,501.8z M509.6,558 c-8-10.1-6.8-9.5-33.9,2c0,4.5,4.8,19.9,6.1,25.7c9.5,41,2.1,42-8.5,77c9.9,3.6,20.3,7.9,32.4,8.6c6.3-7.3,13.9-21.9,18.1-33.5 C532.9,612.7,525.4,577.8,509.6,558z M611.8,562.7c-9.5-21.3-14.6-23-23.3-36.2c-9-0.8-36.6,1.9-42,7.2 c13.9,13.4,28.8,35.2,30.3,62.2c0.7,13.5-1.4,29.8-4.1,42.5c-4.3,20.9-8.9,24.8-11.6,34.1c12-0.2,33.3-4.3,43.8-9.9 c2.9-1.6,1.5-0.1,3.2-3.8C623.6,626.2,626.8,596.3,611.8,562.7z"></path></svg>
