<svg id="Warstwa_1" xmlns="http://www.w3.org/2000/svg" xmlns:xlink="http://www.w3.org/1999/xlink" x="0px" y="0px" viewBox="0 0 792 792" xml:space="preserve"><style type="text/css">
	.st0{fill:#F7F706;}
	.st1{fill:#FFFFFF;}
</style><path class="st0" d="M724.3,301c-3.8-1.6-7.8-2.7-11.8-3.7c-5.9-1.5-11.8-2.5-17.8-3.6c-28.1-4.7-56.4-7.9-84.7-11.2 c-35.2-3.9-70.6-6.9-105.9-9.3c-4.2-0.3-8.2-2.9-10-6.7c-0.8-1.7-1.4-3.6-2.1-5.4c-8.2-21-16.6-41.9-25.3-62.7 c-11.2-26.8-22.6-53.4-34.8-79.7c-6.1-13.1-12.4-26.1-19.6-38.6c-3.1-5.1-6.3-10.3-10.5-14.6c-2.2-2.1-4.9-4.3-8.1-3.9 c-2.3,0.4-4.1,2.1-5.7,3.7c-4.8,5.2-8.3,11.5-11.8,17.6c-3.5,6.2-6.7,12.5-9.8,18.9c-12.4,25.3-24,50.9-35.5,76.6 c-12.2,27.7-23.9,55.6-35.1,83.8c-0.7,1.7-1.3,3.4-2.1,5.1c-1.9,3.6-5.7,6.1-9.7,6.3c-28.1,1.7-56.1,4-84,6.6 c-16.9,1.6-33.7,3.5-50.5,5.4c-17.6,2.1-35.2,4.2-52.7,7c-8.2,1.4-16.5,2.8-24.6,5.1c-2.8,0.9-5.7,1.8-8.3,3.2 c-1.6,1-3.4,2.2-3.7,4.1c-0.3,2.3,0.6,4.4,1.6,6.4c1.8,3.4,4.2,6.5,6.7,9.5c9.6,11.4,20.4,21.8,31.1,32.1 c39.2,37.4,79.8,73.4,121.5,107.9c1.9,1.6,4,3.1,5.2,5.2c1.7,2.9,2.2,6.4,1.2,9.6c-13.5,52.3-25.1,105-35.1,158.1 c-2.3,12.9-4.6,25.9-6.1,39c-0.6,5.7-1.1,11.5-1,17.3c0.1,2.8,0.3,5.7,1.5,8.3c0.9,1.9,3.1,2.8,5,3.1c3.4,0.4,6.7-0.5,10-1.4 c4.1-1.3,8.1-3,12-4.9c14.5-6.9,28.5-15,42.5-22.9c14.6-8.3,29.2-16.7,43.8-25.1c30.5-17.5,60.5-35.7,90.2-54.5 c3.6-2.2,8.4-2.2,12.1,0c2.7,1.6,5.3,3.3,8,4.9c40.4,25.1,81.3,49.3,122.7,72.7c13,7.3,26,14.5,39.3,21c6,2.9,12.1,5.7,18.4,7.8 c3.8,1.1,7.9,2.3,11.8,1.3c2.1-0.4,3.3-2.4,4-4.3c1.2-3.7,1.2-7.6,1.2-11.4c-0.3-9.1-1.7-18.2-3.1-27.2c-4.2-24.6-9.5-49-14.5-73.5 c-7.4-35.4-15.6-70.6-24.4-105.6c-0.5-2.1-1.2-4.2-1.6-6.3c-0.7-4.1,1-8.6,4.3-11.2c34.5-28.4,68.3-57.7,101.1-88.1 c13-12,25.9-24.1,38.4-36.7c5.5-5.6,10.9-11.4,15.8-17.5c2.2-2.9,4.4-5.9,5.7-9.3c0.6-1.5,0.9-3.4-0.1-4.9 C728.1,302.9,726.2,301.9,724.3,301 M354.9,416.5c-1.1,7.5-2.5,15.1-6.1,21.8c-1.8,3.2-4.2,6.2-7.6,7.8c-3.8,1.7-8.3,1.6-12.1-0.2 c-2.7-1.3-4.9-3.5-6.5-6c-3.1-4.8-4.7-10.4-5.9-16c-1.9-9.3-2.5-18.8-2.9-28.3c-0.4-11.3-0.4-22.6-0.1-33.9 c0.3-9.1,0.9-18.2,2.5-27.1c1.2-6.6,2.9-13.3,6.5-19.1c2.5-4.1,6.4-7.6,11.2-8.5c3.4-0.7,7-0.6,10.1,1.1c3.3,1.7,5.6,4.9,7.2,8.3 c2.8,6.2,3.8,13,4.6,19.8c0.9,8.5,1.1,17.1,1.2,25.7C356.9,380,357.2,398.4,354.9,416.5 M478.5,390.1c-0.3,9.8-0.8,19.6-2.3,29.3 c-1.1,6.5-2.5,13.1-5.7,18.9c-1.6,2.7-3.6,5.3-6.3,7c-3.3,2-7.4,2.5-11.1,1.6c-3.5-0.9-6.4-3.4-8.4-6.3c-3.1-4.5-4.7-9.9-5.9-15.2 c-2-9.1-2.7-18.4-3.1-27.7c-0.4-9.6-0.5-19.2-0.4-28.7c0-11,0.1-22,1.2-33c0.8-6.8,1.8-13.7,4.7-19.9c1.9-4.1,5.1-7.8,9.6-9 c3.3-0.8,6.9-0.5,10,0.7c3.7,1.5,6.6,4.5,8.7,7.8c3.2,5.2,4.8,11.1,6,16.9c1.8,9.1,2.5,18.4,2.9,27.7 C478.8,370.2,478.7,380.2,478.5,390.1"></path><path class="st1" d="M341.7,318.1c2.3,2.4,3.5,5.6,4.2,8.8c1.4,6.8,1.5,13.9,0.4,20.7c-0.8,3.9-1.6,8-4.2,11.1 c-1.8,2.1-4.8,3.1-7.5,2.4c-2.4-0.5-4.2-2.3-5.4-4.3c-1.7-3-2.4-6.4-2.9-9.8c-0.7-5.3-0.8-10.7-0.1-16c0.5-3.5,1.2-7,3-10 c1.2-2.1,2.9-4.1,5.3-4.8C336.9,315.4,339.8,316.3,341.7,318.1 M463.1,321.3c-1.1-2.1-2.8-4-5.1-4.9c-1.5-0.6-3.2-0.5-4.7,0 c-1.7,0.6-3.2,1.8-4.2,3.3c-2,2.8-2.8,6.2-3.4,9.5c-1.2,7.5-1,15.3,0.9,22.6c0.7,2.6,1.7,5.1,3.5,7.1c2.1,2.3,5.6,3,8.5,1.8 c1.8-0.7,3.2-2.2,4.1-3.8c1.7-2.8,2.4-6.1,2.9-9.3c0.9-5.6,0.9-11.3,0.2-16.9C465.4,327.6,464.7,324.2,463.1,321.3"></path><path d="M750.4,290c-3.5-3.6-8.1-6-13-8.1c-11.4-4.9-23.5-7.8-35.6-10.4c-28.1-5.8-56.5-9.4-84.9-12.7c-34-3.8-68.1-6.8-102.2-9.2 c-0.6,0-0.6-0.7-0.8-1c-10.8-27.2-22-54.1-33.7-80.9c-11.7-26.4-23.7-52.6-37.3-78c-6.7-12.3-13.6-24.5-22.1-35.7 c-4.5-5.8-9.3-11.5-15.7-15.2c-6-3.5-13.9-3.4-19.9,0.2c-6.2,3.6-10.9,9.2-15.3,14.8c-8.4,11-15.3,23-22,35.1 c-14,25.8-26.3,52.5-38.2,79.3c-12,27-23.3,54.3-34.3,81.7c-10.1,0.6-20.3,1.3-30.4,2.1c-35.7,2.8-71.3,6.2-106.8,10.9 c-17.3,2.4-34.5,5-51.5,8.7c-8.7,1.9-17.4,4.1-25.9,7.1c-6.4,2.4-12.9,5.1-18.1,9.6c-4.6,4-7.2,10.2-6.8,16.3 c0.3,4.4,2,8.5,3.9,12.4c3.1,6,6.9,11.4,11,16.7c8.9,11.3,18.7,21.7,28.7,32c18.8,19,38.5,37.3,58.4,55.1 c21.3,19.1,43.1,37.8,65.1,56.2c-9.2,36.2-17.6,72.6-25.1,109.2c-5.2,26.1-10.1,52.4-12.8,79c-1.1,11.7-1.9,23.4-0.7,35.1 c0.6,4.9,1.6,9.9,4,14.2c2.9,5.1,8.2,8.8,14,9.7c5.1,0.7,10.3,0,15.3-1.1c8.9-2,17.5-5.3,25.9-8.7c14.8-6.2,29.2-13.4,43.5-20.8 c14.3-7.5,28.4-15.3,42.4-23.3c29.4-16.8,58.4-34.3,87.1-52.3c0.4-0.4,1-0.2,1.4,0.1c23.6,14.8,47.4,29.2,71.4,43.2 c23.9,13.9,48.1,27.5,72.9,39.9c13.8,6.7,27.7,13.3,42.3,18.3c7.9,2.6,16,5,24.3,4.7c5.5-0.2,10.9-2.7,14.5-6.9 c3.1-3.7,4.5-8.4,5.4-13c1.5-8.2,1.4-16.5,1.1-24.8c-0.9-18-3.5-35.8-6.4-53.6c-2.7-16.2-5.8-32.3-9.1-48.4 c-7-34.4-15-68.6-23.6-102.6c12.6-10.5,25.1-20.9,37.4-31.6c24.5-21.1,48.6-42.6,71.8-65c12.5-12.2,24.8-24.6,36.1-37.9 c5.1-6.2,10.1-12.6,14.2-19.5c2.3-3.9,4.3-8.1,5.3-12.6C757.1,301.8,755,294.7,750.4,290z M730.6,309.3c-1.3,3.4-3.5,6.4-5.7,9.3 c-4.9,6.1-10.3,11.9-15.8,17.5c-12.5,12.6-25.4,24.7-38.4,36.7c-32.8,30.4-66.6,59.7-101.1,88.1c-3.3,2.6-5,7.1-4.3,11.2 c0.4,2.1,1.1,4.2,1.6,6.3c8.8,35,17,70.2,24.4,105.6c5,24.5,10.3,48.9,14.5,73.5c1.4,9,2.8,18.1,3.1,27.2c0,3.8,0,7.7-1.2,11.4 c-0.7,1.9-1.9,3.9-4,4.3c-3.9,1-8-0.2-11.8-1.3c-6.3-2.1-12.4-4.9-18.4-7.8c-13.3-6.5-26.3-13.7-39.3-21 c-41.4-23.4-82.3-47.6-122.7-72.7c-2.7-1.6-5.3-3.3-8-4.9c-3.7-2.2-8.5-2.2-12.1,0c-29.7,18.8-59.7,37-90.2,54.5 c-14.6,8.4-29.2,16.8-43.8,25.1c-14,7.9-28,16-42.5,22.9c-3.9,1.9-7.9,3.6-12,4.9c-3.3,0.9-6.6,1.8-10,1.4c-1.9-0.3-4.1-1.2-5-3.1 c-1.2-2.6-1.4-5.5-1.5-8.3c-0.1-5.8,0.4-11.6,1-17.3c1.5-13.1,3.8-26.1,6.1-39c10-53.1,21.6-105.8,35.1-158.1c1-3.2,0.5-6.7-1.2-9.6 c-1.2-2.1-3.3-3.6-5.2-5.2c-41.7-34.5-82.3-70.5-121.5-107.9c-10.7-10.3-21.5-20.7-31.1-32.1c-2.5-3-4.9-6.1-6.7-9.5 c-1-2-1.9-4.1-1.6-6.4c0.3-1.9,2.1-3.1,3.7-4.1c2.6-1.4,5.5-2.3,8.3-3.2c8.1-2.3,16.4-3.7,24.6-5.1c17.5-2.8,35.1-4.9,52.7-7 c16.8-1.9,33.6-3.8,50.5-5.4c27.9-2.6,55.9-4.9,84-6.6c4-0.2,7.8-2.7,9.7-6.3c0.8-1.7,1.4-3.4,2.1-5.1 c11.2-28.2,22.9-56.1,35.1-83.8c11.5-25.7,23.1-51.3,35.5-76.6c3.1-6.4,6.3-12.7,9.8-18.9c3.5-6.1,7-12.4,11.8-17.6 c1.6-1.6,3.4-3.3,5.7-3.7c3.2-0.4,5.9,1.8,8.1,3.9c4.2,4.3,7.4,9.5,10.5,14.6c7.2,12.5,13.5,25.5,19.6,38.6 c12.2,26.3,23.6,52.9,34.8,79.7c8.7,20.8,17.1,41.7,25.3,62.7c0.7,1.8,1.3,3.7,2.1,5.4c1.8,3.8,5.8,6.4,10,6.7 c35.3,2.4,70.7,5.4,105.9,9.3c28.3,3.3,56.6,6.5,84.7,11.2c6,1.1,11.9,2.1,17.8,3.6c4,1,8,2.1,11.8,3.7c1.9,0.9,3.8,1.9,5.1,3.4 C731.5,305.9,731.2,307.8,730.6,309.3z M476.6,332.5c-1.2-5.8-2.8-11.7-6-16.9c-2.1-3.3-5-6.3-8.7-7.8c-3.1-1.2-6.7-1.5-10-0.7 c-4.5,1.2-7.7,4.9-9.6,9c-2.9,6.2-3.9,13.1-4.7,19.9c-1.1,11-1.2,22-1.2,33c-0.1,9.5,0,19.1,0.4,28.7c0.4,9.3,1.1,18.6,3.1,27.7 c1.2,5.3,2.8,10.7,5.9,15.2c2,2.9,4.9,5.4,8.4,6.3c3.7,0.9,7.8,0.4,11.1-1.6c2.7-1.7,4.7-4.3,6.3-7c3.2-5.8,4.6-12.4,5.7-18.9 c1.5-9.7,2-19.5,2.3-29.3c0.2-9.9,0.3-19.9-0.1-29.9C479.1,350.9,478.4,341.6,476.6,332.5z M466.7,347.6c-0.5,3.2-1.2,6.5-2.9,9.3 c-0.9,1.6-2.3,3.1-4.1,3.8c-2.9,1.2-6.4,0.5-8.5-1.8c-1.8-2-2.8-4.5-3.5-7.1c-1.9-7.3-2.1-15.1-0.9-22.6c0.6-3.3,1.4-6.7,3.4-9.5 c1-1.5,2.5-2.7,4.2-3.3c1.5-0.5,3.2-0.6,4.7,0c2.3,0.9,4,2.8,5.1,4.9c1.6,2.9,2.3,6.3,2.7,9.4C467.6,336.3,467.6,342,466.7,347.6z  M352.3,316.4c-1.6-3.4-3.9-6.6-7.2-8.3c-3.1-1.7-6.7-1.8-10.1-1.1c-4.8,0.9-8.7,4.4-11.2,8.5c-3.6,5.8-5.3,12.5-6.5,19.1 c-1.6,8.9-2.2,18-2.5,27.1c-0.3,11.3-0.3,22.6,0.1,33.9c0.4,9.5,1,19,2.9,28.3c1.2,5.6,2.8,11.2,5.9,16c1.6,2.5,3.8,4.7,6.5,6 c3.8,1.8,8.3,1.9,12.1,0.2c3.4-1.6,5.8-4.6,7.6-7.8c3.6-6.7,5-14.3,6.1-21.8c2.3-18.1,2-36.5,2.1-54.6c-0.1-8.6-0.3-17.2-1.2-25.7 C356.1,329.4,355.1,322.6,352.3,316.4z M347.4,347.6c-0.8,3.9-1.6,8-4.2,11.1c-1.8,2.1-4.8,3.1-7.5,2.4c-2.4-0.5-4.2-2.3-5.4-4.3 c-1.7-3-2.4-6.4-2.9-9.8c-0.7-5.3-0.8-10.7-0.1-16c0.5-3.5,1.2-7,3-10c1.2-2.1,2.9-4.1,5.3-4.8c2.4-0.8,5.3,0.1,7.2,1.9 c2.3,2.4,3.5,5.6,4.2,8.8C348.4,333.7,348.5,340.8,347.4,347.6z"></path></svg>
