<svg xmlns="http://www.w3.org/2000/svg" xmlns:xlink="http://www.w3.org/1999/xlink" id="Warstwa_1" x="0px" y="0px" viewBox="0 0 792 792" xml:space="preserve"><style type="text/css">
	.to0{fill:#FEE90B;}
	.to1{fill:#FF1D28;}
	.to2{fill:#FDDF88;}
	.to3{fill:#FFFFFF;}
</style><path class="to0" d="M654.5,310.5c-1-31.5,3.4-63.2,13.3-93.1c-1.2-2.1-2.5-4.2-4-6.2c-22.8-33.1-51-62.7-83.8-86.2  c-23.8-17.1-49.9-30.9-77.4-40.9c-32.8-11.9-67.5-18.3-102.3-19.5c-4.2-0.2-8.4,0-12.6,0.2c-18.7,0.9-37.2,3.3-55.5,7.2  c-39.8,8.4-77.9,24.5-111.7,47c-31.5,21-59.1,47.5-82,77.5c-4.9,6.5-9.8,13-14,20c9.9,29.8,14.4,61.3,13.5,92.7  c-0.9,33.5-7.7,66.9-21,97.6c-11,25.6-26.6,49.4-46.3,69.2c0.1,1.1,0.6,2,0.8,3.1c6.5,22.2,17.4,43.1,32.1,61  c17.7,21.7,40.9,38.9,66.9,49.3c0.1-7.9,0.6-15.7,1.7-23.5c12-17.2,28.3-31,45.9-42.1c12-7.6,24.8-13.9,37.9-19.2  c30.3-12.2,62.4-19.4,94.8-22.8c20-2.1,40.2-2.8,60.3-1.9c29.7,1.3,59.3,5.7,87.8,14c21.7,6.4,42.8,15,62.2,26.5  c13.9,8.2,27,18,38.4,29.5c4.7,4.8,9.2,9.8,13.2,15.2c0.8,0.9,0.6,2.1,0.8,3.3c0.8,7.8,1,15.7,1.1,23.6c10.7-4,21-9.1,30.5-15.3  c23.1-15,42.3-35.5,56.8-58.9c8.1-13.3,14.8-27.5,19.3-42.4c-24.1-24.3-41.8-54.7-52.8-87.1C659.9,363.3,655.4,336.9,654.5,310.5   M572.2,295.8c-7,27.9-21.2,54-40.7,75.1c-19,20.8-43.1,37-69.5,46.9c-32.8,12.4-69.3,14.9-103.5,7.5c-28.3-6.1-55.1-19.1-77.4-37.7  c-21.8-18-39.2-41.3-50.1-67.4c-13.6-32.3-16.8-68.8-9.2-103c6.7-30.4,22-58.8,43.3-81.5c21.1-22.4,48-39.2,77.3-48.4  c13.8-4.3,28.2-7,42.6-8c33.1-2.3,66.8,4.5,96.2,19.8c24.4,12.5,45.9,30.7,62.2,52.8c18.7,25.2,30.5,55.7,33.2,87  C578.3,257.9,576.9,277.2,572.2,295.8"></path><path class="to1" d="M519.6,144.5c18.5,19.5,32.2,43.6,39,69.6c5,19.1,6.4,39.1,4.1,58.7c-3.2,27.8-14.2,54.6-31.1,76.9  c-17.3,23-40.7,41.2-67.1,52.5c-30.9,13.4-65.9,17-98.9,10.7c-28.7-5.4-55.9-18.5-78-37.6c-21.2-18.2-37.7-41.9-47-68.3  c-11.7-32.8-12.1-69.6-1-102.6c8.9-26.9,25.3-51.2,46.6-69.9c22.3-19.7,49.9-33.2,79.1-38.8c8.9-1.7,18-2.7,27.1-3  c18.1-0.6,36.2,1.7,53.5,6.9C473.7,107.6,499.5,123.4,519.6,144.5 M123.9,284.1c-1.2-17.2-4.2-34.2-8.8-50.8c-0.1,0-0.3,0-0.4,0  c-12.8,23.3-24.4,47.4-33.6,72.4c-5.1,15.4-9.2,31.2-12.2,47.2c-6.6,35.2-8,71.5-1.7,106.8c1.1-1.2,2.2-2.4,3.3-3.6  c18.2-21.1,31.8-45.8,40.7-72.1C122,352,126.2,317.8,123.9,284.1 M707.7,297.7c-4.5-11.6-9.6-23-15-34.2c-4.9-10.1-9.9-20-15.4-29.7  c-5,18-8,36.5-9,55.1c-1.4,28.6,1.8,57.5,9.8,85.1c9.1,31.3,24.7,60.9,46.6,85.2c1.4-7.7,2.3-15.5,3-23.3  c3.4-40.7-2.2-81.8-14-120.8C712.1,309.1,709.9,303.4,707.7,297.7"></path><path class="to2" d="M582.9,564.1c-13.1-11.1-27.9-20-43.4-27.3c-18.7-8.9-38.4-15.4-58.5-20.3c-30.2-7.2-61.3-10.3-92.4-10  c-23,0.3-45.9,2.2-68.6,6.2c-30.8,5.5-61.4,14.7-88.8,30.1c-12.6,7.2-24.5,15.7-34.6,26.1c-1.6,1.8-3.5,3.4-4.8,5.4  c-0.4,6.8-0.1,13.6,0.2,20.4c1.1,21.2,5.1,42.5,13.9,61.8c4.4,9.6,10.2,18.7,17.4,26.5c6.3,6.9,13.6,12.8,21.7,17.4  c7,4.1,14.5,6.9,22.1,9.5c35.8,12.3,73.9,17,111.7,16.8c9.8,0.3,19.6,0.1,29.5,0c35.8,0.2,71.9-3.9,106.2-14.8  c6.8-2.2,13.5-4.5,20-7.4c13-5.8,24.6-14.7,33.4-25.9c9.4-11.8,15.7-25.8,19.8-40.2c4.7-16.9,6.4-34.4,6.7-51.9c0-4,0.2-8-0.2-12  C590.6,570.9,586.8,567.4,582.9,564.1 M337.6,630.6c-0.9,6.1-2,12.3-4.7,17.9c-1.4,2.8-3.3,5.6-6.1,7.2c-4.6,2.8-11,1.9-14.8-1.9  c-3.5-3.6-5.3-8.4-6.6-13.2c-1.8-6.8-2.4-13.9-2.9-20.9c-0.5-7.7-0.6-15.5-0.6-23.2c0-8.1,0.2-16.2,0.8-24.3  c0.7-7.2,1.6-14.4,3.9-21.2c1.3-3.7,3-7.5,5.8-10.3c2.1-2.1,4.8-3.6,7.8-4c3-0.5,6.2-0.1,8.8,1.6c3.3,2.2,5.1,5.9,6.4,9.5  c2.1,6.4,2.7,13.2,3.2,19.9c0.4,7.4,0.5,14.9,0.5,22.3C339.3,603.6,339.3,617.2,337.6,630.6 M491,614.5c-0.3,6-0.7,12-1.6,18  c-0.8,5.3-1.9,10.6-4.2,15.5c-1.2,2.6-2.9,5.1-5.3,6.9c-4.3,3.2-10.8,3.3-14.9-0.2c-3.8-3.2-5.7-8.1-7.1-12.7  c-2.4-8.7-3-17.8-3.5-26.7c-0.5-11.5-0.4-23-0.3-34.5c0.1-7.6,0.4-15.2,1.4-22.8c0.8-5.1,1.8-10.4,4.4-14.9c1.8-3.1,4.7-5.8,8.4-6.3  c4.1-0.7,8.4,0.4,11.5,3.2c3.8,3.3,5.8,8.1,7.3,12.9c2.9,10,3.5,20.5,4,30.9C491.5,593.9,491.4,604.2,491,614.5"></path><path class="to3" d="M326,546.1c2.4,2.1,3.4,5.3,4,8.3c1.2,6.4,1.2,13-0.1,19.3c-0.7,2.9-1.6,6-3.8,8.1c-1.6,1.6-4.1,2-6.2,1.4  c-2-0.6-3.4-2.1-4.4-3.9c-1.6-2.9-2.1-6.3-2.5-9.6c-0.6-5.7-0.4-11.5,1.1-17c0.9-3.1,2.5-6.5,5.7-7.8  C321.7,544.1,324.3,544.6,326,546.1 M475.4,545.9c-1.6-1.3-3.9-1.7-5.9-1c-2.3,0.8-3.8,2.8-4.7,5c-1.4,3.4-1.9,7-2.2,10.6  c-0.3,5.1,0.1,10.3,1.5,15.3c0.7,2.3,1.7,4.6,3.6,6.2c2.4,2.1,6.3,1.9,8.5-0.3c1.6-1.5,2.6-3.7,3.2-5.8c1.9-7.4,2-15.3,0.2-22.8  C478.8,550.5,477.6,547.7,475.4,545.9"></path><path d="M487.9,553c-1.5-4.8-3.5-9.6-7.3-12.9c-3.1-2.8-7.4-3.9-11.5-3.2c-3.7,0.5-6.6,3.2-8.4,6.3c-2.6,4.5-3.6,9.8-4.4,14.9  c-1,7.6-1.3,15.2-1.4,22.8c-0.1,11.5-0.2,23,0.3,34.5c0.5,8.9,1.1,18,3.5,26.7c1.4,4.6,3.3,9.5,7.1,12.7c4.1,3.5,10.6,3.4,14.9,0.2  c2.4-1.8,4.1-4.3,5.3-6.9c2.3-4.9,3.4-10.2,4.2-15.5c0.9-6,1.3-12,1.6-18c0.4-10.3,0.5-20.6,0.1-30.7  C491.4,573.5,490.8,563,487.9,553z M480.2,576c-0.6,2.1-1.6,4.3-3.2,5.8c-2.2,2.2-6.1,2.4-8.5,0.3c-1.9-1.6-2.9-3.9-3.6-6.2  c-1.4-5-1.8-10.2-1.5-15.3c0.3-3.6,0.8-7.2,2.2-10.6c0.9-2.2,2.4-4.2,4.7-5c2-0.7,4.3-0.3,5.9,1c2.2,1.8,3.4,4.6,4.2,7.2  C482.2,560.7,482.1,568.6,480.2,576z M339.4,567.8c-0.5-6.7-1.1-13.5-3.2-19.9c-1.3-3.6-3.1-7.3-6.4-9.5c-2.6-1.7-5.8-2.1-8.8-1.6  c-3,0.4-5.7,1.9-7.8,4c-2.8,2.8-4.5,6.6-5.8,10.3c-2.3,6.8-3.2,14-3.9,21.2c-0.6,8.1-0.8,16.2-0.8,24.3c0,7.7,0.1,15.5,0.6,23.2  c0.5,7,1.1,14.1,2.9,20.9c1.3,4.8,3.1,9.6,6.6,13.2c3.8,3.8,10.2,4.7,14.8,1.9c2.8-1.6,4.7-4.4,6.1-7.2c2.7-5.6,3.8-11.8,4.7-17.9  c1.7-13.4,1.7-27,1.5-40.6C339.9,582.7,339.8,575.2,339.4,567.8z M330.7,573.8c-0.7,2.9-1.6,6-3.8,8.1c-1.6,1.6-4.1,2-6.2,1.4  c-2-0.6-3.4-2.1-4.4-3.9c-1.6-2.9-2.1-6.3-2.5-9.6c-0.6-5.7-0.4-11.5,1.1-17c0.9-3.1,2.5-6.5,5.7-7.8c1.9-0.8,4.5-0.3,6.2,1.2  c2.4,2.1,3.4,5.3,4,8.3C332,560.9,332,567.5,330.7,573.8z M544.2,152c-16.3-22.1-37.8-40.3-62.2-52.8  c-29.4-15.3-63.1-22.1-96.2-19.8c-14.4,1-28.8,3.7-42.6,8c-29.3,9.2-56.2,26-77.3,48.4c-21.3,22.7-36.6,51.1-43.3,81.5  c-7.6,34.2-4.4,70.7,9.2,103c10.9,26.1,28.3,49.4,50.1,67.4c22.3,18.6,49.1,31.6,77.4,37.7c34.2,7.4,70.7,4.9,103.5-7.5  c26.4-9.9,50.5-26.1,69.5-46.9c19.5-21.1,33.7-47.2,40.7-75.1c4.7-18.6,6.1-37.9,4.4-56.9C574.7,207.7,562.9,177.2,544.2,152z   M563.5,272.9c-3.2,27.8-14.2,54.6-31.1,76.9c-17.3,23-40.7,41.2-67.1,52.5c-30.9,13.4-65.9,17-98.9,10.7  c-28.7-5.4-55.9-18.5-78-37.6c-21.2-18.2-37.7-41.9-47-68.3c-11.7-32.8-12.1-69.6-1-102.6c8.9-26.9,25.3-51.2,46.6-69.9  c22.3-19.7,49.9-33.2,79.1-38.8c8.9-1.7,18-2.7,27.1-3c18.1-0.6,36.2,1.7,53.5,6.9c27.8,8,53.6,23.8,73.7,44.9  c18.5,19.5,32.2,43.6,39,69.6C564.4,233.3,565.8,253.3,563.5,272.9z M748.9,338.8c-9-41.8-24.9-82.1-46.6-119  c-3-5.2-6.4-10.2-9.4-15.4c-28-43-64.1-80.8-106.9-109.1c-24.6-16.3-51.3-29.5-79.2-39C473.9,45,439.3,38.8,404.6,37.4  c-9.5-0.5-19,0.1-28.5,0.8c-43.4,3.4-86.3,14.3-125.6,32.9c-25,11.8-48.6,26.6-70.2,44c-34.9,28.2-64.4,62.8-87.5,101.2  C69,256.1,52.1,300,43.3,345.5c-6.7,34.9-8.7,70.8-4.2,106.1c1,7.6,2.3,15.2,3.9,22.7c0.7,4.6,2.1,9,3.4,13.5  c10.1,33.8,29.1,65,55,89.1c20,18.7,44.1,33.1,70.1,41.7c0.4,0.2,0.8,0.3,1.1,0.6c1.4,12,3.6,23.8,7.2,35.3  c5.6,18.4,14.7,36,27.9,50.1c11.7,12.6,26.6,22.1,42.8,28c8.8,3.2,17.6,5.9,26.6,8.4c34,9.2,69.3,13.8,104.5,13.5  c9.6,0.2,19.2,0.3,28.8,0c23.1,0.1,46.1-2.2,68.7-6.3c15.8-2.9,31.5-6.7,46.8-11.4c7.8-2.4,15.6-4.9,22.9-8.4  c11.7-5.7,22.3-13.6,31-23.3c9.6-10.6,16.8-23.2,22.1-36.4c6-15.1,9.6-31.1,11.6-47.3c10.5-3.1,20.7-7.1,30.5-12  c25.7-12.8,48-31.8,65.9-54.1c17.5-21.9,31.1-47.2,38.9-74.2c2.2-8,3.7-16.1,4.9-24.3C759.4,417.6,757.1,377.5,748.9,338.8z   M68,459.8c-6.3-35.3-4.9-71.6,1.7-106.8c3-16,7.1-31.8,12.2-47.2c9.2-25,20.8-49.1,33.6-72.4c0.1,0,0.3,0,0.4,0  c4.6,16.6,7.6,33.6,8.8,50.8c2.3,33.7-1.9,67.9-12.7,99.9c-8.9,26.3-22.5,51-40.7,72.1C70.2,457.4,69.1,458.6,68,459.8z   M595.2,586.6c-0.3,17.5-2,35-6.7,51.9c-4.1,14.4-10.4,28.4-19.8,40.2c-8.8,11.2-20.4,20.1-33.4,25.9c-6.5,2.9-13.2,5.2-20,7.4  c-34.3,10.9-70.4,15-106.2,14.8c-9.9,0.1-19.7,0.3-29.5,0c-37.8,0.2-75.9-4.5-111.7-16.8c-7.6-2.6-15.1-5.4-22.1-9.5  c-8.1-4.6-15.4-10.5-21.7-17.4c-7.2-7.8-13-16.9-17.4-26.5c-8.8-19.3-12.8-40.6-13.9-61.8c-0.3-6.8-0.6-13.6-0.2-20.4  c1.3-2,3.2-3.6,4.8-5.4c10.1-10.4,22-18.9,34.6-26.1c27.4-15.4,58-24.6,88.8-30.1c22.7-4,45.6-5.9,68.6-6.2  c31.1-0.3,62.2,2.8,92.4,10c20.1,4.9,39.8,11.4,58.5,20.3c15.5,7.3,30.3,16.2,43.4,27.3c3.9,3.3,7.7,6.8,11.3,10.4  C595.4,578.6,595.2,582.6,595.2,586.6z M702.7,517.9c-14.5,23.4-33.7,43.9-56.8,58.9c-9.5,6.2-19.8,11.3-30.5,15.3  c-0.1-7.9-0.3-15.8-1.1-23.6c-0.2-1.2,0-2.4-0.8-3.3c-4-5.4-8.5-10.4-13.2-15.2c-11.4-11.5-24.5-21.3-38.4-29.5  c-19.4-11.5-40.5-20.1-62.2-26.5c-28.5-8.3-58.1-12.7-87.8-14c-20.1-0.9-40.3-0.2-60.3,1.9c-32.4,3.4-64.5,10.6-94.8,22.8  c-13.1,5.3-25.9,11.6-37.9,19.2C201.3,535,185,548.8,173,566c-1.1,7.8-1.6,15.6-1.7,23.5c-26-10.4-49.2-27.6-66.9-49.3  c-14.7-17.9-25.6-38.8-32.1-61c-0.2-1.1-0.7-2-0.8-3.1c19.7-19.8,35.3-43.6,46.3-69.2c13.3-30.7,20.1-64.1,21-97.6  c0.9-31.4-3.6-62.9-13.5-92.7c4.2-7,9.1-13.5,14-20c22.9-30,50.5-56.5,82-77.5c33.8-22.5,71.9-38.6,111.7-47  c18.3-3.9,36.8-6.3,55.5-7.2c4.2-0.2,8.4-0.4,12.6-0.2c34.8,1.2,69.5,7.6,102.3,19.5c27.5,10,53.6,23.8,77.4,40.9  c32.8,23.5,61,53.1,83.8,86.2c1.5,2,2.8,4.1,4,6.2c-9.9,29.9-14.3,61.6-13.3,93.1c0.9,26.4,5.4,52.8,13.9,77.8  c11,32.4,28.7,62.8,52.8,87.1C717.5,490.4,710.8,504.6,702.7,517.9z M728.5,436c-0.7,7.8-1.6,15.6-3,23.3  c-21.9-24.3-37.5-53.9-46.6-85.2c-8-27.6-11.2-56.5-9.8-85.1c1-18.6,4-37.1,9-55.1c5.5,9.7,10.5,19.6,15.4,29.7  c5.4,11.2,10.5,22.6,15,34.2c2.2,5.7,4.4,11.4,6,17.4C726.3,354.2,731.9,395.3,728.5,436z"></path></svg>
